<svg width="30" height="30" viewBox="0 0 30 30" fill="none" xmlns="http://www.w3.org/2000/svg">
<path d="M8.01178 19.8807C8.10354 18.5158 8.07732 17.1118 8.24118 15.7143C8.33294 14.9538 8.4968 14.1999 8.56234 13.4394C8.64755 12.3994 8.54268 11.3594 8.51646 10.313C8.50991 10.0075 8.47714 9.70199 8.55579 9.3965C8.59511 9.2405 8.6541 9.07801 8.81796 9.04551C9.09979 8.98051 9.02114 8.82451 8.96215 8.65552C8.89661 8.46702 8.83762 8.27853 8.76552 8.09653C8.37227 7.14106 8.70654 6.28308 9.185 5.47711C9.59137 4.78812 10.1223 4.17064 10.6794 3.59216C11.302 2.94217 12.0754 2.61718 12.9865 2.60418C13.1569 2.60418 13.3273 2.59768 13.5043 2.58468C13.5895 2.57818 13.6747 2.57818 13.7665 2.57168C13.8451 2.56518 13.9303 2.57168 14.009 2.55868C14.0352 2.55218 14.0614 2.54568 14.0876 2.53918C14.1335 2.53918 14.1794 2.55218 14.2187 2.55218C14.317 2.56518 14.4088 2.57818 14.5071 2.59768C14.6972 2.63018 14.8872 2.66268 15.0773 2.70168C15.4575 2.77318 15.8311 2.86418 16.2047 2.96167C16.4078 3.01367 16.611 3.07217 16.8011 3.16967C17.1485 3.35816 17.3975 3.67665 17.7318 3.88465C17.9612 4.02764 18.2168 4.11214 18.4266 4.28114C18.6625 4.46963 18.8133 4.73613 18.9575 5.00262C19.1148 5.28861 19.2721 5.5746 19.3769 5.88659C19.4032 5.96459 19.4294 6.04909 19.449 6.12709C19.5277 6.45858 19.567 6.79657 19.6063 7.13456C19.6457 7.46605 19.6916 7.80404 19.803 8.12253C19.8292 8.20053 19.862 8.27853 19.8947 8.35653C19.9078 8.38903 19.9275 8.42153 19.9341 8.45403C19.9341 8.49952 19.9275 8.54502 19.9275 8.59052C19.921 9.57199 19.8357 10.547 19.8161 11.5284C19.7833 13.1144 19.6719 14.7004 19.4949 16.2798C19.4622 16.5593 19.5015 16.8323 19.567 17.0988C19.7571 17.8918 19.8161 18.6847 19.6981 19.5037C19.5998 20.1927 19.5998 20.9012 19.5539 21.6032C19.5342 21.9152 19.3638 22.0452 19.0558 22.0517C18.6953 22.0582 18.3676 21.9087 18.0071 21.9022C17.5024 21.8892 17.0174 22.0062 16.5258 22.0582C15.7 22.1362 14.9004 21.9867 14.0876 21.8892C13.9434 21.8762 13.8058 21.8112 13.6616 21.8177C13.5108 21.8177 13.3666 21.8242 13.2159 21.8177C13.1438 21.8112 13.0717 21.8112 12.9996 21.7917C12.9537 21.7787 12.921 21.7592 12.8751 21.7527C12.6784 21.7332 12.4818 21.7332 12.2852 21.7202C12.0886 21.7137 11.8919 21.7007 11.6953 21.6942C11.302 21.6747 10.9022 21.6617 10.509 21.6487C10.1157 21.6357 9.7159 21.6227 9.32264 21.6097C9.22433 21.6097 9.12601 21.6032 9.0277 21.6032C8.93594 21.6032 8.83107 21.5837 8.73931 21.5967C8.71309 21.6032 8.68687 21.6162 8.66721 21.6227C8.57545 21.6487 8.46403 21.6357 8.37227 21.6162C8.08388 21.5382 8.01178 21.2327 8.00523 20.9727C7.99867 20.7972 8.01833 20.6217 8.02489 20.4462C8.01178 20.2707 8.01178 20.0952 8.01178 19.8807Z" fill="#6B00FA" stroke="#362745" stroke-width="0.5" stroke-miterlimit="10"/>
<path d="M20.1047 25.3341C20.0523 25.6721 20.0982 26.0556 19.9998 26.4196C19.9605 26.5626 19.9277 26.699 19.7704 26.7575C19.6197 26.8095 19.5148 26.7445 19.4427 26.6145C19.3903 26.5236 19.2985 26.5301 19.2068 26.5236C18.4661 26.4781 17.7255 26.4326 16.9914 26.3936C14.4614 26.2636 11.938 26.1336 9.40808 26.0036C8.70021 25.9711 7.99235 25.9516 7.28448 25.9126C7.09441 25.8996 6.71426 25.9126 6.66838 25.6591C6.65527 25.5811 6.60939 25.5161 6.58972 25.4381C6.54384 25.2756 6.53729 25.1001 6.53729 24.9311C6.52418 24.5411 6.51763 24.1446 6.50452 23.7546C6.50452 23.6896 6.50452 23.6246 6.49796 23.5596C6.49796 23.5141 6.48485 23.4881 6.46519 23.4556C6.41931 23.3581 6.45864 23.2476 6.52418 23.1696C6.60939 23.0656 6.72736 23.0201 6.8519 23.0721C7.25826 23.2216 7.68429 23.1891 8.09721 23.2151C10.0373 23.3256 11.9839 23.4101 13.9305 23.5011C15.7002 23.5856 17.4633 23.6766 19.233 23.7676C19.8425 23.8001 20.0785 24.0471 20.0785 24.6581C20.0785 24.8726 20.0916 25.0871 20.1047 25.3341Z" fill="#4300BF" stroke="#362745" stroke-width="0.5" stroke-miterlimit="10"/>
<path d="M14.4618 21.8566C13.8654 21.8371 13.2624 21.8111 12.6725 21.7266C12.2924 21.6681 11.9253 21.5836 11.5452 21.5316C11.1388 21.4796 10.7193 21.4731 10.313 21.4666C9.69031 21.4536 9.05454 21.4471 8.45154 21.5966C7.84855 21.7461 7.25866 22.0776 6.9375 22.6106C7.50772 23.0266 8.25492 23.0786 8.96278 23.1176C9.39536 23.1436 9.82795 23.1631 10.2605 23.1891C13.4525 23.3646 16.6444 23.5401 19.8364 23.5466C19.7381 23.2476 19.6397 22.9421 19.5349 22.6431C19.4431 22.3766 19.312 22.0646 18.9974 21.9996C18.8926 21.9801 18.7877 21.9996 18.6828 22.0061C18.4993 22.0061 18.3092 21.9931 18.1257 21.9866C17.3457 21.9606 16.5592 21.9281 15.7793 21.9021C15.3401 21.8891 14.901 21.8696 14.4618 21.8566Z" fill="#6B00FA" stroke="#362745" stroke-width="0.5" stroke-miterlimit="10"/>
<path d="M21.7168 21.3107C21.8151 21.2587 21.9265 21.2067 21.9855 21.1157C22.0445 21.0247 22.051 20.9142 22.0576 20.8102C22.0838 20.3812 22.11 19.9587 22.1362 19.5298C22.169 19.0488 22.1952 18.5678 22.1887 18.0868C22.1821 17.6318 22.1362 17.1768 22.1625 16.7283C22.1887 16.3123 22.2739 15.9028 22.3198 15.4869C22.4836 14.0179 22.1362 12.5359 22.2018 11.0605C22.228 10.5145 22.3132 9.96851 22.346 9.41602C22.4443 7.92756 22.1821 6.4131 21.5922 5.04164C21.5398 4.92464 21.4874 4.80765 21.389 4.72965C21.258 4.62565 21.081 4.61265 20.9368 4.52816C20.7336 4.40466 20.655 4.15767 20.5435 3.94317C20.2683 3.41019 19.7439 3.0462 19.1737 2.8447C18.6035 2.64321 18.0005 2.58471 17.404 2.52621C16.9846 2.48721 16.5651 2.44821 16.1456 2.40271C15.9424 2.38321 15.6475 2.44821 15.6802 2.64971C16.2832 3.09819 16.978 3.42319 17.6138 3.82617C18.2495 4.22916 18.8525 4.74265 19.154 5.43163C19.2851 5.72412 19.3507 6.04261 19.4162 6.36111C19.6128 7.27108 19.8029 8.18106 19.8488 9.11053C19.8816 9.78651 19.8357 10.469 19.7898 11.1515C19.7308 12.042 19.6915 12.9389 19.6522 13.8294C19.6128 14.7199 19.5866 15.6169 19.5735 16.5073C19.5538 17.4043 19.5473 18.2948 19.5538 19.1853C19.5538 19.6337 19.5604 20.0822 19.567 20.5242C19.567 20.7452 19.5735 20.9727 19.5801 21.1937C19.5866 21.4017 19.567 21.6292 19.5932 21.8437C19.639 22.1622 19.9995 22.1167 20.2224 22.0192C20.6287 21.8437 21.022 21.6357 21.4284 21.4407C21.5005 21.4147 21.6447 21.3107 21.7168 21.3107Z" fill="#4300BF" stroke="#362745" stroke-width="0.5" stroke-miterlimit="10"/>
<path d="M20.0058 23.4686C20.032 23.5141 20.0648 23.5661 20.1172 23.5661C20.15 23.5661 20.1827 23.5466 20.209 23.5336C20.5105 23.3321 20.7595 23.0591 21.0872 22.9096C21.3101 22.8056 21.5526 22.7666 21.782 22.6886C22.1097 22.5781 22.4047 22.3896 22.6996 22.2077C22.8045 22.1427 22.9224 22.0452 22.9028 21.9217C22.8962 21.8762 22.87 21.8372 22.8438 21.8047C22.6799 21.5837 22.4833 21.3952 22.2605 21.2392C22.2146 21.2067 22.1687 21.1807 22.1163 21.1742C22.0507 21.1677 21.9852 21.2002 21.9262 21.2262C21.4477 21.4602 20.9758 21.6942 20.5039 21.9347C20.268 22.0517 20.032 22.1752 19.796 22.2922C19.5994 22.3896 19.4356 22.4611 19.5666 22.6951C19.7174 22.9551 19.8747 23.2086 20.0058 23.4686Z" fill="#100342" stroke="#362745" stroke-width="0.5" stroke-miterlimit="10"/>
<path d="M20.2155 26.2636C20.2221 26.3091 20.2286 26.3611 20.2549 26.3936C20.327 26.4716 20.4515 26.4261 20.5433 26.3741C21.3363 25.9321 22.1294 25.4901 22.9225 25.0481C23.0011 25.0026 23.0863 24.9571 23.1388 24.8791C23.1912 24.7946 23.1977 24.6906 23.2043 24.5931C23.2305 24.0666 23.2502 23.5402 23.2764 23.0072C23.283 22.8577 23.283 22.6952 23.1977 22.5782C23.106 22.4482 22.929 22.4092 22.7717 22.4287C22.6144 22.4482 22.4702 22.5262 22.3326 22.6042C21.6968 22.9552 21.061 23.2997 20.4253 23.6442C20.2155 23.7611 19.9599 23.8391 19.9796 24.1121C19.9992 24.4306 20.0517 24.7491 20.0845 25.0611C20.1041 25.2626 20.1303 25.4576 20.15 25.6591C20.1697 25.8606 20.2155 26.0686 20.2155 26.2636Z" fill="#100342" stroke="#362745" stroke-width="0.5" stroke-miterlimit="10"/>
<path d="M16.625 5.86711C16.7495 5.97111 16.7364 6.1856 16.6053 6.2831C16.4742 6.38059 16.2645 6.3156 16.2055 6.1661C16.1465 6.0166 16.2579 5.82811 16.4152 5.80211C16.4873 5.79561 16.566 5.81511 16.625 5.86711Z" fill="#4300BF"/>
<path d="M17.6869 6.78367C17.6804 6.81616 17.6738 6.84216 17.6738 6.87466C17.6804 6.93316 17.7197 6.97866 17.7721 6.99816C17.9098 7.06966 18.113 6.96566 18.1326 6.80967C18.1457 6.65367 17.9753 6.50417 17.8246 6.54967C17.8115 6.54317 17.7918 6.55617 17.7853 6.56917C17.7263 6.64067 17.7132 6.70567 17.6869 6.78367Z" fill="#4300BF"/>
<path d="M17.0379 7.70002C16.9396 7.70002 16.8413 7.70002 16.7495 7.70002C16.7233 7.70002 16.6971 7.70002 16.6774 7.71952C16.6643 7.73252 16.6643 7.75202 16.6577 7.77152C16.6446 7.84952 16.6381 7.92102 16.6315 7.99901C16.625 8.09001 16.625 8.20701 16.7036 8.25251C16.756 8.27851 16.815 8.27201 16.8675 8.285C16.9133 8.298 16.9527 8.324 16.9986 8.3175C17.0903 8.3175 17.1493 8.22001 17.169 8.12901C17.1886 8.03151 17.1952 7.93401 17.1493 7.84302C17.1034 7.75202 17.0117 7.68702 16.9133 7.70002" fill="#4300BF"/>
<path d="M21.4613 10.5274C21.3957 10.4624 21.3171 10.4689 21.2319 10.4949C21.1532 10.5209 21.1073 10.5989 21.1139 10.6769C21.1139 10.7419 21.1598 10.8069 21.2057 10.8524C21.2778 10.9239 21.4088 10.8589 21.4613 10.7939C21.5268 10.7289 21.5268 10.6054 21.4613 10.5274Z" fill="#6B00FA"/>
<path d="M21.003 11.6195C20.9964 11.5805 20.9702 11.5155 20.9375 11.483C20.8981 11.444 20.8195 11.4635 20.7736 11.483C20.7343 11.5025 20.6949 11.5285 20.6622 11.561C20.6491 11.574 20.636 11.5805 20.6294 11.6C20.6097 11.6325 20.6032 11.665 20.5966 11.704C20.5966 11.7235 20.577 11.8145 20.5966 11.8275C20.6753 11.8795 20.7801 11.8925 20.8719 11.8535C20.9506 11.808 21.0161 11.7105 21.003 11.6195Z" fill="#6B00FA"/>
<path d="M9.71003 19.8352C9.5855 19.8352 9.46752 19.8937 9.40854 19.9977C9.34955 20.1017 9.36921 20.2512 9.46097 20.3292C9.55928 20.4137 9.88044 20.4072 9.9722 20.3227C10.064 20.2382 9.93943 20.0887 9.887 19.9652C9.80835 19.9197 9.72314 19.8742 9.63794 19.8352" fill="#4300BF"/>
<path d="M9.13903 17.6838C9.09971 17.7878 9.06694 17.8918 9.04727 18.0023C9.04072 18.0218 9.04072 18.0478 9.05383 18.0673C9.07349 18.0998 9.11282 18.1063 9.15214 18.1128C9.25046 18.1193 9.36188 18.1193 9.42087 18.0478C9.44053 18.0283 9.45364 17.9958 9.46019 17.9698C9.49297 17.8658 9.4733 17.7423 9.38154 17.6838C9.28978 17.6253 9.14559 17.6578 9.12593 17.7618" fill="#4300BF"/>
<path d="M10.601 18.7498C10.5879 18.7173 10.5617 18.6653 10.5289 18.6523C10.5092 18.6458 10.4765 18.6523 10.4502 18.6523C10.424 18.6523 10.4044 18.6523 10.3781 18.6523C10.3585 18.6523 10.3388 18.6523 10.3257 18.6588C10.2995 18.6718 10.2733 18.7108 10.2536 18.7303C10.2405 18.7368 10.2339 18.7433 10.2274 18.7563C10.2077 18.7888 10.2012 18.8343 10.2012 18.8733C10.2012 18.8863 10.2012 18.9903 10.2143 18.9903C10.2798 19.0033 10.5092 19.0228 10.5748 19.0358C10.6141 19.0423 10.5027 19.0553 10.5354 19.0293C10.5485 19.0163 10.5617 19.0033 10.5748 18.9838C10.6075 18.9058 10.6272 18.8213 10.601 18.7498Z" fill="#4300BF"/>
<path d="M17.0249 25.7306C17.1494 25.8216 17.3526 25.7956 17.4378 25.6656C17.5034 25.5681 17.4902 25.4446 17.4706 25.3276C17.464 25.2951 17.4575 25.2626 17.4378 25.2431C17.4181 25.2236 17.3854 25.2171 17.3526 25.2171C17.2608 25.2041 17.1822 25.2106 17.0904 25.2106C17.0773 25.2106 17.0642 25.2106 17.0511 25.2106C17.0183 25.2236 16.9856 25.2496 16.9593 25.2756C16.8938 25.3406 16.8676 25.4186 16.8872 25.5096C16.9069 25.5941 16.9528 25.6786 17.0249 25.7306Z" fill="#6B00FA"/>
<path d="M16.1916 24.4631C16.0998 24.5021 16.054 24.6126 16.0867 24.7036C16.1392 24.7491 16.2047 24.7881 16.2768 24.7946C16.3489 24.8011 16.4276 24.7556 16.4407 24.6841C16.4538 24.6256 16.421 24.5736 16.3882 24.5216C16.3555 24.4696 16.3161 24.4176 16.2571 24.3981C16.1982 24.3851 16.1195 24.4371 16.1457 24.4956" fill="#6B00FA"/>
<path d="M20.7856 19.9522C20.6807 19.9197 20.5628 19.9652 20.4907 20.0432C20.4186 20.1277 20.3858 20.2382 20.3792 20.3422C20.3727 20.4007 20.3792 20.4592 20.412 20.5047C20.4579 20.5632 20.5431 20.5697 20.6152 20.5502C20.7594 20.5242 20.8905 20.4202 20.9298 20.2837C20.9691 20.1472 20.8774 19.9717 20.7332 19.9522C20.838 19.9392 20.7135 19.8807 20.7856 19.9522Z" fill="#6B00FA"/>
<path d="M21.2514 18.3079C21.1137 18.3339 20.9826 18.4314 20.9695 18.5679C20.9564 18.7044 21.1137 18.8343 21.2382 18.7693C21.3628 18.6524 21.3497 18.4249 21.2186 18.3144" fill="#6B00FA"/>
<path d="M16.9448 5.07418C16.8661 5.09368 16.8334 5.19768 16.8661 5.26918C16.8989 5.34068 16.9841 5.37968 17.0693 5.37968C17.1086 5.37968 17.1545 5.36668 17.1742 5.33418C17.1807 5.31468 17.1873 5.29518 17.1873 5.27568C17.1873 5.20418 17.1873 5.12618 17.1676 5.05468C17.0955 5.04818 17.0234 5.04818 16.9513 5.06118" fill="#100342"/>
<path d="M16.2244 6.22464C16.1654 6.23114 16.0999 6.23764 16.0475 6.26364C15.995 6.28964 15.9491 6.34813 15.9557 6.40663C15.9623 6.48463 16.0475 6.53663 16.1196 6.56913C16.1786 6.59513 16.2572 6.62113 16.3096 6.57563C16.3621 6.53013 16.3424 6.45213 16.3817 6.39363C16.3948 6.37413 16.4145 6.35463 16.4211 6.32864C16.4276 6.28314 16.3752 6.25064 16.3293 6.24414C16.2834 6.23764 16.231 6.23114 16.2113 6.19214" fill="#100342"/>
<path d="M15.2482 4.82068C15.1892 4.85318 15.1237 4.89868 15.0909 4.95718C15.0253 5.06767 15.0778 5.24317 15.2023 5.26917C15.3268 5.29517 15.4383 5.18467 15.5038 5.07417C15.5104 5.06117 15.5169 5.04817 15.5169 5.03517C15.5169 5.02217 15.5038 5.00917 15.4907 5.00267C15.4186 4.95068 15.3465 4.89868 15.2744 4.85318C15.2547 4.84018 15.222 4.82718 15.2089 4.85318" fill="#100342"/>
<path d="M10.1953 5.96461C10.1625 6.0426 10.1494 6.1336 10.1559 6.2246C10.2149 6.2571 10.287 6.2506 10.346 6.2246C10.405 6.1921 10.4509 6.1466 10.4902 6.0881C10.4968 6.0751 10.5099 6.0621 10.5099 6.0426C10.5099 6.0166 10.4968 5.9906 10.4771 5.97111C10.4378 5.92561 10.3853 5.89311 10.3263 5.88661C10.2674 5.88011 10.2018 5.92561 10.1953 5.97761" fill="#100342"/>
<path d="M9.89976 7.02404C9.84733 7.05004 9.84078 7.13454 9.87355 7.18004C9.91287 7.22554 9.97842 7.24504 10.0374 7.23854C10.0767 7.23204 10.1226 7.21904 10.1357 7.18654C10.1619 7.13454 10.1226 7.07604 10.0833 7.03704C10.044 6.99155 9.98497 6.93955 9.91943 6.95905" fill="#100342"/>
<path d="M12.5538 3.68312C12.5276 3.74811 12.5276 3.82611 12.5472 3.89761C12.58 3.94961 12.6586 3.96261 12.7111 3.93011C12.7635 3.89761 12.7897 3.83261 12.7832 3.76761C12.7701 3.69612 12.6914 3.62462 12.6259 3.65712" fill="#100342"/>
<path d="M18.309 10.04C18.2631 10.118 18.2828 10.235 18.3614 10.287C18.4401 10.339 18.5581 10.313 18.6039 10.235C18.6301 10.196 18.6301 10.1375 18.617 10.092C18.5908 10.027 18.5187 9.98154 18.4466 9.98154C18.3745 9.97504 18.3024 10.0075 18.25 10.053C18.2762 10.0595 18.2959 10.0725 18.3221 10.079" fill="#100342"/>
<path d="M17.8825 19.5882C17.876 19.6857 17.8301 19.7767 17.8301 19.8742C17.8301 19.9717 17.8956 20.0822 17.9939 20.0822C18.0791 20.0822 18.1381 20.0042 18.1775 19.9327C18.2102 19.8872 18.2364 19.8352 18.2627 19.7897C18.2823 19.7637 18.2954 19.7312 18.2823 19.6987C18.2758 19.6857 18.2627 19.6727 18.2496 19.6662C18.1381 19.5947 18.0005 19.5622 17.8628 19.5687" fill="#100342"/>
<path d="M17.8825 19.5882C17.876 19.6857 17.8301 19.7767 17.8301 19.8742C17.8301 19.9717 17.8956 20.0822 17.9939 20.0822C18.0791 20.0822 18.1381 20.0042 18.1775 19.9327C18.2102 19.8872 18.2364 19.8352 18.2627 19.7897C18.2823 19.7637 18.2954 19.7312 18.2823 19.6987C18.2758 19.6857 18.2627 19.6727 18.2496 19.6662C18.1381 19.5947 18.0005 19.5622 17.8628 19.5687" stroke="#362745" stroke-width="0.5" stroke-miterlimit="10"/>
<path d="M17.3066 18.4638C17.3394 18.5353 17.3918 18.6068 17.4639 18.6263C17.5885 18.6653 17.7327 18.5158 17.6802 18.3988C17.6278 18.2818 17.4181 18.2753 17.3656 18.3988" fill="#100641"/>
<path d="M14.6326 20.2057C14.5867 20.3227 14.685 20.4657 14.8095 20.4852C14.9341 20.5047 15.0586 20.4007 15.0914 20.2772C15.0979 20.2577 15.0979 20.2317 15.0848 20.2122C15.0717 20.1927 15.052 20.1862 15.0258 20.1797C14.921 20.1537 14.8095 20.1277 14.7047 20.0952C14.6916 20.1277 14.6785 20.1667 14.6719 20.1992" fill="#100641"/>
<path d="M9.73492 15.5128C9.72181 15.5713 9.70215 15.6298 9.71526 15.6883C9.72181 15.7468 9.76114 15.8053 9.82013 15.8183C9.88567 15.8378 9.95777 15.7858 9.98399 15.7208C10.0102 15.6558 10.0102 15.5843 10.0037 15.5193C9.925 15.5063 9.84635 15.4933 9.77425 15.4803" fill="#100342"/>
<path d="M9.11364 24.2681C9.08743 24.3526 9.06776 24.4631 9.13986 24.5216C9.21851 24.5866 9.32994 24.5281 9.42825 24.5476C9.44791 24.4696 9.45447 24.3851 9.43481 24.3071C9.41514 24.2291 9.35615 24.1511 9.2775 24.1381C9.19885 24.1186 9.10709 24.1836 9.11364 24.2681C9.12675 24.2681 9.15297 24.2681 9.17263 24.2681Z" fill="#100641"/>
<path d="M10.6074 24.8336C10.6074 24.9376 10.6074 25.0351 10.614 25.1391C10.6861 25.1521 10.7647 25.1586 10.8434 25.1716C10.863 25.1716 10.8893 25.1781 10.9089 25.1651C10.9286 25.1521 10.9351 25.1261 10.9417 25.1001C10.9679 24.9896 10.9679 24.8661 10.8893 24.7816C10.8106 24.7036 10.6402 24.7231 10.6271 24.8336" fill="#100641"/>
<path d="M17.3787 25.0156C17.3066 25.0741 17.2672 25.1781 17.3066 25.2626C17.3459 25.3471 17.4639 25.3926 17.5425 25.3341C17.5753 25.2626 17.6081 25.1846 17.595 25.1066C17.5819 25.0286 17.477 24.9701 17.4114 25.0221" fill="#100641"/>
<path d="M20.9698 25.0286C20.9567 25.0806 20.9501 25.1391 20.9698 25.1911C20.9895 25.2431 21.0616 25.2756 21.1074 25.2431C21.1271 25.2301 21.1336 25.2106 21.1402 25.1911C21.1664 25.1326 21.1795 25.0741 21.173 25.0156C21.1664 24.9571 21.1205 24.8986 21.0616 24.8921C21.0026 24.8856 20.937 24.9441 20.9567 24.9961" fill="#100641"/>
<path d="M20.6158 17.2093C20.6027 17.2678 20.583 17.3263 20.5961 17.3848C20.6092 17.4433 20.6551 17.5018 20.7141 17.4953C20.8059 17.4953 20.8452 17.3848 20.8583 17.2938C20.8714 17.2158 20.8714 17.1118 20.7993 17.0793C20.7207 17.0468 20.6486 17.1313 20.6027 17.1963" fill="#100641"/>
<path d="M21.2771 7.40753C21.264 7.46603 21.2574 7.53103 21.2836 7.58302C21.3099 7.63502 21.382 7.66752 21.4344 7.63502C21.4606 7.62202 21.4737 7.59602 21.4868 7.57002C21.5065 7.51803 21.5262 7.46603 21.513 7.41403C21.4999 7.36203 21.4606 7.31003 21.4082 7.30353C21.3557 7.29703 21.2968 7.34903 21.3099 7.40103" fill="#100342"/>
<path d="M20.918 8.27852C20.918 8.35002 20.918 8.41502 20.9245 8.48652C21.0228 8.49952 21.1212 8.42802 21.1343 8.33052C21.1474 8.23303 21.0687 8.13553 20.9704 8.12903C20.977 8.17453 20.9638 8.22003 20.9442 8.25902" fill="#100342"/>
<path d="M21.783 8.44103C21.7568 8.51253 21.7372 8.59052 21.7503 8.66852C21.7634 8.74652 21.842 8.81152 21.9141 8.79852C22.0124 8.77902 22.0321 8.64252 22.0255 8.53853C22.019 8.46703 22.0124 8.38253 21.9535 8.34353C21.8945 8.30453 21.783 8.35003 21.8093 8.41503" fill="#100342"/>
<path d="M11.6308 15.8379C11.7422 15.4479 11.5325 15.0969 11.231 14.7459C10.7656 14.2064 10.3396 13.641 10.2413 12.887C10.025 11.184 10.9819 9.52007 12.5615 8.91559C14.2198 8.2786 16.055 8.85059 17.0447 10.3065C17.4838 10.95 17.7066 11.6585 17.7066 12.4385C17.7066 13.1535 17.4772 13.771 16.9726 14.2844C16.7301 14.5249 16.5269 14.8044 16.2713 15.0319C16.0025 15.2659 15.9042 15.5324 15.9239 15.8704C15.937 16.1369 15.9042 16.4034 15.9108 16.6699C15.9108 16.6894 15.9108 16.7089 15.9108 16.7219C15.9108 16.7479 15.9042 16.7674 15.9042 16.7869C15.9042 16.7999 15.9042 16.9234 15.9108 16.9234C15.8649 16.9234 15.819 16.9234 15.7797 16.9299C15.7272 16.9299 15.6748 16.9364 15.6224 16.9299C15.5241 16.9169 15.4323 16.9169 15.334 16.9104C15.3143 16.9104 15.2947 16.9104 15.2684 16.9039C15.2291 16.9039 15.1963 16.8974 15.157 16.8974C15.1439 16.8974 15.1308 16.8909 15.1111 16.8909C15.0915 16.8909 15.0718 16.8909 15.0522 16.8909C14.9801 16.8909 14.9014 16.8909 14.8227 16.8909C14.8227 16.8519 14.8162 16.8129 14.8162 16.7739C14.8096 16.6959 14.8096 16.6179 14.8096 16.5399C14.8096 16.3904 14.8031 16.2409 14.8031 16.0914C14.8031 16.0849 14.8031 16.0784 14.7965 16.0719C14.79 16.0654 14.7834 16.0654 14.7769 16.0654C14.6196 16.0524 14.4623 16.0654 14.305 16.0849C14.305 16.1759 14.305 16.2669 14.2984 16.3644C14.2984 16.3904 14.2984 16.4164 14.2984 16.4424C14.2984 16.4814 14.2984 16.5139 14.2919 16.5529C14.2919 16.5659 14.2853 16.5724 14.2853 16.5789C14.2787 16.5919 14.2787 16.6114 14.2787 16.6244C14.2722 16.6959 14.2722 16.7739 14.2853 16.8454C14.2394 16.8454 14.1935 16.8454 14.1411 16.8454C14.0821 16.8454 14.0166 16.8454 13.9576 16.8324C13.8855 16.8194 13.8068 16.8259 13.7347 16.8194C13.7085 16.8194 13.6757 16.8194 13.6495 16.8129C13.5774 16.8129 13.5053 16.7999 13.4332 16.7999C13.3939 16.7999 13.3611 16.7999 13.3218 16.7999C13.3153 16.7999 13.2169 16.8064 13.2104 16.8129C13.2104 16.7479 13.2169 16.6764 13.2169 16.6114C13.2169 16.5789 13.2169 16.5464 13.2235 16.5074C13.2235 16.4749 13.2301 16.4424 13.2301 16.4099C13.2301 16.2799 13.2301 16.1499 13.2235 16.0134C13.0531 15.9809 12.8761 15.9679 12.6992 15.9679C12.6926 16.1174 12.686 16.2669 12.6729 16.4164C12.6664 16.4879 12.6664 16.5659 12.6598 16.6439C12.6598 16.6634 12.6598 16.6829 12.6598 16.7024C12.6598 16.7154 12.6598 16.7284 12.6533 16.7349C12.6467 16.7479 12.6139 16.7479 12.6008 16.7479C12.5091 16.7544 12.4108 16.7479 12.319 16.7414C12.2797 16.7414 12.2338 16.7349 12.1945 16.7349C12.0896 16.7284 11.9847 16.7284 11.8799 16.7219C11.8471 16.7219 11.8078 16.7154 11.775 16.7154C11.7553 16.7089 11.7357 16.7024 11.7095 16.7024C11.7029 16.7024 11.598 16.6959 11.598 16.6959C11.598 16.6894 11.598 16.6829 11.598 16.6764C11.598 16.6049 11.598 16.5269 11.598 16.4489C11.598 16.4164 11.5915 16.3839 11.6046 16.3514C11.6111 16.3384 11.6046 16.3254 11.6046 16.3124C11.6046 16.2799 11.6046 16.2474 11.6046 16.2149C11.6046 16.1304 11.6111 16.0524 11.6111 15.9679C11.6242 15.9679 11.6242 15.9419 11.6308 15.8379ZM13.7544 14.6419C13.8134 14.6484 13.8724 14.6484 13.9314 14.6549C14.0231 14.6614 14.1214 14.6679 14.2132 14.6809C14.1804 14.5834 14.1477 14.4859 14.1083 14.3949C14.0952 14.3559 14.0756 14.3234 14.0625 14.2909C14.0493 14.2584 14.0297 14.2324 14.0166 14.1999C14.01 14.1934 14.01 14.1804 14.01 14.1739C14.0035 14.1414 13.9904 14.1154 13.9838 14.0829C13.951 14.0049 13.9248 13.9205 13.892 13.836C13.8789 13.797 13.8658 13.7645 13.8462 13.7255C13.8462 13.732 13.833 13.7515 13.833 13.7515C13.8265 13.7645 13.8134 13.7775 13.8068 13.7905C13.7216 13.9075 13.643 14.0244 13.5709 14.1479C13.5316 14.2064 13.4988 14.2714 13.4595 14.3364C13.4398 14.3689 13.4267 14.4014 13.407 14.4274C13.4005 14.4404 13.3939 14.4534 13.3874 14.4664C13.3808 14.4924 13.3546 14.5184 13.3349 14.5444C13.3087 14.5769 13.2825 14.6094 13.2628 14.6484C13.2628 14.6484 13.2825 14.6484 13.289 14.6484C13.2956 14.6484 13.3087 14.6484 13.3153 14.6484C13.3349 14.6484 13.3546 14.6484 13.3742 14.6484C13.4136 14.6484 13.4463 14.6484 13.4857 14.6419C13.4988 14.6419 13.5184 14.6354 13.5316 14.6354C13.5512 14.6354 13.5709 14.6354 13.5905 14.6419C13.6299 14.6419 13.6626 14.6484 13.702 14.6484C13.7216 14.6354 13.7413 14.6354 13.7544 14.6419Z" fill="#362745" stroke="#362745" stroke-width="0.5" stroke-miterlimit="10"/>
<path d="M11.4804 15.6559C11.5852 15.2724 11.3821 14.9279 11.0871 14.5834C10.6283 14.0504 10.2088 13.4979 10.1171 12.7634C9.90734 11.093 10.8446 9.46804 12.3914 8.87655C14.0169 8.25257 15.8128 8.81155 16.7894 10.2415C17.2154 10.872 17.4382 11.5675 17.4448 12.328C17.4448 13.0299 17.2219 13.6344 16.7238 14.1349C16.4879 14.3754 16.2912 14.6484 16.0356 14.8629C15.7734 15.0904 15.6751 15.3504 15.6948 15.6884C15.7079 15.9484 15.6751 16.2084 15.6817 16.4683C15.6817 16.4878 15.6817 16.5008 15.6817 16.5203C15.6817 16.5398 15.6751 16.5658 15.6751 16.5853C15.6751 16.5983 15.6751 16.7153 15.6817 16.7153C15.6358 16.7153 15.5965 16.7153 15.5506 16.7153C15.4982 16.7153 15.4457 16.7218 15.3933 16.7153C15.3015 16.7023 15.2032 16.7023 15.1115 16.6958C15.0918 16.6958 15.0721 16.6958 15.0525 16.6893C15.0131 16.6893 14.9804 16.6828 14.941 16.6828C14.9279 16.6828 14.9148 16.6763 14.9017 16.6763C14.8821 16.6763 14.8624 16.6763 14.8427 16.6763C14.7706 16.6763 14.692 16.6763 14.6199 16.6763C14.6199 16.6373 14.6133 16.6048 14.6133 16.5658C14.6068 16.4878 14.6068 16.4163 14.6068 16.3384C14.6068 16.1889 14.6002 16.0459 14.6002 15.8964C14.6002 15.8899 14.6002 15.8834 14.5937 15.8769C14.5871 15.8704 14.5806 15.8704 14.574 15.8704C14.4233 15.8574 14.266 15.8704 14.1152 15.8899C14.1152 15.9809 14.1152 16.0719 14.1087 16.1629C14.1087 16.1889 14.1087 16.2149 14.1087 16.2409C14.1087 16.2734 14.1087 16.3124 14.1021 16.3514C14.1021 16.3644 14.0955 16.3708 14.0955 16.3773C14.089 16.3903 14.089 16.4098 14.089 16.4228C14.0824 16.4943 14.0824 16.5658 14.0955 16.6373C14.0497 16.6373 14.0038 16.6373 13.9579 16.6373C13.8989 16.6373 13.8399 16.6373 13.7809 16.6243C13.7088 16.6113 13.6367 16.6178 13.5581 16.6113C13.5319 16.6113 13.4991 16.6113 13.4729 16.6048C13.4008 16.6048 13.3352 16.5918 13.2631 16.5918C13.2238 16.5918 13.191 16.5918 13.1517 16.5918C13.1452 16.5918 13.0469 16.5983 13.0469 16.6048C13.0469 16.5398 13.0534 16.4748 13.0534 16.4033C13.0534 16.3709 13.0534 16.3384 13.06 16.3059C13.06 16.2734 13.0665 16.2409 13.0665 16.2084C13.0665 16.0784 13.0665 15.9484 13.06 15.8184C12.8895 15.7924 12.7191 15.7729 12.5487 15.7729C12.5422 15.9224 12.5356 16.0654 12.5291 16.2149C12.5225 16.2864 12.5225 16.3644 12.516 16.4358C12.516 16.4553 12.516 16.4748 12.516 16.4943C12.516 16.5073 12.516 16.5203 12.5094 16.5268C12.5028 16.5398 12.4701 16.5398 12.457 16.5398C12.3652 16.5463 12.2734 16.5398 12.1817 16.5333C12.1424 16.5333 12.0965 16.5268 12.0572 16.5268C11.9523 16.5203 11.8474 16.5203 11.7491 16.5138C11.7163 16.5138 11.6836 16.5073 11.6442 16.5073C11.6246 16.5073 11.6049 16.4943 11.5787 16.4943C11.5721 16.4943 11.4738 16.4878 11.4738 16.4878C11.4738 16.4813 11.4738 16.4748 11.4738 16.4683C11.4738 16.3968 11.4738 16.3189 11.4738 16.2474C11.4738 16.2149 11.4673 16.1824 11.4804 16.1564C11.4869 16.1434 11.4804 16.1304 11.4804 16.1174C11.4804 16.0849 11.4804 16.0524 11.4804 16.0199C11.4804 15.9419 11.4869 15.8574 11.4869 15.7794C11.4738 15.7794 11.4738 15.7599 11.4804 15.6559ZM13.5646 14.4794C13.6236 14.4859 13.6826 14.4859 13.7351 14.4924C13.8268 14.4989 13.9186 14.5054 14.0103 14.5184C13.9776 14.4274 13.9513 14.3299 13.912 14.2324C13.8989 14.1934 13.8792 14.1609 13.8661 14.1284C13.853 14.0959 13.8334 14.0699 13.8203 14.0374C13.8137 14.0309 13.8137 14.0179 13.8137 14.0114C13.8072 13.9789 13.794 13.9529 13.7875 13.9204C13.7547 13.8424 13.7285 13.7579 13.6957 13.6799C13.6826 13.6409 13.6695 13.6084 13.6498 13.5694C13.6498 13.5759 13.6367 13.5889 13.6367 13.5954C13.6302 13.6084 13.6171 13.6214 13.6105 13.6344C13.5319 13.7514 13.4532 13.8684 13.3811 13.9854C13.3418 14.0439 13.309 14.1089 13.2763 14.1674C13.2566 14.1999 13.2435 14.2259 13.2238 14.2584C13.2173 14.2714 13.2107 14.2844 13.2042 14.2974C13.1976 14.3234 13.1714 14.3494 13.1517 14.3689C13.1255 14.4014 13.1058 14.4339 13.0796 14.4664C13.0796 14.4664 13.0993 14.4664 13.1058 14.4664C13.1124 14.4664 13.1255 14.4664 13.1321 14.4664C13.1517 14.4664 13.1714 14.4664 13.191 14.4664C13.2304 14.4664 13.2631 14.4664 13.3025 14.4599C13.3156 14.4599 13.3352 14.4534 13.3484 14.4534C13.368 14.4534 13.3877 14.4534 13.4073 14.4599C13.4467 14.4599 13.4794 14.4664 13.5188 14.4664C13.5319 14.4794 13.5515 14.4794 13.5646 14.4794Z" fill="#E0E3BD" stroke="#362745" stroke-width="0.5" stroke-miterlimit="10"/>
<path d="M16.1008 9.2536C14.9013 8.30462 13.5446 8.14863 12.142 8.77261C9.89383 9.77358 9.29083 12.7375 10.641 14.213C10.8311 14.421 10.9753 14.6615 11.1719 14.8694C11.3489 15.0579 11.4079 15.2594 11.3948 15.5129C11.3751 15.8639 11.3423 16.2214 11.3948 16.6049L12.5483 16.6569L12.568 15.8444L13.0137 15.8574V15.8639C13.0137 15.8704 13.0137 15.8769 13.0137 15.8834C13.0137 15.8899 13.0137 15.9029 13.0137 15.9094C13.0137 15.9224 13.0137 15.9354 13.0137 15.9419C13.0137 15.9549 13.0137 15.9679 13.0137 15.9809C13.0137 15.9939 13.0137 16.0134 13.0137 16.0264C13.0137 16.0459 13.0137 16.0589 13.0137 16.0784C13.0137 16.0979 13.0137 16.1174 13.0137 16.1369C13.0137 16.1564 13.0137 16.1759 13.0137 16.1954C13.0137 16.2149 13.0137 16.2344 13.0137 16.2539C13.0137 16.2734 13.0137 16.2929 13.0137 16.3124C13.0137 16.3319 13.0137 16.3514 13.0137 16.3709C13.0137 16.3904 13.0137 16.4034 13.0137 16.4229C13.0137 16.4359 13.0137 16.4554 13.0137 16.4749C13.0137 16.4879 13.0137 16.5074 13.0137 16.5204C13.0137 16.5334 13.0137 16.5464 13.0137 16.5594C13.0137 16.5659 13.0137 16.5789 13.0137 16.5919C13.0137 16.5984 13.0137 16.6049 13.0137 16.6114C13.0137 16.6309 13.0071 16.6504 13.0071 16.6764C13.0137 16.6764 13.0137 16.6764 13.0202 16.6764H13.0268H13.0333C13.0399 16.6764 13.053 16.6764 13.0596 16.6764C13.0792 16.6764 13.0989 16.6764 13.1185 16.6764C13.1972 16.6764 13.2693 16.6829 13.3479 16.6829C13.4397 16.6894 13.538 16.6894 13.6363 16.6959C13.7215 16.7024 13.8133 16.7024 13.8985 16.7089C13.9509 16.7089 14.0034 16.7154 14.0624 16.7154C14.0689 16.7154 14.0755 16.7154 14.082 16.7154C14.0951 16.7154 14.1017 16.7154 14.1148 16.7089C14.1148 16.6894 14.1214 16.6634 14.1214 16.6439V16.6374C14.1214 16.6309 14.1214 16.6179 14.1279 16.6114C14.1279 16.5919 14.1345 16.5724 14.1345 16.5594C14.1345 16.5464 14.1345 16.5334 14.1345 16.5204C14.1345 16.5074 14.1345 16.4944 14.1345 16.4879C14.1345 16.4749 14.1345 16.4684 14.1345 16.4554C14.1345 16.4424 14.1345 16.4294 14.1345 16.4164C14.1345 16.4034 14.1345 16.3839 14.1345 16.3644C14.1345 16.3449 14.1345 16.3254 14.1345 16.3124C14.1345 16.2929 14.1345 16.2734 14.1345 16.2539C14.1345 16.2344 14.1345 16.2149 14.1345 16.1954C14.1345 16.1759 14.1345 16.1564 14.1345 16.1369C14.1345 16.1174 14.1345 16.0979 14.1345 16.0784C14.1345 16.0654 14.1345 16.0459 14.1345 16.0264C14.1345 16.0134 14.1345 16.0004 14.1345 15.9874C14.1345 15.9744 14.1345 15.9679 14.1345 15.9549C14.1345 15.9484 14.1345 15.9419 14.1345 15.9354V15.9289L14.5802 15.9419L14.5605 16.7479C14.6326 16.7479 15.773 16.7999 15.773 16.7999C15.773 16.5659 15.773 16.3319 15.773 16.0914C15.773 15.9809 15.773 15.8704 15.773 15.7599C15.773 15.7274 15.773 15.6949 15.7665 15.6689C15.7665 15.5909 15.7665 15.5129 15.7796 15.4414C15.7927 15.3634 15.8189 15.2789 15.8714 15.2139C15.8845 15.2009 15.8976 15.1814 15.9107 15.1684C15.9303 15.1489 15.9434 15.1359 15.9631 15.1164C15.9959 15.0839 16.0287 15.0449 16.0614 15.0124C16.127 14.9409 16.1925 14.8759 16.2581 14.8044C16.3236 14.7329 16.3826 14.668 16.4481 14.5965C16.5137 14.525 16.5727 14.46 16.6317 14.3885C16.6906 14.317 16.7562 14.252 16.8152 14.1805C16.8742 14.109 16.9331 14.044 16.9921 13.9725C17.0249 13.94 17.0511 13.901 17.0839 13.8685C17.3067 13.5955 17.464 13.29 17.5165 12.939C17.7524 11.4375 17.2871 10.1896 16.1008 9.2536ZM12.3845 15.6299C12.3714 15.6299 12.3582 15.6299 12.3386 15.6299C12.332 15.6299 12.3255 15.6299 12.3189 15.6299C12.3189 15.6624 12.3189 15.6949 12.3189 15.7274C12.3189 15.7924 12.3124 15.8639 12.3124 15.9289C12.3058 16.0654 12.2993 16.2084 12.2993 16.3449L11.7159 16.3189C11.7159 16.2604 11.7225 16.2019 11.7225 16.1434C11.729 16.0134 11.7356 15.8834 11.7356 15.7469C11.7421 15.6104 11.7487 15.4674 11.7487 15.3309C11.7487 15.2789 11.7552 15.2269 11.7552 15.1749C11.7552 15.1489 11.7487 15.1229 11.7487 15.1034C11.7487 15.0774 11.7421 15.0514 11.7421 15.0254C11.7421 15.0124 11.7356 15.0059 11.7356 14.9929C11.729 14.9864 11.729 14.9734 11.7225 14.9669C11.7159 14.9474 11.7094 14.9279 11.6963 14.9084C11.6766 14.8694 11.6569 14.8304 11.6373 14.7914C11.6176 14.7524 11.5914 14.7199 11.5652 14.681C11.5521 14.6615 11.5324 14.6355 11.5127 14.616C11.2375 14.2845 10.9753 13.94 10.7131 13.5955C10.3395 13.0885 10.274 12.497 10.3461 11.899C10.5099 10.5536 11.2178 9.57859 12.4828 9.0781C13.7346 8.58412 14.921 8.79211 15.9172 9.68259C16.9332 10.5861 17.3067 11.7365 16.979 13.082C16.9004 13.4265 16.6775 13.6735 16.4547 13.9205C16.1794 14.226 15.8976 14.525 15.6157 14.8239C15.6026 14.8369 15.5895 14.8434 15.583 14.8564C15.583 14.8629 15.583 14.8629 15.5764 14.8694C15.5699 14.8759 15.5699 14.8824 15.5633 14.8889C15.5567 14.9019 15.5436 14.9149 15.5371 14.9279C15.5305 14.9344 15.5305 14.9409 15.524 14.9474C15.5174 14.9539 15.5174 14.9539 15.5174 14.9604C15.5043 14.9864 15.4912 15.0124 15.4781 15.0384C15.4519 15.0969 15.4388 15.1619 15.4257 15.2269C15.4191 15.2594 15.4191 15.2919 15.4191 15.3244C15.4191 15.3374 15.4191 15.3569 15.4191 15.3699C15.4191 15.3764 15.4191 15.3829 15.4191 15.3959C15.4191 15.4089 15.4191 15.4219 15.4191 15.4349C15.4191 15.4544 15.4191 15.4804 15.4191 15.4999C15.4191 15.5389 15.4191 15.5714 15.4191 15.6104C15.4191 15.6819 15.4191 15.7599 15.4191 15.8314C15.4191 15.9029 15.4191 15.9809 15.4191 16.0524C15.4191 16.1239 15.4191 16.2019 15.4191 16.2734C15.4191 16.3124 15.4191 16.3449 15.4191 16.3839C15.4191 16.4034 15.4191 16.4229 15.4191 16.4424C15.4191 16.4489 15.4191 16.4554 15.4191 16.4619V16.4684C15.4126 16.4749 15.406 16.4684 15.406 16.4684C15.3994 16.4684 15.3863 16.4684 15.3798 16.4684C15.347 16.4684 15.3077 16.4684 15.2749 16.4619C15.1307 16.4554 14.9865 16.4489 14.8423 16.4424C14.8489 16.3189 14.8489 16.1954 14.8554 16.0784C14.8554 16.0394 14.862 15.9939 14.862 15.9549C14.862 15.9029 14.862 15.8574 14.862 15.8054C14.862 15.7859 14.862 15.7729 14.862 15.7534L14.7768 15.7404C14.744 15.7339 14.7112 15.7274 14.6785 15.7274C14.6064 15.7209 14.5408 15.7144 14.4687 15.7079C14.3966 15.7014 14.3245 15.7014 14.2524 15.7014C14.1803 15.7014 14.1082 15.7014 14.0361 15.7014C13.9772 15.7014 13.9116 15.7014 13.8526 15.7014L13.8264 16.4489L13.2431 16.4229L13.2693 15.6884C13.2365 15.6819 13.1972 15.6754 13.1644 15.6689C13.0923 15.6559 13.0268 15.6494 12.9547 15.6429C12.8826 15.6364 12.8105 15.6364 12.7384 15.6299C12.6663 15.6299 12.5942 15.6299 12.5221 15.6234C12.4893 15.6234 12.45 15.6234 12.4172 15.6234" fill="#362745"/>
<path d="M13.8401 13.459C13.8335 13.4525 13.8335 13.4395 13.827 13.433C13.8139 13.4135 13.8073 13.3875 13.7942 13.368C13.7877 13.355 13.7811 13.342 13.7746 13.329C13.768 13.316 13.7614 13.3095 13.7549 13.2965C13.7287 13.2575 13.709 13.212 13.6828 13.173C13.6697 13.1535 13.6631 13.134 13.65 13.108C13.65 13.1015 13.6435 13.095 13.6435 13.095C13.6435 13.0885 13.6369 13.082 13.6369 13.082C13.6304 13.082 13.6304 13.082 13.6304 13.0885C13.6304 13.095 13.6238 13.095 13.6238 13.1015C13.6238 13.108 13.6173 13.1145 13.6173 13.121C13.6107 13.134 13.6041 13.147 13.5976 13.1535C13.5714 13.1925 13.5452 13.238 13.5255 13.277C13.4993 13.316 13.4731 13.3615 13.4534 13.4005C13.4206 13.4525 13.3944 13.5045 13.3616 13.563C13.3485 13.5825 13.342 13.602 13.3289 13.615C13.3158 13.6345 13.3026 13.654 13.2961 13.6735C13.283 13.693 13.2699 13.7125 13.2568 13.7385C13.2437 13.758 13.2305 13.784 13.2174 13.8035C13.2043 13.8295 13.1912 13.849 13.1781 13.875C13.165 13.901 13.1519 13.9205 13.1388 13.9465C13.1257 13.9725 13.1126 13.9985 13.0995 14.018C13.0864 14.044 13.0732 14.07 13.0601 14.0895C13.047 14.1155 13.0339 14.135 13.0208 14.161C13.0077 14.187 12.9946 14.2065 12.9815 14.2325C12.9684 14.2585 12.9553 14.278 12.9422 14.304C12.9291 14.3235 12.9159 14.3495 12.9028 14.369C12.8897 14.3885 12.8766 14.408 12.8701 14.4275C12.857 14.447 12.8504 14.4665 12.8373 14.486C12.8307 14.5055 12.8176 14.5185 12.8111 14.538C12.8045 14.551 12.7914 14.564 12.7849 14.5835C12.7783 14.5965 12.7717 14.6095 12.7652 14.6225C12.7586 14.629 12.7521 14.642 12.7521 14.6485C12.7455 14.655 12.7455 14.6615 12.739 14.668L12.7324 14.6745H12.739C12.7783 14.6745 12.8111 14.6745 12.8504 14.681C12.857 14.681 12.8635 14.681 12.8766 14.681C12.8832 14.681 12.8963 14.681 12.9028 14.681C12.9094 14.681 12.9094 14.681 12.9159 14.681C12.9225 14.681 12.9291 14.681 12.9356 14.681C12.9422 14.681 12.9487 14.681 12.9618 14.681C12.9684 14.681 12.9815 14.681 12.988 14.681C13.0011 14.681 13.0143 14.681 13.0208 14.681C13.0339 14.681 13.047 14.681 13.0601 14.681C13.0732 14.681 13.0864 14.681 13.0995 14.681C13.1126 14.681 13.1322 14.681 13.1453 14.681C13.1585 14.681 13.1781 14.681 13.1912 14.681C13.2109 14.681 13.224 14.681 13.2437 14.681C13.2633 14.681 13.2764 14.681 13.2961 14.681C13.3158 14.681 13.3354 14.681 13.3485 14.681C13.3682 14.681 13.3879 14.681 13.4075 14.681C13.4272 14.681 13.4468 14.681 13.4665 14.681C13.4862 14.681 13.5058 14.681 13.5255 14.681C13.5452 14.681 13.5648 14.681 13.5845 14.681C13.6041 14.681 13.6238 14.681 13.6435 14.681C13.6631 14.681 13.6828 14.681 13.7025 14.681C13.7221 14.681 13.7418 14.681 13.7614 14.681C13.7811 14.681 13.8008 14.681 13.8204 14.681C13.8401 14.681 13.8598 14.681 13.8729 14.681C13.8925 14.681 13.9056 14.681 13.9253 14.681C13.945 14.681 13.9581 14.681 13.9777 14.681C13.9908 14.681 14.0105 14.681 14.0236 14.681C14.0367 14.681 14.0564 14.681 14.0695 14.681C14.0826 14.681 14.0957 14.681 14.1088 14.681C14.1219 14.681 14.135 14.681 14.1482 14.681C14.1613 14.681 14.1678 14.681 14.1809 14.681L14.4169 14.6875C14.4234 14.6875 14.4234 14.6875 14.4234 14.6875C14.4103 14.6485 14.3907 14.616 14.3776 14.577C14.3382 14.486 13.8467 13.472 13.8401 13.459C13.8401 13.4655 13.8401 13.4655 13.8401 13.459ZM13.165 14.4405C13.3223 14.174 13.4665 13.9335 13.6304 13.654C13.7418 13.953 13.8335 14.187 13.945 14.473C13.6762 14.46 13.4534 14.447 13.165 14.4405Z" fill="#362745"/>
<path d="M9.44727 9.42908C9.44727 9.46158 9.45382 9.48757 9.45382 9.51357L9.44727 9.42908ZM9.44727 9.42908C9.44727 9.46158 9.45382 9.48757 9.45382 9.51357Z" fill="#E0E3BD"/>
<path d="M9.44727 9.42908C9.44727 9.46158 9.45382 9.48757 9.45382 9.51357M9.44727 9.42908C9.44727 9.46158 9.45382 9.48757 9.45382 9.51357L9.44727 9.42908Z" stroke="#362745" stroke-width="2" stroke-miterlimit="10"/>
<path d="M23.323 21.8437C22.9888 21.5772 22.7397 21.2327 22.4251 20.9337C22.4448 20.6022 22.4841 20.3032 22.4841 20.0042C22.4775 19.1853 22.53 18.3663 22.4644 17.5473C22.4251 17.0468 22.5627 16.5658 22.7004 16.0849C22.9691 15.1684 22.8183 14.2259 22.6807 13.3224C22.5824 12.6789 22.5693 12.055 22.6152 11.418C22.661 10.859 22.6676 10.3 22.7135 9.74102C22.7725 8.94804 22.8446 8.16806 22.6414 7.36858C22.4644 6.6926 22.4251 5.98412 22.1498 5.33414C21.9335 4.82715 21.9335 4.82715 21.265 3.94968C20.6685 3.32569 20.5768 3.31919 20.0655 3.0137C19.6723 2.77971 19.2856 2.55871 18.8071 2.51322C18.1976 2.45472 17.6339 2.18822 17.0309 2.09073C15.9822 1.92173 14.9466 2.01273 13.911 2.16872C12.5215 2.38322 11.1517 2.64971 10.0833 3.70268C9.57865 4.20317 9.06086 4.67766 8.84457 5.37314C8.78558 5.56813 8.65449 5.73713 8.55618 5.91262C8.10393 6.6731 8.2088 7.01759 8.14326 8.00557C8.18258 8.07707 8.0515 8.50605 8.00562 8.62305C7.94663 9.28603 7.94007 8.86354 7.94663 9.14954C7.96629 10.014 7.97285 10.8785 7.9794 11.7365C7.98595 12.5164 8.01873 13.2964 7.87453 14.0634C7.71723 14.8759 7.73034 15.6949 7.72378 16.5138C7.72378 16.6958 7.73034 16.8843 7.68446 17.0598C7.54682 17.6708 7.57959 18.2818 7.61236 18.8928C7.65824 19.7248 7.61891 20.5502 7.71723 21.4017C7.23221 21.7787 6.75375 22.1557 6.26873 22.5197C6.09831 22.6432 6 22.7797 6 23.0007C6.01311 23.9171 6.01311 24.8336 6.01966 25.7501C6.01966 25.9971 6.13764 26.1336 6.39326 26.1531C7.57959 26.2246 8.75936 26.2961 9.93914 26.3741C11.4728 26.4716 13 26.5626 14.5337 26.6601C16.2706 26.7706 18.0075 26.8876 19.7444 26.9981C19.9803 27.0111 20.1966 26.9591 20.3998 26.8356C21.3109 26.2896 22.2285 25.7436 23.1461 25.2106C23.3689 25.0806 23.4541 24.9116 23.4541 24.6581C23.4607 23.8586 23.4803 23.0592 23.5 22.2662C23.5 22.1037 23.4672 21.9542 23.323 21.8437ZM8.24157 17.7358C8.32022 17.1898 8.39232 16.6503 8.37921 16.0979C8.35955 15.3829 8.44476 14.6809 8.54962 13.9789C8.69382 13.0039 8.64139 12.0225 8.62172 11.041C8.61517 10.6835 8.60861 10.326 8.61517 9.97501C8.61517 9.88402 8.62172 9.79302 8.62828 9.70202C8.63483 9.65002 8.64139 9.59802 8.64139 9.53953C8.64139 9.51353 8.66105 9.49403 8.68071 9.47453C8.70693 9.44203 8.7397 9.40953 8.76592 9.37703C8.77247 9.37053 8.77903 9.36403 8.79213 9.35753C8.79869 9.35753 8.8118 9.35753 8.81835 9.36403C8.93633 9.41603 9.13951 9.60452 9.14607 9.61752C9.14607 9.62402 9.38202 9.79952 9.38202 9.80602C9.38858 9.81252 9.23783 10.1375 9.23783 10.1505C9.51966 10.1505 9.44756 10.0595 9.67697 9.65002C9.69007 9.62402 9.44756 9.46153 9.44756 9.42903C9.40824 9.39003 9.39513 9.33803 9.37547 9.29253C9.3558 9.23403 9.32303 9.18204 9.29026 9.13654C9.2706 9.11054 9.25094 9.09104 9.23127 9.06504C9.21161 9.04554 9.19195 9.02604 9.17228 9.00654C9.15918 8.99354 9.15262 8.98054 9.15262 8.96104C9.14607 8.93504 9.13296 8.91554 9.1264 8.88954C9.10019 8.83105 9.07397 8.76605 9.05431 8.70105C9.00843 8.57755 8.9691 8.44756 8.92977 8.31756C8.89045 8.18756 8.85112 8.05757 8.80524 7.92757C8.77903 7.85607 8.75281 7.79107 8.72659 7.71958C8.77247 7.10859 8.89045 6.52361 9.29682 6.02962C9.38858 5.91262 9.44756 5.76313 9.49344 5.62663C9.67697 5.02865 10.0833 4.59966 10.5487 4.21617C10.8371 3.97568 11.0992 3.68968 11.4335 3.52719C11.4401 3.52069 11.4663 3.54019 11.4728 3.54019C11.486 3.54669 11.4991 3.55319 11.5122 3.55969C11.5384 3.57919 11.5581 3.59869 11.5712 3.62469C11.5974 3.65718 11.6039 3.70268 11.6236 3.73518C11.6367 3.76768 11.6498 3.80668 11.6629 3.83918C11.6891 3.91068 11.7154 3.97568 11.735 4.04717C11.7416 4.06017 11.7416 4.06667 11.7481 4.07317C11.7481 4.07967 11.7547 4.08617 11.7547 4.08617C11.7547 4.08617 11.7678 4.09267 11.7743 4.09267C11.8006 4.09917 11.8268 4.11217 11.853 4.11867C11.8595 4.11867 11.8268 4.29417 11.8268 4.30717V4.33967C11.8268 4.36567 11.8202 4.39816 11.8202 4.42416C11.8137 4.48266 11.8137 4.54116 11.8071 4.59966C11.8071 4.61916 11.8006 4.64516 11.8071 4.66466C11.8137 4.68416 11.8202 4.69716 11.8268 4.71666C11.8792 4.82065 11.9054 5.21064 11.9054 5.21064C11.9054 5.21064 11.9906 4.98965 11.9841 4.97665C11.9775 4.95715 11.9775 4.94415 11.971 4.92465C11.9644 4.89215 11.9579 4.85315 11.9513 4.82065C11.9448 4.77515 11.9382 4.72966 11.9316 4.67766C11.9316 4.65816 11.9251 4.64516 11.9251 4.62566C11.9251 4.61266 11.9185 4.60616 11.9251 4.59316C11.9316 4.57366 11.9382 4.55416 11.9513 4.54116C11.9579 4.52166 11.971 4.50216 11.9775 4.48266C11.9775 4.48266 12.0169 4.48916 12.0234 4.49566C12.0365 4.50216 12.0496 4.50866 12.0627 4.50866C12.1021 4.51516 12.1348 4.52816 12.1676 4.54766C12.1807 4.55416 12.1938 4.56066 12.2069 4.57366C12.2135 4.58666 12.22 4.59966 12.2266 4.61266C12.2594 4.69716 12.2921 4.78815 12.3315 4.87265C12.338 4.88565 12.3446 4.90515 12.3577 4.91815C12.3708 4.93115 12.3839 4.93765 12.397 4.94415C12.4822 4.99615 12.574 5.04815 12.6592 5.10015C12.6198 5.03515 12.5609 4.98315 12.5084 4.91815C12.4298 4.82065 12.3773 4.70366 12.3577 4.58016C12.3511 4.55416 12.3511 4.52816 12.3511 4.50216C12.2856 4.45666 12.22 4.41766 12.1545 4.37217C12.1283 4.35267 12.0955 4.33967 12.0758 4.32017C12.0693 4.31367 12.0627 4.30067 12.0627 4.28767C12.0562 4.26817 12.0496 4.25517 12.0431 4.23567C12.0169 4.16417 11.9972 4.09267 11.971 4.02767C11.9644 4.00817 11.9579 3.98218 11.9382 3.97568C11.9316 3.96918 11.9185 3.96918 11.9054 3.96268C11.8858 3.94968 11.8792 3.92368 11.8727 3.90418C11.8661 3.87818 11.8595 3.84568 11.853 3.81968C11.8464 3.80018 11.8399 3.77418 11.8399 3.74818V3.72218C11.8333 3.67668 11.8202 3.63119 11.8202 3.58569C11.8137 3.46869 11.8399 3.35169 11.9054 3.2477C13.9045 2.9552 15.9232 2.71471 17.6798 4.24217V5.15214C17.6798 5.17814 17.6798 5.21064 17.6667 5.23664C17.6601 5.24314 17.6601 5.24964 17.6536 5.26264C17.647 5.28214 17.6404 5.30164 17.6273 5.31464C17.6077 5.34714 17.588 5.37964 17.5618 5.41864C17.5356 5.45764 17.5094 5.49663 17.4963 5.54213C17.5028 5.53563 17.5094 5.53563 17.5159 5.52913L17.5356 5.50963C17.5487 5.49663 17.5683 5.48364 17.5815 5.47714C17.6142 5.45764 17.6404 5.43164 17.6667 5.40564C17.6798 5.39264 17.6863 5.37964 17.6994 5.36014C17.7125 5.34064 17.7257 5.30814 17.7388 5.28864C17.7584 5.26914 17.7715 5.23664 17.7781 5.20414C17.7846 5.19114 17.7912 5.18464 17.7912 5.17164C17.7977 5.15864 17.7978 5.14564 17.8043 5.12614C17.8109 5.09365 17.8174 5.06765 17.824 5.03515C17.8502 4.90515 17.8567 4.77515 17.8764 4.64516C17.883 4.59316 17.8961 4.54766 17.9092 4.49566C18.4532 4.91815 19.0169 5.28864 19.0955 6.02962C19.161 6.6536 19.2725 7.26459 19.4494 7.86907C19.5019 8.04457 19.5477 8.22656 19.5477 8.40856C19.5477 9.62402 19.6067 10.833 19.4101 12.042C19.3052 12.6854 19.3118 13.3549 19.3052 14.0114C19.3052 14.7134 19.2659 15.4154 19.2004 16.1109C19.1348 16.7933 19.1348 17.4693 19.3052 18.1323C19.397 18.4833 19.338 18.8343 19.2987 19.1918C19.22 19.8872 19.1873 20.5892 19.1414 21.2912C19.1283 21.4602 19.1348 21.6357 19.0627 21.8177C15.4972 21.6227 11.9382 21.4277 8.35955 21.2262C8.35955 21.2262 8.34644 21.1157 8.34644 21.1092C8.33989 21.0637 8.33333 21.0182 8.32678 20.9727C8.31367 20.8817 8.30712 20.7972 8.30056 20.7062C8.29401 20.6152 8.30056 20.5307 8.30712 20.4462V20.4137C8.30712 20.3812 8.31367 20.3422 8.32022 20.3162C8.32678 20.2837 8.33333 20.2447 8.33989 20.2122C8.35955 20.1342 8.37921 20.0562 8.41198 19.9782C8.41854 19.9652 8.41854 19.9587 8.42509 19.9457C8.43165 19.9392 8.44476 19.9327 8.45786 19.9262C8.62828 19.8612 8.79213 19.7962 8.96255 19.7313C8.98221 19.7248 8.98876 19.6988 9.00187 19.6793C9.01498 19.6598 9.02809 19.6403 9.04775 19.6208C9.06086 19.6078 9.08052 19.5948 9.09363 19.5818C9.11985 19.5558 9.13296 19.5233 9.14607 19.4908C9.17228 19.4388 9.1985 19.3803 9.21816 19.3283C9.23127 19.3023 9.24438 19.2763 9.25094 19.2568C9.25094 19.2503 9.25094 19.2438 9.25749 19.2373C9.27715 19.2048 9.32303 19.1788 9.34925 19.1593C9.40824 19.1138 9.46067 19.0618 9.5 19.0033C9.44756 19.0293 9.40824 19.0618 9.3558 19.0943C9.33614 19.1073 9.30992 19.1203 9.28371 19.1268C9.27715 19.1268 9.2706 19.1268 9.25749 19.1333C9.25094 19.1333 9.25094 19.1398 9.25094 19.1398C9.23783 19.1528 9.22472 19.1723 9.21161 19.1918C9.18539 19.2308 9.15918 19.2698 9.13296 19.3088C9.10019 19.3543 9.06741 19.3998 9.03464 19.4518C9.00187 19.5038 8.98221 19.5558 8.92977 19.5818C8.91667 19.5883 8.897 19.5948 8.87734 19.6013C8.71348 19.6533 8.54307 19.7118 8.37921 19.7638C8.34644 19.7767 8.31367 19.7833 8.2809 19.8092V19.7443C8.28745 19.7118 8.2809 19.6793 8.28745 19.6533V19.5233C8.28745 19.4323 8.2809 19.3478 8.2809 19.2568C8.27434 19.0813 8.26124 18.9058 8.25468 18.7368C8.20225 18.4118 8.19569 18.0738 8.24157 17.7358ZM8.09738 21.9542C8.18914 21.8827 8.30712 21.9022 8.41198 21.9087C10.5159 22.0257 12.6198 22.1362 14.7238 22.2532C16.1002 22.3312 17.4766 22.4092 18.8595 22.4807C18.9251 22.4872 18.9906 22.5002 19.0627 22.5067C19.1938 22.7667 19.2987 23.0332 19.3773 23.3582C15.3595 23.0982 11.3745 22.8447 7.31742 22.5847C7.5927 22.3117 7.85487 22.1427 8.09738 21.9542ZM19.5871 26.3026C19.2921 26.3481 19.0037 26.3091 18.735 26.2766C18.7219 26.2766 18.7088 26.2636 18.7022 26.2571C18.6891 26.2506 18.6826 26.2441 18.6695 26.2311C18.6498 26.2181 18.6301 26.1986 18.6105 26.1791C18.5712 26.1401 18.5449 26.0881 18.5056 26.0491C18.4925 26.0361 18.4728 26.0231 18.4663 26.0101C18.4532 25.9841 18.4466 25.9581 18.4401 25.9321C18.4401 25.9256 18.4401 25.9191 18.4335 25.9061C18.427 25.8996 18.4204 25.8931 18.4204 25.8801C18.3876 25.8411 18.3614 25.8021 18.3418 25.7566C18.3352 25.7436 18.3352 25.7241 18.3352 25.7111C18.3418 25.6721 18.3221 25.6331 18.309 25.6006C18.3024 25.5681 18.2959 25.5421 18.2893 25.5096C18.2893 25.5031 18.2828 25.4901 18.2762 25.4836C18.2631 25.4641 18.2434 25.4511 18.2238 25.4381C18.1779 25.3861 18.132 25.3406 18.0861 25.2951C18.0665 25.2756 18.0468 25.2626 18.0272 25.2496C18.0403 25.2561 18.0468 25.2756 18.0599 25.2886C18.0665 25.3016 18.0796 25.3146 18.0927 25.3276C18.1124 25.3536 18.132 25.3796 18.1451 25.4186C18.1451 25.4316 18.1582 25.4511 18.1648 25.4641C18.1845 25.5031 18.1976 25.5356 18.2041 25.5746C18.2172 25.6266 18.2238 25.6786 18.2238 25.7306C18.2303 25.7761 18.2303 25.8281 18.2369 25.8736C18.2369 25.8736 18.2697 25.8866 18.2762 25.8866C18.2828 25.8931 18.2828 25.9061 18.2828 25.9191C18.2959 25.9516 18.3155 25.9841 18.3352 26.0166C18.3418 26.0296 18.3483 26.0426 18.3549 26.0556V26.1661C18.3549 26.1791 18.3549 26.1986 18.3483 26.2116C18.3352 26.2311 18.309 26.2441 18.3155 26.2701C18.2893 26.2701 18.25 26.2766 18.2238 26.2701C18.2172 26.2701 18.2107 26.2701 18.2041 26.2636C18.1582 26.2571 18.1189 26.2571 18.073 26.2571C17.9878 26.2506 17.9026 26.2441 17.8174 26.2441C17.0768 26.1986 16.3361 26.1466 15.5955 26.1011C14.8549 26.0556 14.1142 26.0036 13.3736 25.9581C12.633 25.9126 11.8923 25.8606 11.1517 25.8151C10.411 25.7696 9.67041 25.7176 8.92977 25.6721C8.55618 25.6461 8.18914 25.6266 7.81554 25.6006C7.63202 25.5876 7.44195 25.5746 7.25843 25.5681C7.16667 25.5616 7.07491 25.5551 6.98315 25.5486C6.96348 25.5486 6.71442 25.5356 6.71442 25.5291V24.9051L6.72097 24.8986C6.72753 24.8921 6.72753 24.8921 6.73408 24.8856C6.74064 24.8726 6.74719 24.8661 6.75375 24.8531C6.77341 24.8271 6.78652 24.8076 6.80618 24.7816C6.82584 24.7556 6.85206 24.7296 6.87172 24.7036C6.87828 24.6906 6.88483 24.6841 6.89139 24.6711C6.90449 24.6581 6.92416 24.6451 6.93727 24.6386C6.95693 24.6256 6.97659 24.6191 6.99625 24.6061C7.03558 24.5866 7.07491 24.5671 7.12079 24.5541C7.15356 24.5411 7.18633 24.5346 7.2191 24.5411C7.24532 24.5476 7.27154 24.5606 7.2912 24.5801C7.3633 24.6321 7.44195 24.6841 7.52715 24.7036C7.54682 24.7101 7.55337 24.6906 7.56648 24.6841C7.59925 24.6516 7.63858 24.6256 7.67135 24.6061C7.6779 24.5996 7.69101 24.5931 7.69757 24.5931C7.71723 24.5801 7.73689 24.5736 7.75655 24.5606C7.83521 24.5281 7.92041 24.5216 8.00562 24.5151C7.94663 24.4956 7.88109 24.4826 7.80899 24.4761C7.76966 24.4761 7.73034 24.4761 7.69757 24.4956C7.69101 24.5021 7.68446 24.5086 7.68446 24.5086C7.6779 24.5151 7.66479 24.5216 7.65824 24.5281L7.59925 24.5671C7.5927 24.5671 7.5927 24.5736 7.58614 24.5736C7.57303 24.5801 7.55992 24.5866 7.55337 24.5996C7.54682 24.6061 7.52715 24.6191 7.51404 24.6191C7.50749 24.6191 7.49438 24.6126 7.48127 24.6061C7.47472 24.5996 7.46161 24.5996 7.45506 24.5931C7.43539 24.5801 7.41573 24.5671 7.40262 24.5606C7.35019 24.5216 7.29775 24.4696 7.24532 24.4241C7.23876 24.4176 7.23221 24.4176 7.22566 24.4111H7.19944C7.17977 24.4176 7.16011 24.4176 7.14045 24.4241C7.12734 24.4241 7.12079 24.4306 7.10768 24.4306H7.08801C7.06835 24.4306 7.04869 24.4371 7.02903 24.4371C7.00281 24.4436 6.97004 24.4501 6.94382 24.4566C6.85861 24.4761 6.77996 24.4956 6.69476 24.5216V23.2152C10.9944 23.4882 15.2809 23.7676 19.5871 24.0406V26.3026ZM18.3614 4.04067L18.1713 3.77418H18.0861C18.073 3.77418 18.0665 3.76118 18.0534 3.76118L17.8567 3.60519C17.7257 3.50119 17.588 3.40369 17.4504 3.31269C17.1751 3.1242 16.8867 2.9487 16.5786 2.80571C16.441 2.79271 16.3296 2.72771 16.1723 2.63021C16.3427 2.65621 16.4607 2.67571 16.5786 2.69521C16.985 2.68871 17.3652 2.81871 17.7519 2.9357C18.0534 3.0267 18.3549 3.1242 18.6695 3.1502C19.1479 3.1827 19.5215 3.43619 19.8951 3.68968C20.1901 3.89118 20.2884 4.22267 20.3801 4.53466C20.4457 4.77515 20.2163 4.87915 20.0721 5.01565V5.04165C20.0721 5.05465 20.0786 5.06765 20.0786 5.08065C20.0852 5.10665 20.0983 5.12614 20.1049 5.15214C20.1311 5.20414 20.1573 5.24964 20.177 5.30164C20.1901 5.32764 20.1966 5.35364 20.2032 5.37964C20.2097 5.40564 20.2163 5.43814 20.2097 5.46414C20.2097 5.47714 20.1901 5.49013 20.1835 5.49663C20.1442 5.54863 20.0983 5.60063 20.059 5.64613L20.3343 5.55513C20.3539 5.53563 20.367 5.51613 20.3867 5.50313C20.4064 5.49014 20.426 5.47064 20.4457 5.45764C20.426 5.44464 20.426 5.43814 20.426 5.41864C20.4195 5.39264 20.4129 5.36014 20.4064 5.33414C20.3998 5.30814 20.3933 5.28214 20.3867 5.25614C20.3867 5.24314 20.3801 5.23014 20.3801 5.21714C20.3801 5.21064 20.367 5.18464 20.3736 5.17814C20.4457 5.03515 20.603 5.00915 20.6816 4.91815C21.1667 4.95065 21.4354 5.20414 21.573 5.63963C21.75 6.19212 21.7959 6.7771 21.9597 7.32959C22.2416 8.31756 22.0646 9.29253 21.9925 10.274C21.9532 10.8395 22.0122 11.418 21.9007 11.977C21.8549 12.1915 21.8024 12.393 21.632 12.5164C21.573 12.7569 21.6255 12.9779 21.6124 13.1989C21.5861 13.2639 21.5272 13.3159 21.4747 13.3614C21.4288 13.4069 21.3764 13.4459 21.324 13.4849C21.324 13.4849 21.324 13.4849 21.3174 13.4914C21.2715 13.5239 21.2191 13.5564 21.1798 13.5954C21.1601 13.6149 21.1404 13.6344 21.1208 13.6539C21.1011 13.6734 21.0749 13.6864 21.0487 13.7059C21.0028 13.7319 20.9569 13.7644 20.911 13.7969C20.8979 13.8099 20.8783 13.8164 20.8717 13.8359L20.8455 13.8619C20.8389 13.8684 20.8258 13.8814 20.8193 13.8879C20.8127 13.8944 20.8062 13.9009 20.8062 13.9074C20.8062 13.9139 20.8127 13.9139 20.8127 13.9204C20.8455 13.9594 20.8586 14.0179 20.8848 14.0634C20.8914 14.0764 20.9045 14.0894 20.911 14.1089C20.9176 14.1154 20.9176 14.1219 20.9176 14.1349C20.9307 14.1609 20.9373 14.1869 20.9373 14.2129V14.2519C20.9307 14.2779 20.9438 14.3039 20.9242 14.3234C20.8979 14.3494 20.8652 14.3754 20.8389 14.4014C20.8258 14.4144 20.8127 14.4274 20.7996 14.4339C20.7734 14.4599 20.7406 14.4794 20.7144 14.5054C20.7079 14.5119 20.7013 14.5119 20.7013 14.5184C20.6948 14.5249 20.6948 14.5379 20.7013 14.5509C20.721 14.6939 20.7406 14.8434 20.7603 14.9864C20.7603 15.0059 20.7669 15.0319 20.7669 15.0579C20.7603 15.0774 20.7603 15.0969 20.7603 15.1229C20.7603 15.1814 20.7669 15.2399 20.7734 15.2919L20.8979 14.6874C20.9897 14.5184 21.2191 14.4859 21.2781 14.3169C21.2781 14.1674 21.1404 14.1284 21.0946 13.9984C21.3371 13.8229 21.5861 13.6409 21.8614 13.4394C21.868 13.3094 21.8811 13.1534 21.8876 12.9909C21.9794 13.0104 21.9925 13.0819 21.9991 13.1404C22.0449 14.0179 22.2612 14.8954 22.0712 15.7794C22.0056 16.0979 21.8942 16.4033 21.8549 16.7218C21.75 17.6188 21.8876 18.5093 21.868 19.3998C21.8549 19.8482 21.9139 20.3032 21.7631 20.7712C21.1077 21.1092 20.4457 21.4147 19.7313 21.7527C19.764 21.3562 19.7772 21.0052 19.8165 20.6542C19.8755 20.0887 19.8492 19.5103 19.9738 18.9513C20.0262 18.7108 20.0066 18.4508 19.9476 18.2103C19.7444 17.4303 19.7509 16.6503 19.8492 15.8639C19.9541 15.0059 19.9279 14.1414 19.941 13.2769C19.9541 12.4124 20.0852 11.561 20.1311 10.6965C20.177 9.79302 20.2556 8.88304 20.0983 7.99257C19.9738 7.28409 19.7706 6.58861 19.6854 5.86712C19.6198 5.33414 19.3511 4.89215 18.9316 4.54766C18.7743 4.41766 18.6301 4.28117 18.4728 4.14467C18.4335 4.11217 18.4007 4.07967 18.3614 4.04067C18.3549 4.03417 18.3483 4.03417 18.3483 4.02767C18.3352 4.01467 18.3352 4.00168 18.3286 3.98218L18.3614 4.04067ZM21.809 21.8047C21.809 21.8047 21.8155 21.8112 21.8221 21.8112C21.8286 21.8112 21.8286 21.8112 21.8352 21.8177C21.8483 21.8177 21.8549 21.8242 21.8614 21.8307C21.8745 21.8437 21.8811 21.8567 21.8876 21.8697C21.8876 21.8892 21.8942 21.9087 21.8942 21.9347C21.8942 21.9802 21.9007 22.0322 21.8942 22.0777C21.8942 22.1037 21.8942 22.1232 21.8876 22.1492V22.1752C21.8876 22.1882 21.9007 22.1882 21.9139 22.1947C21.9335 22.2012 21.9466 22.2207 21.9532 22.2337C21.9597 22.2467 21.9663 22.2597 21.9597 22.2727C21.9597 22.2857 21.9532 22.2987 21.9466 22.3052C21.9335 22.3312 21.9139 22.3442 21.8876 22.3572C21.8286 22.3832 21.7697 22.4157 21.7172 22.4482C21.1929 22.7212 20.6685 23.0007 20.118 23.2867C19.9738 23.0202 19.8755 22.7537 19.7772 22.4482C20.5047 22.1102 21.2257 21.7722 21.9532 21.4277C22.1957 21.5772 22.3464 21.8047 22.5234 21.9997C22.4251 22.1102 22.3006 22.1427 22.176 22.2012C22.1629 22.1947 22.1498 22.1882 22.1367 22.1817C22.1236 22.1752 22.1039 22.1622 22.0908 22.1557C22.0777 22.1492 22.0646 22.1362 22.0449 22.1362C22.0253 22.1297 21.9991 22.1167 21.986 22.1037C21.9794 22.0972 21.9794 22.0907 21.9794 22.0777C21.9728 22.0517 21.9663 22.0322 21.9663 22.0062C21.9597 21.9737 21.9532 21.9477 21.9401 21.9152C21.9335 21.8892 21.9204 21.8567 21.9139 21.8307L21.809 21.8047ZM22.2547 23.5661V23.4687C22.2547 23.4492 22.2547 23.4232 22.2678 23.4037C22.2743 23.3907 22.2743 23.3842 22.2809 23.3777C22.2809 23.3712 22.2874 23.3712 22.2874 23.3647C22.3071 23.3322 22.3268 23.2997 22.353 23.2672C22.4644 23.1372 22.53 22.9877 22.5168 22.8057C22.5889 22.7537 22.661 22.6952 22.7856 22.7017C22.8315 23.3387 22.7987 24.0016 22.779 24.6776C21.9532 25.1651 21.1273 25.6526 20.2687 26.1531V23.9496C20.9373 23.5986 21.5992 23.2542 22.2678 22.9097C22.2874 22.9357 22.3006 22.9682 22.3071 23.0007C22.3137 23.0202 22.3071 23.0462 22.3071 23.0657C22.3071 23.0787 22.3006 23.0852 22.294 23.0982C22.294 23.1047 22.2874 23.1112 22.2809 23.1242C22.2743 23.1307 22.2612 23.1437 22.2547 23.1502C22.2416 23.1567 22.235 23.1697 22.2219 23.1827C22.2088 23.1957 22.1957 23.2152 22.1891 23.2282C22.1826 23.2347 22.176 23.2412 22.176 23.2542C22.1695 23.2607 22.1629 23.2737 22.1629 23.2867C22.1433 23.3192 22.1236 23.3582 22.0974 23.3907C22.0843 23.4037 22.0712 23.4232 22.0712 23.4427C22.0712 23.4492 22.0712 23.4557 22.0777 23.4622V23.7156C22.0777 23.7611 22.0843 23.8001 22.0843 23.8456C22.0843 23.8781 22.0777 23.9236 22.058 23.9496L22.0384 23.9691C22.0384 23.9691 22.0318 23.9756 22.0318 23.9821C22.0318 23.9886 22.0253 23.9886 22.0187 23.9951C21.9728 24.0471 21.9139 24.0861 21.8549 24.1251C21.8942 24.1186 21.9335 24.1121 21.9663 24.0926C21.9925 24.0796 22.0187 24.0601 22.0515 24.0471C22.058 24.0471 22.0646 24.0341 22.0777 24.0341C22.0777 24.0341 22.0777 24.0341 22.0843 24.0341C22.0974 24.0146 22.1039 23.9951 22.117 23.9691C22.1236 23.9626 22.1236 23.9496 22.1301 23.9366C22.1367 23.9236 22.1367 23.9171 22.1433 23.9041C22.1433 23.8976 22.1498 23.8911 22.1498 23.8846C22.1564 23.8586 22.1629 23.8326 22.176 23.8066C22.1826 23.7936 22.1826 23.7806 22.1891 23.7676C22.1891 23.7611 22.1957 23.7546 22.1957 23.7416C22.1957 23.7286 22.1957 23.7156 22.2022 23.7091C22.2022 23.6961 22.2088 23.6831 22.2219 23.6766C22.2285 23.6766 22.2285 23.6766 22.235 23.6766L22.2547 23.5661Z" fill="#E0E3BD"/>
<path d="M18.3614 4.04067L18.1713 3.77418H18.0861C18.073 3.77418 18.0665 3.76118 18.0534 3.76118L17.8567 3.60519C17.7257 3.50119 17.588 3.40369 17.4504 3.31269C17.1751 3.1242 16.8867 2.9487 16.5786 2.80571C16.441 2.79271 16.3296 2.72771 16.1723 2.63021C16.3427 2.65621 16.4607 2.67571 16.5786 2.69521C16.985 2.68871 17.3652 2.81871 17.7519 2.9357C18.0534 3.0267 18.3549 3.1242 18.6695 3.1502C19.1479 3.1827 19.5215 3.43619 19.8951 3.68968C20.1901 3.89118 20.2884 4.22267 20.3801 4.53466C20.4457 4.77515 20.2163 4.87915 20.0721 5.01565V5.04165C20.0721 5.05465 20.0786 5.06765 20.0786 5.08065C20.0852 5.10665 20.0983 5.12614 20.1049 5.15214C20.1311 5.20414 20.1573 5.24964 20.177 5.30164C20.1901 5.32764 20.1966 5.35364 20.2032 5.37964C20.2097 5.40564 20.2163 5.43814 20.2097 5.46414C20.2097 5.47714 20.1901 5.49013 20.1835 5.49663C20.1442 5.54863 20.0983 5.60063 20.059 5.64613L20.3343 5.55513C20.3539 5.53563 20.367 5.51613 20.3867 5.50313C20.4064 5.49014 20.426 5.47064 20.4457 5.45764C20.426 5.44464 20.426 5.43814 20.426 5.41864C20.4195 5.39264 20.4129 5.36014 20.4064 5.33414C20.3998 5.30814 20.3933 5.28214 20.3867 5.25614C20.3867 5.24314 20.3801 5.23014 20.3801 5.21714C20.3801 5.21064 20.367 5.18464 20.3736 5.17814C20.4457 5.03515 20.603 5.00915 20.6816 4.91815C21.1667 4.95065 21.4354 5.20414 21.573 5.63963C21.75 6.19212 21.7959 6.7771 21.9597 7.32959C22.2416 8.31756 22.0646 9.29253 21.9925 10.274C21.9532 10.8395 22.0122 11.418 21.9007 11.977C21.8549 12.1915 21.8024 12.393 21.632 12.5164C21.573 12.7569 21.6255 12.9779 21.6124 13.1989C21.5861 13.2639 21.5272 13.3159 21.4747 13.3614C21.4288 13.4069 21.3764 13.4459 21.324 13.4849C21.324 13.4849 21.324 13.4849 21.3174 13.4914C21.2715 13.5239 21.2191 13.5564 21.1798 13.5954C21.1601 13.6149 21.1404 13.6344 21.1208 13.6539C21.1011 13.6734 21.0749 13.6864 21.0487 13.7059C21.0028 13.7319 20.9569 13.7644 20.911 13.7969C20.8979 13.8099 20.8783 13.8164 20.8717 13.8359L20.8455 13.8619C20.8389 13.8684 20.8258 13.8814 20.8193 13.8879C20.8127 13.8944 20.8062 13.9009 20.8062 13.9074C20.8062 13.9139 20.8127 13.9139 20.8127 13.9204C20.8455 13.9594 20.8586 14.0179 20.8848 14.0634C20.8914 14.0764 20.9045 14.0894 20.911 14.1089C20.9176 14.1154 20.9176 14.1219 20.9176 14.1349C20.9307 14.1609 20.9373 14.1869 20.9373 14.2129V14.2519C20.9307 14.2779 20.9438 14.3039 20.9242 14.3234C20.8979 14.3494 20.8652 14.3754 20.8389 14.4014C20.8258 14.4144 20.8127 14.4274 20.7996 14.4339C20.7734 14.4599 20.7406 14.4794 20.7144 14.5054C20.7079 14.5119 20.7013 14.5119 20.7013 14.5184C20.6948 14.5249 20.6948 14.5379 20.7013 14.5509C20.721 14.6939 20.7406 14.8434 20.7603 14.9864C20.7603 15.0059 20.7669 15.0319 20.7669 15.0579C20.7603 15.0774 20.7603 15.0969 20.7603 15.1229C20.7603 15.1814 20.7669 15.2399 20.7734 15.2919L20.8979 14.6874C20.9897 14.5184 21.2191 14.4859 21.2781 14.3169C21.2781 14.1674 21.1404 14.1284 21.0946 13.9984C21.3371 13.8229 21.5861 13.6409 21.8614 13.4394C21.868 13.3094 21.8811 13.1534 21.8876 12.9909C21.9794 13.0104 21.9925 13.0819 21.9991 13.1404C22.0449 14.0179 22.2612 14.8954 22.0712 15.7794C22.0056 16.0979 21.8942 16.4033 21.8549 16.7218C21.75 17.6188 21.8876 18.5093 21.868 19.3998C21.8549 19.8482 21.9139 20.3032 21.7631 20.7712C21.1077 21.1092 20.4457 21.4147 19.7313 21.7527C19.764 21.3562 19.7772 21.0052 19.8165 20.6542C19.8755 20.0887 19.8492 19.5103 19.9738 18.9513C20.0262 18.7108 20.0066 18.4508 19.9476 18.2103C19.7444 17.4303 19.7509 16.6503 19.8492 15.8639C19.9541 15.0059 19.9279 14.1414 19.941 13.2769C19.9541 12.4124 20.0852 11.561 20.1311 10.6965C20.177 9.79302 20.2556 8.88304 20.0983 7.99257C19.9738 7.28409 19.7706 6.58861 19.6854 5.86712C19.6198 5.33414 19.3511 4.89215 18.9316 4.54766C18.7743 4.41766 18.6301 4.28117 18.4728 4.14467C18.4335 4.11217 18.4007 4.07967 18.3614 4.04067ZM18.3614 4.04067C18.3549 4.03417 18.3483 4.03417 18.3483 4.02767C18.3352 4.01467 18.3352 4.00168 18.3286 3.98218L18.3614 4.04067ZM21.9139 21.8307C21.9204 21.8567 21.9335 21.8892 21.9401 21.9152C21.9532 21.9477 21.9597 21.9737 21.9663 22.0062C21.9663 22.0322 21.9728 22.0517 21.9794 22.0777C21.9794 22.0907 21.9794 22.0972 21.986 22.1037C21.9991 22.1167 22.0253 22.1297 22.0449 22.1362C22.0646 22.1362 22.0777 22.1492 22.0908 22.1557C22.1039 22.1622 22.1236 22.1752 22.1367 22.1817C22.1498 22.1882 22.1629 22.1947 22.176 22.2012C22.3006 22.1427 22.4251 22.1102 22.5234 21.9997C22.3464 21.8047 22.1957 21.5772 21.9532 21.4277C21.2257 21.7722 20.5047 22.1102 19.7772 22.4482C19.8755 22.7537 19.9738 23.0202 20.118 23.2867C20.6685 23.0007 21.1929 22.7212 21.7172 22.4482C21.7697 22.4157 21.8286 22.3832 21.8876 22.3572C21.9139 22.3442 21.9335 22.3312 21.9466 22.3052C21.9532 22.2987 21.9597 22.2857 21.9597 22.2727C21.9663 22.2597 21.9597 22.2467 21.9532 22.2337C21.9466 22.2207 21.9335 22.2012 21.9139 22.1947C21.9007 22.1882 21.8876 22.1882 21.8876 22.1752V22.1492C21.8942 22.1232 21.8942 22.1037 21.8942 22.0777C21.9007 22.0322 21.8942 21.9802 21.8942 21.9347C21.8942 21.9087 21.8876 21.8892 21.8876 21.8697C21.8811 21.8567 21.8745 21.8437 21.8614 21.8307C21.8549 21.8242 21.8483 21.8177 21.8352 21.8177C21.8286 21.8112 21.8286 21.8112 21.8221 21.8112C21.8155 21.8112 21.809 21.8047 21.809 21.8047L21.9139 21.8307ZM21.9139 21.8307L21.7762 21.7787M23.323 21.8437C22.9888 21.5772 22.7397 21.2327 22.4251 20.9337C22.4448 20.6022 22.4841 20.3032 22.4841 20.0042C22.4775 19.1853 22.53 18.3663 22.4644 17.5473C22.4251 17.0468 22.5627 16.5658 22.7004 16.0849C22.9691 15.1684 22.8183 14.2259 22.6807 13.3224C22.5824 12.6789 22.5693 12.055 22.6152 11.418C22.661 10.859 22.6676 10.3 22.7135 9.74102C22.7725 8.94804 22.8446 8.16806 22.6414 7.36858C22.4644 6.6926 22.4251 5.98412 22.1498 5.33414C21.9335 4.82715 21.9335 4.82715 21.265 3.94968C20.6685 3.32569 20.5768 3.31919 20.0655 3.0137C19.6723 2.77971 19.2856 2.55871 18.8071 2.51322C18.1976 2.45472 17.6339 2.18822 17.0309 2.09073C15.9822 1.92173 14.9466 2.01273 13.911 2.16872C12.5215 2.38322 11.1517 2.64971 10.0833 3.70268C9.57865 4.20317 9.06086 4.67766 8.84457 5.37314C8.78558 5.56813 8.65449 5.73713 8.55618 5.91262C8.10393 6.6731 8.2088 7.01759 8.14326 8.00557C8.18258 8.07707 8.0515 8.50605 8.00562 8.62305C7.94663 9.28603 7.94007 8.86354 7.94663 9.14954C7.96629 10.014 7.97285 10.8785 7.9794 11.7365C7.98595 12.5164 8.01873 13.2964 7.87453 14.0634C7.71723 14.8759 7.73034 15.6949 7.72378 16.5138C7.72378 16.6958 7.73034 16.8843 7.68446 17.0598C7.54682 17.6708 7.57959 18.2818 7.61236 18.8928C7.65824 19.7248 7.61891 20.5502 7.71723 21.4017C7.23221 21.7787 6.75375 22.1557 6.26873 22.5197C6.09831 22.6432 6 22.7797 6 23.0007C6.01311 23.9171 6.01311 24.8336 6.01966 25.7501C6.01966 25.9971 6.13764 26.1336 6.39326 26.1531C7.57959 26.2246 8.75936 26.2961 9.93914 26.3741C11.4728 26.4716 13 26.5626 14.5337 26.6601C16.2706 26.7706 18.0075 26.8876 19.7444 26.9981C19.9803 27.0111 20.1966 26.9591 20.3998 26.8356C21.3109 26.2896 22.2285 25.7436 23.1461 25.2106C23.3689 25.0806 23.4541 24.9116 23.4541 24.6581C23.4607 23.8586 23.4803 23.0592 23.5 22.2662C23.5 22.1037 23.4672 21.9542 23.323 21.8437ZM8.24157 17.7358C8.32022 17.1898 8.39232 16.6503 8.37921 16.0979C8.35955 15.3829 8.44476 14.6809 8.54962 13.9789C8.69382 13.0039 8.64139 12.0225 8.62172 11.041C8.61517 10.6835 8.60861 10.326 8.61517 9.97501C8.61517 9.88402 8.62172 9.79302 8.62828 9.70202C8.63483 9.65002 8.64139 9.59802 8.64139 9.53953C8.64139 9.51353 8.66105 9.49403 8.68071 9.47453C8.70693 9.44203 8.7397 9.40953 8.76592 9.37703C8.77247 9.37053 8.77903 9.36403 8.79213 9.35753C8.79869 9.35753 8.8118 9.35753 8.81835 9.36403C8.93633 9.41603 9.13951 9.60452 9.14607 9.61752C9.14607 9.62402 9.38202 9.79952 9.38202 9.80602C9.38858 9.81252 9.23783 10.1375 9.23783 10.1505C9.51966 10.1505 9.44756 10.0595 9.67697 9.65002C9.69007 9.62402 9.44756 9.46153 9.44756 9.42903C9.40824 9.39003 9.39513 9.33803 9.37547 9.29253C9.3558 9.23403 9.32303 9.18204 9.29026 9.13654C9.2706 9.11054 9.25094 9.09104 9.23127 9.06504C9.21161 9.04554 9.19195 9.02604 9.17228 9.00654C9.15918 8.99354 9.15262 8.98054 9.15262 8.96104C9.14607 8.93504 9.13296 8.91554 9.1264 8.88954C9.10019 8.83105 9.07397 8.76605 9.05431 8.70105C9.00843 8.57755 8.9691 8.44756 8.92977 8.31756C8.89045 8.18756 8.85112 8.05757 8.80524 7.92757C8.77903 7.85607 8.75281 7.79107 8.72659 7.71958C8.77247 7.10859 8.89045 6.52361 9.29682 6.02962C9.38858 5.91262 9.44756 5.76313 9.49344 5.62663C9.67697 5.02865 10.0833 4.59966 10.5487 4.21617C10.8371 3.97568 11.0992 3.68968 11.4335 3.52719C11.4401 3.52069 11.4663 3.54019 11.4728 3.54019C11.486 3.54669 11.4991 3.55319 11.5122 3.55969C11.5384 3.57919 11.5581 3.59869 11.5712 3.62469C11.5974 3.65718 11.6039 3.70268 11.6236 3.73518C11.6367 3.76768 11.6498 3.80668 11.6629 3.83918C11.6891 3.91068 11.7154 3.97568 11.735 4.04717C11.7416 4.06017 11.7416 4.06667 11.7481 4.07317C11.7481 4.07967 11.7547 4.08617 11.7547 4.08617C11.7547 4.08617 11.7678 4.09267 11.7743 4.09267C11.8006 4.09917 11.8268 4.11217 11.853 4.11867C11.8595 4.11867 11.8268 4.29417 11.8268 4.30717V4.33967C11.8268 4.36567 11.8202 4.39816 11.8202 4.42416C11.8137 4.48266 11.8137 4.54116 11.8071 4.59966C11.8071 4.61916 11.8006 4.64516 11.8071 4.66466C11.8137 4.68416 11.8202 4.69716 11.8268 4.71666C11.8792 4.82065 11.9054 5.21064 11.9054 5.21064C11.9054 5.21064 11.9906 4.98965 11.9841 4.97665C11.9775 4.95715 11.9775 4.94415 11.971 4.92465C11.9644 4.89215 11.9579 4.85315 11.9513 4.82065C11.9448 4.77515 11.9382 4.72966 11.9316 4.67766C11.9316 4.65816 11.9251 4.64516 11.9251 4.62566C11.9251 4.61266 11.9185 4.60616 11.9251 4.59316C11.9316 4.57366 11.9382 4.55416 11.9513 4.54116C11.9579 4.52166 11.971 4.50216 11.9775 4.48266C11.9775 4.48266 12.0169 4.48916 12.0234 4.49566C12.0365 4.50216 12.0496 4.50866 12.0627 4.50866C12.1021 4.51516 12.1348 4.52816 12.1676 4.54766C12.1807 4.55416 12.1938 4.56066 12.2069 4.57366C12.2135 4.58666 12.22 4.59966 12.2266 4.61266C12.2594 4.69716 12.2921 4.78815 12.3315 4.87265C12.338 4.88565 12.3446 4.90515 12.3577 4.91815C12.3708 4.93115 12.3839 4.93765 12.397 4.94415C12.4822 4.99615 12.574 5.04815 12.6592 5.10015C12.6198 5.03515 12.5609 4.98315 12.5084 4.91815C12.4298 4.82065 12.3773 4.70366 12.3577 4.58016C12.3511 4.55416 12.3511 4.52816 12.3511 4.50216C12.2856 4.45666 12.22 4.41766 12.1545 4.37217C12.1283 4.35267 12.0955 4.33967 12.0758 4.32017C12.0693 4.31367 12.0627 4.30067 12.0627 4.28767C12.0562 4.26817 12.0496 4.25517 12.0431 4.23567C12.0169 4.16417 11.9972 4.09267 11.971 4.02767C11.9644 4.00817 11.9579 3.98218 11.9382 3.97568C11.9316 3.96918 11.9185 3.96918 11.9054 3.96268C11.8858 3.94968 11.8792 3.92368 11.8727 3.90418C11.8661 3.87818 11.8595 3.84568 11.853 3.81968C11.8464 3.80018 11.8399 3.77418 11.8399 3.74818V3.72218C11.8333 3.67668 11.8202 3.63119 11.8202 3.58569C11.8137 3.46869 11.8399 3.35169 11.9054 3.2477C13.9045 2.9552 15.9232 2.71471 17.6798 4.24217V5.15214C17.6798 5.17814 17.6798 5.21064 17.6667 5.23664C17.6601 5.24314 17.6601 5.24964 17.6536 5.26264C17.647 5.28214 17.6404 5.30164 17.6273 5.31464C17.6077 5.34714 17.588 5.37964 17.5618 5.41864C17.5356 5.45764 17.5094 5.49663 17.4963 5.54213C17.5028 5.53563 17.5094 5.53563 17.5159 5.52913L17.5356 5.50963C17.5487 5.49663 17.5683 5.48364 17.5815 5.47714C17.6142 5.45764 17.6404 5.43164 17.6667 5.40564C17.6798 5.39264 17.6863 5.37964 17.6994 5.36014C17.7125 5.34064 17.7257 5.30814 17.7388 5.28864C17.7584 5.26914 17.7715 5.23664 17.7781 5.20414C17.7846 5.19114 17.7912 5.18464 17.7912 5.17164C17.7977 5.15864 17.7978 5.14564 17.8043 5.12614C17.8109 5.09365 17.8174 5.06765 17.824 5.03515C17.8502 4.90515 17.8567 4.77515 17.8764 4.64516C17.883 4.59316 17.8961 4.54766 17.9092 4.49566C18.4532 4.91815 19.0169 5.28864 19.0955 6.02962C19.161 6.6536 19.2725 7.26459 19.4494 7.86907C19.5019 8.04457 19.5477 8.22656 19.5477 8.40856C19.5477 9.62402 19.6067 10.833 19.4101 12.042C19.3052 12.6854 19.3118 13.3549 19.3052 14.0114C19.3052 14.7134 19.2659 15.4154 19.2004 16.1109C19.1348 16.7933 19.1348 17.4693 19.3052 18.1323C19.397 18.4833 19.338 18.8343 19.2987 19.1918C19.22 19.8872 19.1873 20.5892 19.1414 21.2912C19.1283 21.4602 19.1348 21.6357 19.0627 21.8177C15.4972 21.6227 11.9382 21.4277 8.35955 21.2262C8.35955 21.2262 8.34644 21.1157 8.34644 21.1092C8.33989 21.0637 8.33333 21.0182 8.32678 20.9727C8.31367 20.8817 8.30712 20.7972 8.30056 20.7062C8.29401 20.6152 8.30056 20.5307 8.30712 20.4462V20.4137C8.30712 20.3812 8.31367 20.3422 8.32022 20.3162C8.32678 20.2837 8.33333 20.2447 8.33989 20.2122C8.35955 20.1342 8.37921 20.0562 8.41198 19.9782C8.41854 19.9652 8.41854 19.9587 8.42509 19.9457C8.43165 19.9392 8.44476 19.9327 8.45786 19.9262C8.62828 19.8612 8.79213 19.7962 8.96255 19.7313C8.98221 19.7248 8.98876 19.6988 9.00187 19.6793C9.01498 19.6598 9.02809 19.6403 9.04775 19.6208C9.06086 19.6078 9.08052 19.5948 9.09363 19.5818C9.11985 19.5558 9.13296 19.5233 9.14607 19.4908C9.17228 19.4388 9.1985 19.3803 9.21816 19.3283C9.23127 19.3023 9.24438 19.2763 9.25094 19.2568C9.25094 19.2503 9.25094 19.2438 9.25749 19.2373C9.27715 19.2048 9.32303 19.1788 9.34925 19.1593C9.40824 19.1138 9.46067 19.0618 9.5 19.0033C9.44756 19.0293 9.40824 19.0618 9.3558 19.0943C9.33614 19.1073 9.30992 19.1203 9.28371 19.1268C9.27715 19.1268 9.2706 19.1268 9.25749 19.1333C9.25094 19.1333 9.25094 19.1398 9.25094 19.1398C9.23783 19.1528 9.22472 19.1723 9.21161 19.1918C9.18539 19.2308 9.15918 19.2698 9.13296 19.3088C9.10019 19.3543 9.06741 19.3998 9.03464 19.4518C9.00187 19.5038 8.98221 19.5558 8.92977 19.5818C8.91667 19.5883 8.897 19.5948 8.87734 19.6013C8.71348 19.6533 8.54307 19.7118 8.37921 19.7638C8.34644 19.7767 8.31367 19.7833 8.2809 19.8092V19.7443C8.28745 19.7118 8.2809 19.6793 8.28745 19.6533V19.5233C8.28745 19.4323 8.2809 19.3478 8.2809 19.2568C8.27434 19.0813 8.26124 18.9058 8.25468 18.7368C8.20225 18.4118 8.19569 18.0738 8.24157 17.7358ZM8.09738 21.9542C8.18914 21.8827 8.30712 21.9022 8.41198 21.9087C10.5159 22.0257 12.6198 22.1362 14.7238 22.2532C16.1002 22.3312 17.4766 22.4092 18.8595 22.4807C18.9251 22.4872 18.9906 22.5002 19.0627 22.5067C19.1938 22.7667 19.2987 23.0332 19.3773 23.3582C15.3595 23.0982 11.3745 22.8447 7.31742 22.5847C7.5927 22.3117 7.85487 22.1427 8.09738 21.9542ZM19.5871 26.3026C19.2921 26.3481 19.0037 26.3091 18.735 26.2766C18.7219 26.2766 18.7088 26.2636 18.7022 26.2571C18.6891 26.2506 18.6826 26.2441 18.6695 26.2311C18.6498 26.2181 18.6301 26.1986 18.6105 26.1791C18.5712 26.1401 18.5449 26.0881 18.5056 26.0491C18.4925 26.0361 18.4728 26.0231 18.4663 26.0101C18.4532 25.9841 18.4466 25.9581 18.4401 25.9321C18.4401 25.9256 18.4401 25.9191 18.4335 25.9061C18.427 25.8996 18.4204 25.8931 18.4204 25.8801C18.3876 25.8411 18.3614 25.8021 18.3418 25.7566C18.3352 25.7436 18.3352 25.7241 18.3352 25.7111C18.3418 25.6721 18.3221 25.6331 18.309 25.6006C18.3024 25.5681 18.2959 25.5421 18.2893 25.5096C18.2893 25.5031 18.2828 25.4901 18.2762 25.4836C18.2631 25.4641 18.2434 25.4511 18.2238 25.4381C18.1779 25.3861 18.132 25.3406 18.0861 25.2951C18.0665 25.2756 18.0468 25.2626 18.0272 25.2496C18.0403 25.2561 18.0468 25.2756 18.0599 25.2886C18.0665 25.3016 18.0796 25.3146 18.0927 25.3276C18.1124 25.3536 18.132 25.3796 18.1451 25.4186C18.1451 25.4316 18.1582 25.4511 18.1648 25.4641C18.1845 25.5031 18.1976 25.5356 18.2041 25.5746C18.2172 25.6266 18.2238 25.6786 18.2238 25.7306C18.2303 25.7761 18.2303 25.8281 18.2369 25.8736C18.2369 25.8736 18.2697 25.8866 18.2762 25.8866C18.2828 25.8931 18.2828 25.9061 18.2828 25.9191C18.2959 25.9516 18.3155 25.9841 18.3352 26.0166C18.3418 26.0296 18.3483 26.0426 18.3549 26.0556V26.1661C18.3549 26.1791 18.3549 26.1986 18.3483 26.2116C18.3352 26.2311 18.309 26.2441 18.3155 26.2701C18.2893 26.2701 18.25 26.2766 18.2238 26.2701C18.2172 26.2701 18.2107 26.2701 18.2041 26.2636C18.1582 26.2571 18.1189 26.2571 18.073 26.2571C17.9878 26.2506 17.9026 26.2441 17.8174 26.2441C17.0768 26.1986 16.3361 26.1466 15.5955 26.1011C14.8549 26.0556 14.1142 26.0036 13.3736 25.9581C12.633 25.9126 11.8923 25.8606 11.1517 25.8151C10.411 25.7696 9.67041 25.7176 8.92977 25.6721C8.55618 25.6461 8.18914 25.6266 7.81554 25.6006C7.63202 25.5876 7.44195 25.5746 7.25843 25.5681C7.16667 25.5616 7.07491 25.5551 6.98315 25.5486C6.96348 25.5486 6.71442 25.5356 6.71442 25.5291V24.9051L6.72097 24.8986C6.72753 24.8921 6.72753 24.8921 6.73408 24.8856C6.74064 24.8726 6.74719 24.8661 6.75375 24.8531C6.77341 24.8271 6.78652 24.8076 6.80618 24.7816C6.82584 24.7556 6.85206 24.7296 6.87172 24.7036C6.87828 24.6906 6.88483 24.6841 6.89139 24.6711C6.90449 24.6581 6.92416 24.6451 6.93727 24.6386C6.95693 24.6256 6.97659 24.6191 6.99625 24.6061C7.03558 24.5866 7.07491 24.5671 7.12079 24.5541C7.15356 24.5411 7.18633 24.5346 7.2191 24.5411C7.24532 24.5476 7.27154 24.5606 7.2912 24.5801C7.3633 24.6321 7.44195 24.6841 7.52715 24.7036C7.54682 24.7101 7.55337 24.6906 7.56648 24.6841C7.59925 24.6516 7.63858 24.6256 7.67135 24.6061C7.6779 24.5996 7.69101 24.5931 7.69757 24.5931C7.71723 24.5801 7.73689 24.5736 7.75655 24.5606C7.83521 24.5281 7.92041 24.5216 8.00562 24.5151C7.94663 24.4956 7.88109 24.4826 7.80899 24.4761C7.76966 24.4761 7.73034 24.4761 7.69757 24.4956C7.69101 24.5021 7.68446 24.5086 7.68446 24.5086C7.6779 24.5151 7.66479 24.5216 7.65824 24.5281L7.59925 24.5671C7.5927 24.5671 7.5927 24.5736 7.58614 24.5736C7.57303 24.5801 7.55992 24.5866 7.55337 24.5996C7.54682 24.6061 7.52715 24.6191 7.51404 24.6191C7.50749 24.6191 7.49438 24.6126 7.48127 24.6061C7.47472 24.5996 7.46161 24.5996 7.45506 24.5931C7.43539 24.5801 7.41573 24.5671 7.40262 24.5606C7.35019 24.5216 7.29775 24.4696 7.24532 24.4241C7.23876 24.4176 7.23221 24.4176 7.22566 24.4111H7.19944C7.17977 24.4176 7.16011 24.4176 7.14045 24.4241C7.12734 24.4241 7.12079 24.4306 7.10768 24.4306H7.08801C7.06835 24.4306 7.04869 24.4371 7.02903 24.4371C7.00281 24.4436 6.97004 24.4501 6.94382 24.4566C6.85861 24.4761 6.77996 24.4956 6.69476 24.5216V23.2152C10.9944 23.4882 15.2809 23.7676 19.5871 24.0406V26.3026ZM22.2547 23.5661V23.4687C22.2547 23.4492 22.2547 23.4232 22.2678 23.4037C22.2743 23.3907 22.2743 23.3842 22.2809 23.3777C22.2809 23.3712 22.2874 23.3712 22.2874 23.3647C22.3071 23.3322 22.3268 23.2997 22.353 23.2672C22.4644 23.1372 22.53 22.9877 22.5168 22.8057C22.5889 22.7537 22.661 22.6952 22.7856 22.7017C22.8315 23.3387 22.7987 24.0016 22.779 24.6776C21.9532 25.1651 21.1273 25.6526 20.2687 26.1531V23.9496C20.9373 23.5986 21.5992 23.2542 22.2678 22.9097C22.2874 22.9357 22.3006 22.9682 22.3071 23.0007C22.3137 23.0202 22.3071 23.0462 22.3071 23.0657C22.3071 23.0787 22.3006 23.0852 22.294 23.0982C22.294 23.1047 22.2874 23.1112 22.2809 23.1242C22.2743 23.1307 22.2612 23.1437 22.2547 23.1502C22.2416 23.1567 22.235 23.1697 22.2219 23.1827C22.2088 23.1957 22.1957 23.2152 22.1891 23.2282C22.1826 23.2347 22.176 23.2412 22.176 23.2542C22.1695 23.2607 22.1629 23.2737 22.1629 23.2867C22.1433 23.3192 22.1236 23.3582 22.0974 23.3907C22.0843 23.4037 22.0712 23.4232 22.0712 23.4427C22.0712 23.4492 22.0712 23.4557 22.0777 23.4622V23.7156C22.0777 23.7611 22.0843 23.8001 22.0843 23.8456C22.0843 23.8781 22.0777 23.9236 22.058 23.9496L22.0384 23.9691C22.0384 23.9691 22.0318 23.9756 22.0318 23.9821C22.0318 23.9886 22.0253 23.9886 22.0187 23.9951C21.9728 24.0471 21.9139 24.0861 21.8549 24.1251C21.8942 24.1186 21.9335 24.1121 21.9663 24.0926C21.9925 24.0796 22.0187 24.0601 22.0515 24.0471C22.058 24.0471 22.0646 24.0341 22.0777 24.0341C22.0777 24.0341 22.0777 24.0341 22.0843 24.0341C22.0974 24.0146 22.1039 23.9951 22.117 23.9691C22.1236 23.9626 22.1236 23.9496 22.1301 23.9366C22.1367 23.9236 22.1367 23.9171 22.1433 23.9041C22.1433 23.8976 22.1498 23.8911 22.1498 23.8846C22.1564 23.8586 22.1629 23.8326 22.176 23.8066C22.1826 23.7936 22.1826 23.7806 22.1891 23.7676C22.1891 23.7611 22.1957 23.7546 22.1957 23.7416C22.1957 23.7286 22.1957 23.7156 22.2022 23.7091C22.2022 23.6961 22.2088 23.6831 22.2219 23.6766C22.2285 23.6766 22.2285 23.6766 22.235 23.6766L22.2547 23.5661Z" stroke="#362745" stroke-width="0.5" stroke-miterlimit="10"/>
<path d="M14.7708 12.211C14.6135 12.445 14.6003 12.7634 14.7118 13.0234C14.7445 13.1014 14.7904 13.1729 14.8625 13.2184C15.0067 13.3029 15.1902 13.2249 15.341 13.1469C15.5376 13.0429 15.7408 12.9194 15.8194 12.7114C15.8784 12.562 15.8522 12.3865 15.7801 12.2435C15.7408 12.1525 15.6818 12.0745 15.6163 12.003C15.5704 11.9575 15.5311 11.899 15.459 11.8925C15.2951 11.8665 15.1181 11.9185 14.9805 12.003C14.8953 12.0615 14.8232 12.133 14.7708 12.211Z" fill="#6B00FA" stroke="#362745" stroke-width="0.5" stroke-miterlimit="10"/>
<path d="M11.7872 12.2564C11.7347 12.3474 11.6954 12.4449 11.6888 12.5489C11.6757 12.7244 11.7609 12.8869 11.8396 13.0429C11.8527 13.0754 11.8724 13.1079 11.8986 13.1274C11.9248 13.1469 11.9576 13.1534 11.9903 13.1599C12.3181 13.2054 12.6589 13.0754 12.8686 12.8219C12.9079 12.7699 12.9407 12.7179 12.9604 12.6594C12.9866 12.5684 12.9866 12.4774 12.98 12.3864C12.9735 12.2564 12.9604 12.1069 12.8621 12.0159C12.8162 11.9704 12.7572 11.9379 12.6982 11.9119C12.6261 11.8729 12.5409 11.8274 12.4623 11.8015C12.4033 11.7885 12.3312 11.8079 12.2787 11.8274C12.1411 11.8729 12.0231 11.9639 11.9248 12.0679C11.8986 12.1004 11.8724 12.1264 11.8461 12.1589C11.833 12.1784 11.8199 12.1914 11.8134 12.2109C11.8068 12.2174 11.8003 12.2434 11.7872 12.2564Z" fill="#6B00FA" stroke="#362745" stroke-width="0.5" stroke-miterlimit="10"/>
<path d="M12.2072 13.3419C11.7091 13.3419 11.3027 12.9389 11.3027 12.445C11.3027 11.951 11.7091 11.548 12.2072 11.548C12.7054 11.548 13.1117 11.951 13.1117 12.445C13.1117 12.9389 12.7054 13.3419 12.2072 13.3419ZM12.2072 11.808C11.8533 11.808 11.5649 12.094 11.5649 12.445C11.5649 12.7959 11.8533 13.0819 12.2072 13.0819C12.5612 13.0819 12.8496 12.7959 12.8496 12.445C12.8496 12.094 12.5612 11.808 12.2072 11.808Z" fill="#362745"/>
<path d="M15.1174 13.4069C14.6193 13.4069 14.2129 13.0039 14.2129 12.5099C14.2129 12.0159 14.6193 11.6129 15.1174 11.6129C15.6155 11.6129 16.0219 12.0159 16.0219 12.5099C16.0219 13.0039 15.6155 13.4069 15.1174 13.4069ZM15.1174 11.8729C14.7635 11.8729 14.4751 12.1589 14.4751 12.5099C14.4751 12.8609 14.7635 13.1469 15.1174 13.1469C15.4713 13.1469 15.7597 12.8609 15.7597 12.5099C15.7597 12.1589 15.4713 11.8729 15.1174 11.8729Z" fill="#362745"/>
<path d="M11.7873 13.0234C11.6956 12.8869 11.4727 12.7309 11.4727 12.5749C11.4727 12.1134 11.6955 11.7429 12.1609 11.7429C12.1674 11.7429 12.5083 11.7429 12.5149 11.7429C12.5673 11.7949 12.6197 11.8404 12.6591 11.8924C12.6001 11.8794 12.5476 11.8729 12.4887 11.8729C12.1019 11.8729 11.7808 12.1849 11.7808 12.5749C11.7808 12.7634 11.8529 12.9324 11.9774 13.0624L11.7873 13.0234Z" fill="#362745"/>
<path d="M14.9067 13.1404C14.8412 13.1339 14.4872 12.9977 14.4216 12.9847C14.3299 12.8482 14.4216 12.3412 14.4216 12.1722C14.4216 11.7303 14.9591 11.7758 15.3983 11.7498L15.5294 11.9445C15.49 11.938 15.4442 11.9315 15.3983 11.9315C15.0116 11.9315 14.6904 12.2435 14.6904 12.6334C14.697 12.8349 14.7756 13.0104 14.9067 13.1404Z" fill="#362745"/>
</svg>
