<svg width="393" height="852" viewBox="0 0 393 852" fill="none" xmlns="http://www.w3.org/2000/svg">
<rect width="393" height="852" fill="url(#paint0_radial_1_4)"/>
<path d="M176.166 368.389L166.801 394H150.452L187.463 296.308H206.49L243.497 394H226.701L196.823 309.924L180.622 355.514L176.166 368.389Z" fill="white"/>
<path d="M155.434 381.12H142.5V394H155.434V381.12Z" fill="white"/>
<path d="M207.298 300.279C207.298 305.957 186.654 305.957 186.654 300.279C186.654 297.553 187.742 294.938 189.678 293.011C191.613 291.083 194.239 290 196.976 290C199.714 290 202.339 291.083 204.275 293.011C206.211 294.938 207.298 297.553 207.298 300.279Z" fill="white"/>
<path d="M251.5 381.12H238.566V394H251.5V381.12Z" fill="white"/>
<g filter="url(#filter0_d_1_4)">
<path d="M95.5242 436.662V466.703C95.5242 467.969 95.748 468.842 96.1956 469.321C96.6431 469.801 97.3783 470.043 98.401 470.047C98.928 470.055 99.4545 470.012 99.9731 469.919C100.322 469.861 100.661 469.75 100.977 469.592V473.538C100.335 473.831 99.6603 474.047 98.9671 474.181C98.2213 474.334 97.462 474.411 96.7006 474.412C94.3984 474.412 92.7057 473.821 91.6226 472.64C90.5395 471.459 89.9986 469.636 90 467.17V436.662H95.5242Z" fill="white"/>
</g>
<g filter="url(#filter1_d_1_4)">
<path d="M111.939 474.089H106.425V448.414H111.939V474.089ZM109.203 444.107C107.999 444.107 107.081 443.808 106.446 443.208C105.815 442.61 105.493 441.763 105.493 440.667C105.493 439.57 105.809 438.734 106.446 438.151C107.084 437.568 107.999 437.279 109.203 437.279C110.372 437.279 111.274 437.569 111.91 438.151C112.545 438.732 112.863 439.571 112.863 440.667C112.863 441.764 112.545 442.611 111.91 443.208C111.274 443.805 110.372 444.105 109.203 444.107Z" fill="white"/>
</g>
<g filter="url(#filter2_d_1_4)">
<path d="M131.481 436.501C132.411 436.501 133.443 436.648 134.059 436.895V441.285C133.39 441.111 132.704 441.005 132.014 440.969C130.604 440.969 129.892 441.294 129.084 441.944C128.276 442.594 127.874 443.657 127.874 445.128V448.871L128.028 450.257V474.089H122.514V444.718C122.494 443.527 122.695 442.343 123.105 441.225C123.478 440.23 124.088 439.34 124.884 438.633C125.715 437.908 126.69 437.365 127.746 437.04C128.955 436.667 130.215 436.485 131.481 436.501ZM133.396 452.727H117.667V448.414H133.405L133.396 452.727Z" fill="white"/>
</g>
<g filter="url(#filter3_d_1_4)">
<path d="M149.226 444.923C151.424 444.923 153.271 445.273 154.767 445.971C156.263 446.67 157.396 447.603 158.168 448.77C158.934 449.908 159.338 451.25 159.327 452.62C159.35 453.628 159.175 454.632 158.814 455.574C158.503 456.36 158.048 457.082 157.473 457.704C156.95 458.267 156.319 458.721 155.617 459.04C154.986 459.338 154.304 459.515 153.607 459.564V459.614C155.214 459.61 156.773 460.164 158.014 461.18C158.627 461.693 159.119 462.333 159.458 463.055C159.832 463.876 160.017 464.771 159.999 465.673C159.999 467.49 159.526 469.057 158.58 470.372C157.582 471.73 156.224 472.786 154.66 473.422C152.993 474.139 151.077 474.499 148.912 474.5C146.266 474.5 143.939 473.926 141.93 472.779C139.921 471.631 138.448 469.877 137.51 467.516L142.561 465.308C142.939 466.846 143.651 468.034 144.699 468.873C145.747 469.711 147.15 470.131 148.908 470.131C149.959 470.16 151.004 469.968 151.974 469.567C152.765 469.231 153.445 468.68 153.934 467.975C154.406 467.259 154.649 466.417 154.63 465.56C154.63 464.125 154.175 463.098 153.264 462.48C152.354 461.862 150.951 461.554 149.056 461.556C148.775 461.556 148.466 461.564 148.127 461.581C147.782 461.6 147.439 461.625 147.096 461.658V457.708C147.352 457.742 147.61 457.76 147.869 457.761H148.59C150.414 457.761 151.763 457.411 152.637 456.712C153.511 456.013 153.949 454.944 153.951 453.502C153.951 452.168 153.521 451.132 152.663 450.395C151.804 449.659 150.59 449.29 149.02 449.29C147.403 449.29 146.141 449.65 145.232 450.368C144.323 451.086 143.73 452.113 143.453 453.448L138.506 451.651C138.918 450.271 139.661 449.011 140.671 447.98C141.714 446.942 142.984 446.16 144.381 445.695C145.94 445.168 147.576 444.908 149.222 444.925" fill="white"/>
</g>
<g filter="url(#filter4_d_1_4)">
<path d="M176.923 474H184.706L188.189 458.262C188.662 455.811 189.135 453.317 189.565 450.909H189.737C190.124 453.317 190.554 455.811 191.113 458.262L194.639 474H202.594L208.485 442.18H202.465L199.885 457.703C199.455 461.057 198.939 464.454 198.509 467.894H198.294C197.563 464.454 196.961 461.014 196.273 457.703L192.575 442.18H187.114L183.459 457.703C182.771 461.057 182.083 464.454 181.438 467.894H181.266C180.75 464.454 180.277 461.057 179.761 457.703L177.267 442.18H170.774L176.923 474ZM216.893 474.602C219.645 474.602 222.053 473.269 224.16 471.463H224.332L224.805 474H229.965V459.982C229.965 452.973 226.826 449.361 220.72 449.361C216.893 449.361 213.496 450.78 210.658 452.5L212.937 456.714C215.13 455.381 217.323 454.435 219.559 454.435C222.526 454.435 223.515 456.198 223.644 458.563C213.969 459.638 209.798 462.347 209.798 467.464C209.798 471.592 212.593 474.602 216.893 474.602ZM218.957 469.657C217.108 469.657 215.818 468.84 215.818 466.991C215.818 464.798 217.753 463.207 223.644 462.476V467.335C222.096 468.84 220.763 469.657 218.957 469.657ZM241.481 474.602C242.986 474.602 243.975 474.344 244.706 474.086L243.932 469.399C243.502 469.485 243.33 469.485 243.115 469.485C242.513 469.485 241.868 469.012 241.868 467.507V439.729H235.547V467.249C235.547 471.721 237.052 474.602 241.481 474.602ZM254.185 474.602C255.69 474.602 256.679 474.344 257.41 474.086L256.636 469.399C256.206 469.485 256.034 469.485 255.819 469.485C255.217 469.485 254.572 469.012 254.572 467.507V439.729H248.251V467.249C248.251 471.721 249.756 474.602 254.185 474.602ZM271.446 474.602C274.413 474.602 277.423 473.613 279.788 471.979L277.681 468.066C275.918 469.141 274.198 469.743 272.263 469.743C268.694 469.743 266.114 467.722 265.555 463.766H280.433C280.562 463.164 280.691 462.046 280.691 460.842C280.691 454.177 277.294 449.361 270.629 449.361C264.953 449.361 259.449 454.177 259.449 462.003C259.449 469.958 264.695 474.602 271.446 474.602ZM265.469 459.552C265.985 456.026 268.221 454.22 270.758 454.22C273.854 454.22 275.316 456.284 275.316 459.552H265.469ZM293.138 474.602C295.288 474.602 296.965 474.129 298.255 473.699L297.223 469.098C296.535 469.356 295.632 469.657 294.815 469.657C292.708 469.657 291.547 468.367 291.547 465.615V454.908H297.524V449.963H291.547V443.427H286.301L285.613 449.963L281.872 450.221V454.908H285.226V465.615C285.226 470.99 287.419 474.602 293.138 474.602Z" fill="white"/>
</g>
<defs>
<filter id="filter0_d_1_4" x="85" y="436.662" width="20.9769" height="47.7495" filterUnits="userSpaceOnUse" color-interpolation-filters="sRGB">
<feFlood flood-opacity="0" result="BackgroundImageFix"/>
<feColorMatrix in="SourceAlpha" type="matrix" values="0 0 0 0 0 0 0 0 0 0 0 0 0 0 0 0 0 0 127 0" result="hardAlpha"/>
<feOffset dy="5"/>
<feGaussianBlur stdDeviation="2.5"/>
<feComposite in2="hardAlpha" operator="out"/>
<feColorMatrix type="matrix" values="0 0 0 0 0 0 0 0 0 0 0 0 0 0 0 0 0 0 0.2 0"/>
<feBlend mode="normal" in2="BackgroundImageFix" result="effect1_dropShadow_1_4"/>
<feBlend mode="normal" in="SourceGraphic" in2="effect1_dropShadow_1_4" result="shape"/>
</filter>
<filter id="filter1_d_1_4" x="100.493" y="437.279" width="17.3699" height="46.8103" filterUnits="userSpaceOnUse" color-interpolation-filters="sRGB">
<feFlood flood-opacity="0" result="BackgroundImageFix"/>
<feColorMatrix in="SourceAlpha" type="matrix" values="0 0 0 0 0 0 0 0 0 0 0 0 0 0 0 0 0 0 127 0" result="hardAlpha"/>
<feOffset dy="5"/>
<feGaussianBlur stdDeviation="2.5"/>
<feComposite in2="hardAlpha" operator="out"/>
<feColorMatrix type="matrix" values="0 0 0 0 0 0 0 0 0 0 0 0 0 0 0 0 0 0 0.2 0"/>
<feBlend mode="normal" in2="BackgroundImageFix" result="effect1_dropShadow_1_4"/>
<feBlend mode="normal" in="SourceGraphic" in2="effect1_dropShadow_1_4" result="shape"/>
</filter>
<filter id="filter2_d_1_4" x="112.667" y="436.5" width="26.3917" height="47.589" filterUnits="userSpaceOnUse" color-interpolation-filters="sRGB">
<feFlood flood-opacity="0" result="BackgroundImageFix"/>
<feColorMatrix in="SourceAlpha" type="matrix" values="0 0 0 0 0 0 0 0 0 0 0 0 0 0 0 0 0 0 127 0" result="hardAlpha"/>
<feOffset dy="5"/>
<feGaussianBlur stdDeviation="2.5"/>
<feComposite in2="hardAlpha" operator="out"/>
<feColorMatrix type="matrix" values="0 0 0 0 0 0 0 0 0 0 0 0 0 0 0 0 0 0 0.2 0"/>
<feBlend mode="normal" in2="BackgroundImageFix" result="effect1_dropShadow_1_4"/>
<feBlend mode="normal" in="SourceGraphic" in2="effect1_dropShadow_1_4" result="shape"/>
</filter>
<filter id="filter3_d_1_4" x="132.51" y="444.923" width="32.4896" height="39.5769" filterUnits="userSpaceOnUse" color-interpolation-filters="sRGB">
<feFlood flood-opacity="0" result="BackgroundImageFix"/>
<feColorMatrix in="SourceAlpha" type="matrix" values="0 0 0 0 0 0 0 0 0 0 0 0 0 0 0 0 0 0 127 0" result="hardAlpha"/>
<feOffset dy="5"/>
<feGaussianBlur stdDeviation="2.5"/>
<feComposite in2="hardAlpha" operator="out"/>
<feColorMatrix type="matrix" values="0 0 0 0 0 0 0 0 0 0 0 0 0 0 0 0 0 0 0.2 0"/>
<feBlend mode="normal" in2="BackgroundImageFix" result="effect1_dropShadow_1_4"/>
<feBlend mode="normal" in="SourceGraphic" in2="effect1_dropShadow_1_4" result="shape"/>
</filter>
<filter id="filter4_d_1_4" x="165.774" y="439.729" width="137.481" height="44.873" filterUnits="userSpaceOnUse" color-interpolation-filters="sRGB">
<feFlood flood-opacity="0" result="BackgroundImageFix"/>
<feColorMatrix in="SourceAlpha" type="matrix" values="0 0 0 0 0 0 0 0 0 0 0 0 0 0 0 0 0 0 127 0" result="hardAlpha"/>
<feOffset dy="5"/>
<feGaussianBlur stdDeviation="2.5"/>
<feComposite in2="hardAlpha" operator="out"/>
<feColorMatrix type="matrix" values="0 0 0 0 0 0 0 0 0 0 0 0 0 0 0 0 0 0 0.2 0"/>
<feBlend mode="normal" in2="BackgroundImageFix" result="effect1_dropShadow_1_4"/>
<feBlend mode="normal" in="SourceGraphic" in2="effect1_dropShadow_1_4" result="shape"/>
</filter>
<radialGradient id="paint0_radial_1_4" cx="0" cy="0" r="1" gradientUnits="userSpaceOnUse" gradientTransform="rotate(65.2377) scale(938.272 479.895)">
<stop stop-color="#79A5C6"/>
<stop offset="0.616783" stop-color="#2A4874"/>
</radialGradient>
</defs>
</svg>
