<svg width="30" height="30" viewBox="0 0 30 30" fill="none" xmlns="http://www.w3.org/2000/svg">
<rect width="30" height="30" rx="7" fill="#1DA1F2"/>
<path d="M12.2896 24C19.8368 24 23.9648 17.8438 23.9648 12.5052C23.9648 12.3303 23.9648 12.1562 23.9528 11.9829C24.7559 11.4111 25.4491 10.7029 26 9.89176C25.2512 10.2186 24.4567 10.4329 23.6432 10.5274C24.4998 10.0225 25.141 9.22842 25.4472 8.29285C24.6417 8.76347 23.7605 9.09511 22.8416 9.27346C22.2229 8.62577 21.4047 8.19689 20.5135 8.05318C19.6223 7.90947 18.7079 8.05894 17.9116 8.47848C17.1154 8.89801 16.4819 9.56421 16.109 10.374C15.7361 11.1838 15.6446 12.092 15.8488 12.958C14.2174 12.8775 12.6215 12.4601 11.1645 11.7329C9.70763 11.0057 8.4223 9.98501 7.392 8.73708C6.86727 9.62645 6.70656 10.6793 6.94258 11.6812C7.17861 12.6832 7.79362 13.5589 8.6624 14.1301C8.00936 14.1112 7.37054 13.9378 6.8 13.6244V13.6756C6.80026 14.6083 7.12821 15.5123 7.72823 16.2341C8.32824 16.9559 9.16338 17.4512 10.092 17.6359C9.4879 17.7981 8.85406 17.8218 8.2392 17.7052C8.50151 18.5078 9.01202 19.2098 9.69937 19.7128C10.3867 20.2158 11.2165 20.4948 12.0728 20.5107C11.222 21.1691 10.2478 21.6559 9.20573 21.9433C8.1637 22.2306 7.07435 22.3128 6 22.1853C7.87653 23.3709 10.0599 23.9997 12.2896 23.9969" fill="white"/>
</svg>
