<svg width="30" height="30" viewBox="0 0 30 30" fill="none" xmlns="http://www.w3.org/2000/svg">
<rect width="30" height="30" rx="7" fill="#444A4F"/>
<path d="M15.4125 9.87222C16.6145 9.85187 17.7986 10.1669 18.8334 10.7824C19.8545 11.4094 20.6728 12.3207 21.1894 13.4059C21.7816 14.6591 22.0734 16.0344 22.0413 17.4215C22.0752 18.8173 21.7834 20.2018 21.1894 21.4638C20.6728 22.549 19.8545 23.4603 18.8334 24.0873C17.7986 24.7028 16.6145 25.0179 15.4125 24.9975C14.2016 25.0331 13.0101 24.6867 12.0049 24.007C11.0824 23.3708 10.3909 22.4499 10.0349 21.3835V24.8101H7V5H10.0349V13.4862C10.3909 12.4198 11.0824 11.4989 12.0049 10.8627C13.0101 10.183 14.2016 9.83663 15.4125 9.87222ZM14.4807 12.5493C13.6772 12.5364 12.8855 12.7447 12.1912 13.1516C11.5096 13.5608 10.9561 14.1545 10.5939 14.8649C10.1918 15.6554 9.99054 16.5337 10.0083 17.4215C9.98739 18.3138 10.1887 19.1973 10.5939 19.9914C10.959 20.6962 11.5121 21.2849 12.1912 21.6914C12.8855 22.0983 13.6772 22.3065 14.4807 22.2937C15.0825 22.3201 15.6831 22.218 16.2429 21.9942C16.8027 21.7704 17.309 21.43 17.7285 20.9953C18.5449 20.1298 18.9531 18.9385 18.9531 17.4215C19.023 16.1194 18.5835 14.8415 17.7285 13.861C17.311 13.4227 16.8054 13.0791 16.2453 12.8529C15.6853 12.6267 15.0837 12.5232 14.4807 12.5493Z" fill="white"/>
</svg>
