<svg width="134" height="134" viewBox="0 0 134 134" fill="none" xmlns="http://www.w3.org/2000/svg">
<g clip-path="url(#clip0_216_4048)">
<path d="M66.5766 0C38.7906 0 30.6642 0.0286644 29.0846 0.159702C23.3824 0.633688 19.8342 1.5315 15.9686 3.45611C12.9895 4.9354 10.6401 6.65014 8.32132 9.05386C4.09844 13.4375 1.53912 18.8305 0.612645 25.2411C0.162204 28.3532 0.0311669 28.9879 0.00454991 44.8844C-0.00568738 50.1832 0.00454991 57.1568 0.00454991 66.5107C0.00454991 94.2742 0.0352618 102.392 0.168347 103.969C0.629025 109.518 1.49919 113.008 3.34191 116.827C6.86353 124.136 13.5894 129.624 21.5131 131.671C24.2567 132.377 27.2869 132.766 31.1771 132.951C32.8253 133.022 49.6247 133.074 66.4343 133.074C83.2439 133.074 100.054 133.053 101.661 132.971C106.165 132.759 108.781 132.408 111.673 131.661C115.602 130.653 119.263 128.8 122.402 126.231C125.54 123.662 128.08 120.438 129.844 116.786C131.651 113.06 132.567 109.436 132.982 104.177C133.072 103.03 133.11 84.7494 133.11 66.4932C133.11 48.234 133.069 29.9871 132.979 28.8405C132.559 23.4966 131.643 19.9033 129.778 16.1053C128.247 12.9962 126.548 10.6744 124.081 8.3004C119.678 4.09492 114.294 1.53559 107.876 0.610143C104.767 0.160725 104.147 0.0276407 88.2387 0H66.5766Z" fill="url(#paint0_radial_216_4048)"/>
<path d="M66.5766 0C38.7906 0 30.6642 0.0286644 29.0846 0.159702C23.3824 0.633688 19.8342 1.5315 15.9686 3.45611C12.9895 4.9354 10.6401 6.65014 8.32132 9.05386C4.09844 13.4375 1.53912 18.8305 0.612645 25.2411C0.162204 28.3532 0.0311669 28.9879 0.00454991 44.8844C-0.00568738 50.1832 0.00454991 57.1568 0.00454991 66.5107C0.00454991 94.2742 0.0352618 102.392 0.168347 103.969C0.629025 109.518 1.49919 113.008 3.34191 116.827C6.86353 124.136 13.5894 129.624 21.5131 131.671C24.2567 132.377 27.2869 132.766 31.1771 132.951C32.8253 133.022 49.6247 133.074 66.4343 133.074C83.2439 133.074 100.054 133.053 101.661 132.971C106.165 132.759 108.781 132.408 111.673 131.661C115.602 130.653 119.263 128.8 122.402 126.231C125.54 123.662 128.08 120.438 129.844 116.786C131.651 113.06 132.567 109.436 132.982 104.177C133.072 103.03 133.11 84.7494 133.11 66.4932C133.11 48.234 133.069 29.9871 132.979 28.8405C132.559 23.4966 131.643 19.9033 129.778 16.1053C128.247 12.9962 126.548 10.6744 124.081 8.3004C119.678 4.09492 114.294 1.53559 107.876 0.610143C104.767 0.160725 104.147 0.0276407 88.2387 0H66.5766Z" fill="url(#paint1_radial_216_4048)"/>
<path d="M67.0029 27C56.1395 27 54.7761 27.0475 50.5094 27.2417C46.251 27.4367 43.3443 28.1108 40.801 29.1C38.1701 30.1217 35.9384 31.4883 33.7151 33.7125C31.49 35.9358 30.1234 38.1675 29.0984 40.7975C28.1067 43.3417 27.4317 46.2492 27.24 50.5058C27.05 54.7725 27 56.1367 27 67C27 77.8633 27.0483 79.2225 27.2417 83.4892C27.4375 87.7475 28.1117 90.6542 29.1 93.1975C30.1225 95.8283 31.4892 98.06 33.7134 100.283C35.9359 102.508 38.1676 103.878 40.7968 104.9C43.3418 105.889 46.2494 106.563 50.5069 106.758C54.7736 106.952 56.1361 107 66.9988 107C77.863 107 79.2222 106.952 83.4889 106.758C87.7473 106.563 90.6573 105.889 93.2024 104.9C95.8324 103.878 98.0607 102.508 100.283 100.283C102.508 98.06 103.875 95.8283 104.9 93.1983C105.883 90.6542 106.558 87.7467 106.758 83.49C106.95 79.2233 107 77.8633 107 67C107 56.1367 106.95 54.7733 106.758 50.5067C106.558 46.2483 105.883 43.3417 104.9 40.7983C103.875 38.1675 102.508 35.9358 100.283 33.7125C98.0582 31.4875 95.8332 30.1208 93.1999 29.1C90.6498 28.1108 87.7415 27.4367 83.4831 27.2417C79.2164 27.0475 77.858 27 66.9912 27H67.0029ZM63.4145 34.2083C64.4796 34.2067 65.6679 34.2083 67.0029 34.2083C77.683 34.2083 78.9489 34.2467 83.1664 34.4383C87.0665 34.6167 89.1831 35.2683 90.5932 35.8158C92.4598 36.5408 93.7907 37.4075 95.1899 38.8075C96.5899 40.2075 97.4566 41.5408 98.1832 43.4075C98.7307 44.8158 99.3833 46.9325 99.5608 50.8325C99.7524 55.0492 99.7941 56.3158 99.7941 66.9908C99.7941 77.6658 99.7524 78.9325 99.5608 83.1492C99.3824 87.0492 98.7307 89.1658 98.1832 90.5742C97.4582 92.4408 96.5899 93.77 95.1899 95.1692C93.7899 96.5692 92.4607 97.4358 90.5932 98.1608C89.1848 98.7108 87.0665 99.3608 83.1664 99.5392C78.9497 99.7308 77.683 99.7725 67.0029 99.7725C56.322 99.7725 55.0561 99.7308 50.8394 99.5392C46.9394 99.3592 44.8227 98.7075 43.4118 98.16C41.5452 97.435 40.2118 96.5683 38.8118 95.1683C37.4118 93.7683 36.5451 92.4383 35.8184 90.5708C35.2709 89.1625 34.6184 87.0458 34.4409 83.1458C34.2492 78.9292 34.2109 77.6625 34.2109 66.9808C34.2109 56.2992 34.2492 55.0392 34.4409 50.8225C34.6192 46.9225 35.2709 44.8058 35.8184 43.3958C36.5434 41.5292 37.4118 40.1958 38.8118 38.7958C40.2118 37.3958 41.5452 36.5292 43.4118 35.8025C44.8219 35.2525 46.9394 34.6025 50.8394 34.4233C54.5295 34.2567 55.9595 34.2067 63.4145 34.1983V34.2083ZM88.3548 40.85C87.4054 40.85 86.4773 41.1316 85.6879 41.6591C84.8985 42.1866 84.2832 42.9363 83.92 43.8135C83.5567 44.6907 83.4618 45.6559 83.6471 46.587C83.8325 47.5182 84.2898 48.3735 84.9612 49.0447C85.6327 49.7159 86.4882 50.173 87.4194 50.358C88.3506 50.543 89.3158 50.4477 90.1929 50.0841C91.0699 49.7206 91.8195 49.1051 92.3467 48.3155C92.8739 47.5259 93.1552 46.5978 93.1549 45.6483C93.1549 42.9983 91.0048 40.8483 88.3548 40.8483V40.85ZM67.0029 46.4583C55.6586 46.4583 46.461 55.6558 46.461 67C46.461 78.3442 55.6586 87.5375 67.0029 87.5375C78.3472 87.5375 87.5423 78.3442 87.5423 67C87.5423 55.6558 78.3464 46.4583 67.0021 46.4583H67.0029ZM67.0029 53.6667C74.3663 53.6667 80.3364 59.6358 80.3364 67C80.3364 74.3633 74.3663 80.3333 67.0029 80.3333C59.6387 80.3333 53.6694 74.3633 53.6694 67C53.6694 59.6358 59.6387 53.6667 67.0029 53.6667V53.6667Z" fill="white"/>
</g>
<defs>
<radialGradient id="paint0_radial_216_4048" cx="0" cy="0" r="1" gradientUnits="userSpaceOnUse" gradientTransform="translate(35.3575 143.323) rotate(-90) scale(131.886 122.697)">
<stop stop-color="#FFDD55"/>
<stop offset="0.1" stop-color="#FFDD55"/>
<stop offset="0.5" stop-color="#FF543E"/>
<stop offset="1" stop-color="#C837AB"/>
</radialGradient>
<radialGradient id="paint1_radial_216_4048" cx="0" cy="0" r="1" gradientUnits="userSpaceOnUse" gradientTransform="translate(-22.2966 9.58639) rotate(78.6776) scale(58.9541 243.072)">
<stop stop-color="#3771C8"/>
<stop offset="0.128" stop-color="#3771C8"/>
<stop offset="1" stop-color="#6600FF" stop-opacity="0"/>
</radialGradient>
<clipPath id="clip0_216_4048">
<rect width="133.11" height="133.074" rx="66.5368" fill="white"/>
</clipPath>
</defs>
</svg>
