<svg width="30" height="30" viewBox="0 0 30 30" fill="none" xmlns="http://www.w3.org/2000/svg">
<g clip-path="url(#clip0_519_1588)">
<rect width="30" height="30" rx="7" fill="#CA3E8A"/>
<path d="M15.0049 0C8.74254 0 6.91103 0.00646208 6.55502 0.036003C5.26988 0.142858 4.47019 0.34526 3.59896 0.779143C2.92755 1.11263 2.39804 1.4992 1.87544 2.0411C0.923698 3.02933 0.346884 4.24513 0.138077 5.69033C0.0365572 6.39192 0.00702432 6.53501 0.00102545 10.1187C-0.00128181 11.3133 0.00102545 12.8854 0.00102545 14.9941C0.00102545 21.2531 0.00794723 23.0833 0.0379416 23.4387C0.141768 24.6895 0.337885 25.4765 0.753192 26.3374C1.54689 27.9852 3.06276 29.2222 4.84858 29.6838C5.46692 29.8431 6.14987 29.9308 7.02663 29.9723C7.3981 29.9885 11.1843 30 14.9728 30C18.7613 30 22.5499 29.9954 22.9121 29.9769C23.9273 29.9291 24.5168 29.85 25.1686 29.6815C26.0541 29.4544 26.8793 29.0366 27.5867 28.4574C28.294 27.8782 28.8665 27.1516 29.264 26.3282C29.6712 25.4881 29.8777 24.6711 29.9712 23.4855C29.9915 23.227 30 19.1058 30 14.9902C30 10.8738 29.9908 6.76026 29.9705 6.50178C29.8759 5.29706 29.6694 4.48699 29.249 3.63077C28.9041 2.92986 28.521 2.40643 27.965 1.87124C26.9729 0.923155 25.7593 0.346183 24.3128 0.13755C23.6121 0.0362338 23.4725 0.0062313 19.8871 0H15.0049Z" fill="url(#paint0_radial_519_1588)"/>
<path d="M15.0049 0C8.74254 0 6.91103 0.00646208 6.55502 0.036003C5.26988 0.142858 4.47019 0.34526 3.59896 0.779143C2.92755 1.11263 2.39804 1.4992 1.87544 2.0411C0.923698 3.02933 0.346884 4.24513 0.138077 5.69033C0.0365572 6.39192 0.00702432 6.53501 0.00102545 10.1187C-0.00128181 11.3133 0.00102545 12.8854 0.00102545 14.9941C0.00102545 21.2531 0.00794723 23.0833 0.0379416 23.4387C0.141768 24.6895 0.337885 25.4765 0.753192 26.3374C1.54689 27.9852 3.06276 29.2222 4.84858 29.6838C5.46692 29.8431 6.14987 29.9308 7.02663 29.9723C7.3981 29.9885 11.1843 30 14.9728 30C18.7613 30 22.5499 29.9954 22.9121 29.9769C23.9273 29.9291 24.5168 29.85 25.1686 29.6815C26.0541 29.4544 26.8793 29.0366 27.5867 28.4574C28.294 27.8782 28.8665 27.1516 29.264 26.3282C29.6712 25.4881 29.8777 24.6711 29.9712 23.4855C29.9915 23.227 30 19.1058 30 14.9902C30 10.8738 29.9908 6.76026 29.9705 6.50178C29.8759 5.29706 29.6694 4.48699 29.249 3.63077C28.9041 2.92986 28.521 2.40643 27.965 1.87124C26.9729 0.923155 25.7593 0.346183 24.3128 0.13755C23.6121 0.0362338 23.4725 0.0062313 19.8871 0H15.0049Z" fill="url(#paint1_radial_519_1588)"/>
<path d="M15.0059 6.80184C17.6793 6.80184 17.9959 6.81356 19.0473 6.86046C20.0244 6.90346 20.5521 7.06762 20.9038 7.20442C21.369 7.38421 21.7051 7.60309 22.053 7.95095C22.4047 8.30272 22.6197 8.63494 22.7995 9.10006C22.9363 9.45183 23.1004 9.98339 23.1434 10.9566C23.1903 12.0119 23.2021 12.3285 23.2021 14.998C23.2021 17.6715 23.1903 17.9881 23.1434 19.0395C23.1004 20.0166 22.9363 20.5443 22.7995 20.896C22.6197 21.3612 22.4008 21.6973 22.053 22.0451C21.7012 22.3969 21.369 22.6119 20.9038 22.7917C20.5521 22.9285 20.0205 23.0926 19.0473 23.1356C17.992 23.1825 17.6754 23.1943 15.0059 23.1943C12.3324 23.1943 12.0158 23.1825 10.9644 23.1356C9.9873 23.0926 9.45964 22.9285 9.10788 22.7917C8.64276 22.6119 8.30662 22.393 7.95876 22.0451C7.607 21.6934 7.39203 21.3612 7.21223 20.896C7.07543 20.5443 6.91128 20.0127 6.86828 19.0395C6.82138 17.9842 6.80965 17.6676 6.80965 14.998C6.80965 12.3246 6.82138 12.008 6.86828 10.9566C6.91128 9.97948 7.07543 9.45183 7.21223 9.10006C7.39203 8.63494 7.6109 8.29881 7.95876 7.95095C8.31053 7.59918 8.64276 7.38421 9.10788 7.20442C9.45964 7.06762 9.99121 6.90346 10.9644 6.86046C12.0158 6.81356 12.3324 6.80184 15.0059 6.80184ZM15.0059 5C12.2894 5 11.9494 5.01173 10.8824 5.05863C9.81923 5.10553 9.08833 5.27751 8.45515 5.52374C7.79461 5.78171 7.23569 6.12175 6.68067 6.68067C6.12175 7.23568 5.78171 7.79461 5.52374 8.45124C5.27751 9.08833 5.10553 9.81532 5.05863 10.8784C5.01173 11.9494 5 12.2894 5 15.0059C5 17.7223 5.01173 18.0623 5.05863 19.1294C5.10553 20.1925 5.27751 20.9234 5.52374 21.5566C5.78171 22.2171 6.12175 22.776 6.68067 23.3311C7.23569 23.8861 7.79461 24.23 8.45124 24.4841C9.08833 24.7303 9.81532 24.9023 10.8784 24.9492C11.9455 24.9961 12.2855 25.0078 15.002 25.0078C17.7184 25.0078 18.0584 24.9961 19.1255 24.9492C20.1886 24.9023 20.9195 24.7303 21.5527 24.4841C22.2093 24.23 22.7682 23.8861 23.3232 23.3311C23.8782 22.776 24.2222 22.2171 24.4763 21.5605C24.7225 20.9234 24.8945 20.1964 24.9414 19.1333C24.9883 18.0663 25 17.7262 25 15.0098C25 12.2933 24.9883 11.9533 24.9414 10.8863C24.8945 9.82314 24.7225 9.09224 24.4763 8.45906C24.23 7.79461 23.89 7.23568 23.3311 6.68067C22.776 6.12566 22.2171 5.78171 21.5605 5.52765C20.9234 5.28141 20.1964 5.10944 19.1333 5.06254C18.0623 5.01173 17.7223 5 15.0059 5Z" fill="white"/>
<path d="M15.0057 9.86621C12.1681 9.86621 9.86597 12.1683 9.86597 15.0059C9.86597 17.8435 12.1681 20.1457 15.0057 20.1457C17.8433 20.1457 20.1454 17.8435 20.1454 15.0059C20.1454 12.1683 17.8433 9.86621 15.0057 9.86621ZM15.0057 18.3399C13.1648 18.3399 11.6717 16.8469 11.6717 15.0059C11.6717 13.165 13.1648 11.672 15.0057 11.672C16.8466 11.672 18.3397 13.165 18.3397 15.0059C18.3397 16.8469 16.8466 18.3399 15.0057 18.3399Z" fill="white"/>
<path d="M21.5488 9.66281C21.5488 10.3273 21.0094 10.8627 20.3488 10.8627C19.6844 10.8627 19.1489 10.3234 19.1489 9.66281C19.1489 8.99836 19.6883 8.46289 20.3488 8.46289C21.0094 8.46289 21.5488 9.00227 21.5488 9.66281Z" fill="white"/>
</g>
<defs>
<radialGradient id="paint0_radial_519_1588" cx="0" cy="0" r="1" gradientUnits="userSpaceOnUse" gradientTransform="translate(7.96879 32.3106) rotate(-90) scale(29.7322 27.6533)">
<stop stop-color="#FFDD55"/>
<stop offset="0.1" stop-color="#FFDD55"/>
<stop offset="0.5" stop-color="#FF543E"/>
<stop offset="1" stop-color="#C837AB"/>
</radialGradient>
<radialGradient id="paint1_radial_519_1588" cx="0" cy="0" r="1" gradientUnits="userSpaceOnUse" gradientTransform="translate(-5.02516 2.16115) rotate(78.6806) scale(13.2904 54.7837)">
<stop stop-color="#3771C8"/>
<stop offset="0.128" stop-color="#3771C8"/>
<stop offset="1" stop-color="#6600FF" stop-opacity="0"/>
</radialGradient>
<clipPath id="clip0_519_1588">
<rect width="30" height="30" rx="7" fill="white"/>
</clipPath>
</defs>
</svg>
