<svg width="53" height="19" viewBox="0 0 53 19" fill="none" xmlns="http://www.w3.org/2000/svg">
<path d="M9 18.5C13.9706 18.5 18 14.4706 18 9.5C18 4.52944 13.9706 0.5 9 0.5C4.02944 0.5 0 4.52944 0 9.5C0 14.4706 4.02944 18.5 9 18.5Z" fill="#1969FF"/>
<path fill-rule="evenodd" clip-rule="evenodd" d="M9.675 7.75625L11.7 6.575V8.9375L9.675 7.75625ZM11.7 12.8187L9 14.3937L6.3 12.8187V10.0625L9 11.6375L11.7 10.0625V12.8187ZM6.3 6.575L8.325 7.75625L6.3 8.9375V6.575ZM9.3375 8.31875L11.3625 9.5L9.3375 10.6812V8.31875ZM8.6625 10.6812L6.6375 9.5L8.6625 8.31875V10.6812ZM11.3625 6.0125L9 7.3625L6.6375 6.0125L9 4.60625L11.3625 6.0125ZM5.625 5.7875V13.1562L9 15.0687L12.375 13.1562V5.7875L9 3.875L5.625 5.7875Z" fill="white"/>
<path fill-rule="evenodd" clip-rule="evenodd" d="M22 0.5C26.9709 0.5 31 4.52909 31 9.5C31 14.4709 26.9709 18.5 22 18.5C17.0291 18.5 13 14.4709 13 9.5C13 4.52909 17.0291 0.5 22 0.5Z" fill="#F0B90B"/>
<path d="M17.9464 9.50001L17.9529 11.8798L19.975 13.0697V14.463L16.7695 12.5829V8.80409L17.9464 9.50001ZM17.9464 7.1202V8.50698L16.7687 7.81034V6.42356L17.9464 5.72693L19.1298 6.42356L17.9464 7.1202ZM20.8195 6.42356L21.9971 5.72693L23.1805 6.42356L21.9971 7.1202L20.8195 6.42356Z" fill="white"/>
<path d="M18.7974 11.3865V9.99328L19.975 10.6899V12.0767L18.7974 11.3865ZM20.8195 13.5688L21.9971 14.2654L23.1805 13.5688V14.9555L21.9971 15.6522L20.8195 14.9555V13.5688ZM24.8695 6.42356L26.0471 5.72693L27.2305 6.42356V7.81034L26.0471 8.50698V7.1202L24.8695 6.42356ZM26.0471 11.8798L26.0536 9.50001L27.2313 8.80337V12.5822L24.0257 14.4623V13.069L26.0471 11.8798Z" fill="white"/>
<path d="M25.2027 11.3866L24.025 12.0767V10.6899L25.2027 9.99329V11.3866Z" fill="white"/>
<path d="M25.2027 7.6134L25.2091 9.00667L23.1813 10.1966V12.5822L22.0036 13.2723L20.826 12.5822V10.1966L18.7981 9.00667V7.6134L19.9808 6.91677L21.9964 8.11244L24.0243 6.91677L25.2077 7.6134H25.2027ZM18.7974 5.23432L21.9971 3.34778L25.2027 5.23432L24.025 5.93095L21.9971 4.73528L19.975 5.93095L18.7974 5.23432Z" fill="white"/>
<circle cx="35" cy="9.5" r="9" fill="#8247E5"/>
<path d="M37.8276 7.6675C37.6248 7.55558 37.3642 7.55558 37.1325 7.6675L35.5106 8.59077L34.41 9.17831L32.8171 10.1016C32.6144 10.2135 32.3537 10.2135 32.1221 10.1016L30.8767 9.37415C30.674 9.26224 30.5291 9.03842 30.5291 8.78661V7.38772C30.5291 7.16389 30.645 6.94007 30.8767 6.80018L32.1221 6.10073C32.3248 5.98882 32.5854 5.98882 32.8171 6.10073L34.0625 6.82816C34.2652 6.94007 34.41 7.16389 34.41 7.41569V8.33897L35.5106 7.72345V6.7722C35.5106 6.54838 35.3948 6.32455 35.1631 6.18466L32.8461 4.8697C32.6434 4.75779 32.3827 4.75779 32.151 4.8697L29.7761 6.21264C29.5444 6.32455 29.4286 6.54838 29.4286 6.7722V9.40213C29.4286 9.62595 29.5444 9.84978 29.7761 9.98967L32.1221 11.3046C32.3248 11.4165 32.5854 11.4165 32.8171 11.3046L34.41 10.4093L35.5106 9.79382L37.1035 8.89853C37.3062 8.78661 37.5669 8.78661 37.7986 8.89853L39.044 9.59798C39.2467 9.70989 39.3915 9.93371 39.3915 10.1855V11.5844C39.3915 11.8082 39.2757 12.0321 39.044 12.1719L37.8276 12.8714C37.6248 12.9833 37.3642 12.9833 37.1325 12.8714L35.8871 12.1719C35.6844 12.06 35.5396 11.8362 35.5396 11.5844V10.6891L34.439 11.3046V12.2279C34.439 12.4517 34.5549 12.6756 34.7866 12.8154L37.1325 14.1304C37.3352 14.2423 37.5959 14.2423 37.8276 14.1304L40.1735 12.8154C40.3762 12.7035 40.521 12.4797 40.521 12.2279V9.57C40.521 9.34617 40.4052 9.12235 40.1735 8.98246L37.8276 7.6675Z" fill="white"/>
<path d="M40.4947 13.3742C40.5629 12.3914 40.5434 11.3806 40.6652 10.3744C40.7333 9.82687 40.855 9.284 40.9037 8.73645C40.967 7.98767 40.8891 7.23889 40.8696 6.48543C40.8648 6.26548 40.8404 6.04553 40.8989 5.82557C40.9281 5.71326 40.9719 5.59626 41.0936 5.57286C41.303 5.52606 41.2446 5.41374 41.2007 5.29207C41.152 5.15635 41.1082 5.02063 41.0547 4.8896C40.7625 4.20166 41.0108 3.58391 41.3663 3.00361C41.6681 2.50754 42.0625 2.06295 42.4764 1.64645C42.9389 1.17846 43.5135 0.944464 44.1902 0.935104C44.3168 0.935104 44.4434 0.930425 44.5749 0.921065C44.6382 0.916385 44.7015 0.916385 44.7696 0.911705C44.8281 0.907025 44.8914 0.911705 44.9498 0.902345C44.9693 0.897665 44.9887 0.892986 45.0082 0.888306C45.0423 0.888306 45.0764 0.897665 45.1056 0.897665C45.1786 0.907025 45.2468 0.916385 45.3198 0.930425C45.461 0.953824 45.6022 0.977223 45.7434 1.0053C46.0258 1.05678 46.3034 1.1223 46.5809 1.1925C46.7318 1.22994 46.8828 1.27206 47.024 1.34225C47.282 1.47797 47.467 1.70728 47.7153 1.85704C47.8858 1.96 48.0756 2.02084 48.2314 2.14251C48.4067 2.27823 48.5187 2.4701 48.6258 2.66198C48.7427 2.86789 48.8595 3.07381 48.9374 3.29844C48.9569 3.3546 48.9764 3.41544 48.991 3.4716C49.0494 3.71027 49.0786 3.95362 49.1079 4.19698C49.1371 4.43565 49.1711 4.679 49.2539 4.90832C49.2734 4.96448 49.2977 5.02063 49.3221 5.07679C49.3318 5.10019 49.3464 5.12359 49.3513 5.14699C49.3513 5.17975 49.3464 5.21251 49.3464 5.24527C49.3416 5.95193 49.2783 6.65391 49.2637 7.36057C49.2393 8.50246 49.1565 9.64435 49.0251 10.7816C49.0007 10.9828 49.0299 11.1793 49.0786 11.3712C49.2198 11.9422 49.2637 12.5131 49.176 13.1028C49.103 13.5988 49.103 14.109 49.0689 14.6144C49.0543 14.839 48.9277 14.9326 48.6989 14.9373C48.4311 14.942 48.1876 14.8343 47.9198 14.8297C47.5449 14.8203 47.1846 14.9045 46.8195 14.942C46.206 14.9981 45.612 14.8905 45.0082 14.8203C44.9011 14.8109 44.7989 14.7641 44.6917 14.7688C44.5798 14.7688 44.4726 14.7735 44.3607 14.7688C44.3071 14.7641 44.2535 14.7641 44.2 14.7501C44.1659 14.7407 44.1416 14.7267 44.1075 14.722C43.9614 14.708 43.8153 14.708 43.6693 14.6986C43.5232 14.6939 43.3771 14.6846 43.2311 14.6799C42.9389 14.6659 42.6419 14.6565 42.3498 14.6471C42.0577 14.6378 41.7607 14.6284 41.4685 14.6191C41.3955 14.6191 41.3225 14.6144 41.2494 14.6144C41.1813 14.6144 41.1034 14.6003 41.0352 14.6097C41.0157 14.6144 40.9962 14.6237 40.9816 14.6284C40.9135 14.6471 40.8307 14.6378 40.7625 14.6237C40.5483 14.5676 40.4947 14.3476 40.4899 14.1604C40.485 14.0341 40.4996 13.9077 40.5045 13.7814C40.4947 13.655 40.4947 13.5286 40.4947 13.3742Z" fill="#6B00FA" stroke="#362745" stroke-width="0.5" stroke-miterlimit="10"/>
<path d="M49.4779 17.3005C49.439 17.5439 49.473 17.82 49.4 18.0821C49.3708 18.185 49.3465 18.2833 49.2296 18.3254C49.1176 18.3629 49.0397 18.3161 48.9862 18.2225C48.9472 18.1569 48.879 18.1616 48.8109 18.1569C48.2607 18.1242 47.7105 18.0914 47.1652 18.0633C45.2858 17.9697 43.4112 17.8761 41.5318 17.7826C41.006 17.7592 40.4802 17.7451 39.9543 17.717C39.8131 17.7077 39.5307 17.717 39.4966 17.5345C39.4869 17.4784 39.4528 17.4316 39.4382 17.3754C39.4041 17.2584 39.3993 17.132 39.3993 17.0104C39.3895 16.7296 39.3847 16.4441 39.3749 16.1633C39.3749 16.1165 39.3749 16.0697 39.37 16.0229C39.37 15.9902 39.3603 15.9714 39.3457 15.948C39.3116 15.8778 39.3408 15.7983 39.3895 15.7421C39.4528 15.6672 39.5405 15.6345 39.633 15.6719C39.9348 15.7796 40.2513 15.7562 40.5581 15.7749C41.9993 15.8544 43.4453 15.9153 44.8914 15.9808C46.206 16.0416 47.5157 16.1072 48.8303 16.1727C49.2832 16.1961 49.4584 16.3739 49.4584 16.8138C49.4584 16.9683 49.4682 17.1227 49.4779 17.3005Z" fill="#4300BF" stroke="#362745" stroke-width="0.5" stroke-miterlimit="10"/>
<path d="M45.2858 14.7969C44.8427 14.7828 44.3948 14.7641 43.9566 14.7033C43.6742 14.6611 43.4015 14.6003 43.1191 14.5629C42.8173 14.5254 42.5057 14.5207 42.2038 14.5161C41.7412 14.5067 41.2689 14.502 40.821 14.6097C40.3731 14.7173 39.9349 14.956 39.6963 15.3397C40.1199 15.6392 40.6749 15.6767 41.2008 15.7047C41.5221 15.7235 41.8435 15.7375 42.1648 15.7562C44.536 15.8826 46.9072 16.0089 49.2783 16.0136C49.2053 15.7983 49.1322 15.5784 49.0543 15.3631C48.9862 15.1712 48.8888 14.9466 48.6551 14.8998C48.5772 14.8858 48.4993 14.8998 48.4214 14.9045C48.2851 14.9045 48.1439 14.8951 48.0075 14.8904C47.4281 14.8717 46.8439 14.8483 46.2645 14.8296C45.9382 14.8203 45.612 14.8062 45.2858 14.7969Z" fill="#6B00FA" stroke="#362745" stroke-width="0.5" stroke-miterlimit="10"/>
<path d="M50.6757 14.4037C50.7487 14.3663 50.8315 14.3288 50.8753 14.2633C50.9191 14.1978 50.924 14.1183 50.9288 14.0434C50.9483 13.7345 50.9678 13.4303 50.9873 13.1214C51.0116 12.7751 51.0311 12.4288 51.0262 12.0825C51.0213 11.7549 50.9873 11.4273 51.0067 11.1044C51.0262 10.8049 51.0895 10.5101 51.1236 10.2106C51.2453 9.15291 50.9873 8.0859 51.036 7.02356C51.0554 6.63046 51.1187 6.23735 51.1431 5.83956C51.2161 4.76787 51.0213 3.67745 50.5831 2.69C50.5442 2.60576 50.5052 2.52153 50.4322 2.46537C50.3348 2.39049 50.2034 2.38113 50.0963 2.32029C49.9453 2.23137 49.8869 2.05354 49.8041 1.8991C49.5996 1.51535 49.2101 1.25328 48.7865 1.1082C48.3629 0.963128 47.915 0.921009 47.4719 0.878891C47.1603 0.850811 46.8487 0.822732 46.5371 0.789973C46.3861 0.775933 46.167 0.822732 46.1914 0.967808C46.6393 1.29072 47.1554 1.52471 47.6277 1.81487C48.1 2.10502 48.5479 2.47473 48.7719 2.97079C48.8693 3.18139 48.918 3.4107 48.9667 3.64002C49.1127 4.2952 49.2539 4.95038 49.288 5.6196C49.3124 6.10631 49.2783 6.5977 49.2442 7.08908C49.2004 7.73023 49.1712 8.37605 49.1419 9.01719C49.1127 9.65833 49.0933 10.3042 49.0835 10.9453C49.0689 11.5911 49.064 12.2323 49.0689 12.8734C49.0689 13.1963 49.0738 13.5192 49.0786 13.8375C49.0786 13.9966 49.0835 14.1604 49.0884 14.3195C49.0933 14.4692 49.0786 14.633 49.0981 14.7875C49.1322 15.0168 49.4 14.984 49.5655 14.9138C49.8674 14.7875 50.1595 14.6377 50.4614 14.4973C50.515 14.4786 50.6221 14.4037 50.6757 14.4037Z" fill="#4300BF" stroke="#362745" stroke-width="0.5" stroke-miterlimit="10"/>
<path d="M49.4049 15.9574C49.4243 15.9902 49.4487 16.0276 49.4876 16.0276C49.512 16.0276 49.5363 16.0136 49.5558 16.0042C49.7798 15.8591 49.9648 15.6626 50.2082 15.5549C50.3738 15.4801 50.5539 15.452 50.7243 15.3958C50.9678 15.3163 51.1869 15.1806 51.406 15.0495C51.4839 15.0027 51.5715 14.9325 51.5569 14.8436C51.552 14.8108 51.5326 14.7828 51.5131 14.7594C51.3914 14.6002 51.2453 14.4645 51.0798 14.3522C51.0457 14.3288 51.0116 14.3101 50.9726 14.3054C50.924 14.3007 50.8753 14.3241 50.8314 14.3429C50.476 14.5113 50.1255 14.6798 49.7749 14.853C49.5996 14.9372 49.4243 15.0261 49.249 15.1104C49.103 15.1806 48.9813 15.232 49.0786 15.4005C49.1906 15.5877 49.3075 15.7702 49.4049 15.9574Z" fill="#100342" stroke="#362745" stroke-width="0.5" stroke-miterlimit="10"/>
<path d="M49.5607 17.9697C49.5655 18.0025 49.5704 18.0399 49.5899 18.0633C49.6434 18.1195 49.7359 18.0867 49.8041 18.0493C50.3932 17.7311 50.9824 17.4128 51.5715 17.0946C51.6299 17.0618 51.6932 17.0291 51.7322 16.9729C51.7711 16.9121 51.776 16.8372 51.7809 16.767C51.8004 16.3879 51.815 16.0089 51.8344 15.6251C51.8393 15.5175 51.8393 15.4005 51.776 15.3162C51.7078 15.2226 51.5764 15.1946 51.4595 15.2086C51.3427 15.2226 51.2356 15.2788 51.1333 15.335C50.661 15.5877 50.1887 15.8357 49.7165 16.0837C49.5607 16.168 49.3708 16.2241 49.3854 16.4207C49.4 16.65 49.4389 16.8793 49.4633 17.104C49.4779 17.249 49.4974 17.3894 49.512 17.5345C49.5266 17.6796 49.5607 17.8293 49.5607 17.9697Z" fill="#100342" stroke="#362745" stroke-width="0.5" stroke-miterlimit="10"/>
<path d="M46.8925 3.28436C46.985 3.35924 46.9753 3.51368 46.8779 3.58387C46.7805 3.65407 46.6247 3.60727 46.5809 3.49964C46.5371 3.392 46.6198 3.25628 46.7367 3.23756C46.7902 3.23288 46.8487 3.24692 46.8925 3.28436Z" fill="#4300BF"/>
<path d="M47.6813 3.94422C47.6764 3.96762 47.6716 3.98634 47.6716 4.00974C47.6764 4.05186 47.7057 4.08462 47.7446 4.09866C47.8469 4.15013 47.9978 4.07526 48.0124 3.96294C48.0221 3.85062 47.8955 3.74299 47.7836 3.77574C47.7738 3.77106 47.7592 3.78042 47.7543 3.78978C47.7105 3.84126 47.7008 3.88806 47.6813 3.94422Z" fill="#4300BF"/>
<path d="M47.1993 4.6041C47.1262 4.6041 47.0532 4.6041 46.985 4.6041C46.9655 4.6041 46.9461 4.6041 46.9315 4.61814C46.9217 4.6275 46.9217 4.64154 46.9169 4.65558C46.9071 4.71174 46.9023 4.76321 46.8974 4.81937C46.8925 4.88489 46.8925 4.96913 46.9509 5.00189C46.9899 5.02061 47.0337 5.01593 47.0727 5.02529C47.1067 5.03465 47.136 5.05337 47.17 5.04869C47.2382 5.04869 47.282 4.97849 47.2966 4.91297C47.3112 4.84277 47.3161 4.77257 47.282 4.70706C47.2479 4.64154 47.1798 4.59474 47.1067 4.6041" fill="#4300BF"/>
<path d="M50.4858 6.63981C50.4371 6.59301 50.3787 6.59769 50.3154 6.61641C50.257 6.63513 50.2229 6.69129 50.2278 6.74745C50.2278 6.79425 50.2618 6.84105 50.2959 6.87381C50.3495 6.92528 50.4469 6.87849 50.4858 6.83169C50.5345 6.78489 50.5345 6.69597 50.4858 6.63981Z" fill="#6B00FA"/>
<path d="M50.145 7.42601C50.1401 7.39793 50.1206 7.35113 50.0963 7.32774C50.0671 7.29966 50.0086 7.3137 49.9746 7.32774C49.9453 7.34177 49.9161 7.36049 49.8918 7.38389C49.8821 7.39325 49.8723 7.39793 49.8674 7.41197C49.8528 7.43537 49.848 7.45877 49.8431 7.48685C49.8431 7.50089 49.8285 7.56641 49.8431 7.57577C49.9015 7.61321 49.9794 7.62257 50.0476 7.59449C50.106 7.56173 50.1547 7.49153 50.145 7.42601Z" fill="#6B00FA"/>
<path d="M41.7558 13.3414C41.6633 13.3414 41.5757 13.3835 41.5319 13.4584C41.488 13.5333 41.5027 13.6409 41.5708 13.6971C41.6439 13.7579 41.8824 13.7533 41.9506 13.6924C42.0188 13.6316 41.9263 13.5239 41.8873 13.435C41.8289 13.4023 41.7656 13.3695 41.7023 13.3414" fill="#4300BF"/>
<path d="M41.3322 11.7924C41.303 11.8673 41.2787 11.9422 41.2641 12.0217C41.2592 12.0358 41.2592 12.0545 41.2689 12.0685C41.2835 12.0919 41.3128 12.0966 41.342 12.1013C41.415 12.106 41.4978 12.106 41.5416 12.0545C41.5562 12.0404 41.5659 12.017 41.5708 11.9983C41.5951 11.9234 41.5805 11.8345 41.5124 11.7924C41.4442 11.7503 41.3371 11.7737 41.3225 11.8486" fill="#4300BF"/>
<path d="M42.418 12.5598C42.4082 12.5364 42.3888 12.499 42.3644 12.4896C42.3498 12.4849 42.3255 12.4896 42.306 12.4896C42.2865 12.4896 42.2719 12.4896 42.2524 12.4896C42.2378 12.4896 42.2232 12.4896 42.2135 12.4943C42.194 12.5037 42.1745 12.5317 42.1599 12.5458C42.1502 12.5505 42.1453 12.5551 42.1404 12.5645C42.1258 12.5879 42.121 12.6207 42.121 12.6487C42.121 12.6581 42.121 12.733 42.1307 12.733C42.1794 12.7423 42.3498 12.7564 42.3985 12.7657C42.4277 12.7704 42.3449 12.7798 42.3693 12.7611C42.379 12.7517 42.3888 12.7423 42.3985 12.7283C42.4228 12.6721 42.4375 12.6113 42.418 12.5598Z" fill="#4300BF"/>
<path d="M47.1895 17.586C47.282 17.6515 47.433 17.6328 47.4963 17.5392C47.5449 17.469 47.5352 17.3801 47.5206 17.2959C47.5157 17.2725 47.5109 17.2491 47.4963 17.235C47.4816 17.221 47.4573 17.2163 47.433 17.2163C47.3648 17.2069 47.3064 17.2116 47.2382 17.2116C47.2285 17.2116 47.2187 17.2116 47.209 17.2116C47.1846 17.221 47.1603 17.2397 47.1408 17.2584C47.0921 17.3052 47.0727 17.3614 47.0873 17.4269C47.1019 17.4877 47.136 17.5486 47.1895 17.586Z" fill="#6B00FA"/>
<path d="M46.5712 16.6735C46.503 16.7016 46.4689 16.7811 46.4933 16.8466C46.5322 16.8794 46.5809 16.9075 46.6345 16.9122C46.688 16.9168 46.7464 16.8841 46.7562 16.8326C46.7659 16.7905 46.7416 16.753 46.7172 16.7156C46.6929 16.6782 46.6637 16.6407 46.6198 16.6267C46.576 16.6173 46.5176 16.6548 46.5371 16.6969" fill="#6B00FA"/>
<path d="M49.9843 13.4256C49.9064 13.4022 49.8188 13.435 49.7652 13.4911C49.7116 13.552 49.6873 13.6315 49.6824 13.7064C49.6776 13.7485 49.6824 13.7906 49.7068 13.8234C49.7408 13.8655 49.8041 13.8702 49.8577 13.8562C49.9648 13.8374 50.0622 13.7626 50.0914 13.6643C50.1206 13.566 50.0525 13.4397 49.9453 13.4256C50.0232 13.4163 49.9307 13.3741 49.9843 13.4256Z" fill="#6B00FA"/>
<path d="M50.33 12.2417C50.2277 12.2604 50.1304 12.3306 50.1206 12.4289C50.1109 12.5272 50.2277 12.6208 50.3203 12.574C50.4128 12.4897 50.403 12.3259 50.3056 12.2464" fill="#6B00FA"/>
<path d="M47.1311 2.7134C47.0727 2.72744 47.0483 2.80232 47.0727 2.8538C47.097 2.90528 47.1603 2.93336 47.2236 2.93336C47.2528 2.93336 47.2869 2.924 47.3015 2.9006C47.3064 2.88656 47.3112 2.87252 47.3112 2.85848C47.3112 2.807 47.3112 2.75084 47.2966 2.69936C47.2431 2.69468 47.1895 2.69468 47.136 2.70404" fill="#100342"/>
<path d="M46.5955 3.54171C46.5517 3.54639 46.503 3.55107 46.4641 3.56979C46.4251 3.58851 46.391 3.63063 46.3959 3.67275C46.4008 3.72891 46.4641 3.76634 46.5176 3.78974C46.5615 3.80846 46.6199 3.82718 46.6588 3.79442C46.6978 3.76166 46.6832 3.70551 46.7124 3.66339C46.7221 3.64935 46.7367 3.63531 46.7416 3.61659C46.7465 3.58383 46.7075 3.56043 46.6734 3.55575C46.6394 3.55107 46.6004 3.54639 46.5858 3.51831" fill="#100342"/>
<path d="M45.8701 2.53088C45.8262 2.55428 45.7775 2.58704 45.7532 2.62916C45.7045 2.70872 45.7435 2.83508 45.836 2.8538C45.9285 2.87251 46.0113 2.79296 46.0599 2.7134C46.0648 2.70404 46.0697 2.69468 46.0697 2.68532C46.0697 2.67596 46.0599 2.6666 46.0502 2.66192C45.9966 2.62448 45.9431 2.58704 45.8895 2.55428C45.8749 2.54492 45.8506 2.53556 45.8408 2.55428" fill="#100342"/>
<path d="M42.1161 3.35458C42.0918 3.41074 42.082 3.47626 42.0869 3.54177C42.1307 3.56517 42.1843 3.56049 42.2281 3.54177C42.2719 3.51838 42.306 3.48562 42.3352 3.4435C42.3401 3.43414 42.3498 3.42478 42.3498 3.41074C42.3498 3.39202 42.3401 3.3733 42.3255 3.35926C42.2963 3.3265 42.2573 3.3031 42.2135 3.29842C42.1697 3.29374 42.121 3.3265 42.1161 3.36394" fill="#100342"/>
<path d="M41.897 4.11734C41.8581 4.13606 41.8532 4.19689 41.8776 4.22965C41.9068 4.26241 41.9555 4.27645 41.9993 4.27177C42.0285 4.26709 42.0626 4.25773 42.0723 4.23433C42.0918 4.19689 42.0626 4.15478 42.0334 4.1267C42.0041 4.09394 41.9603 4.0565 41.9116 4.07054" fill="#100342"/>
<path d="M43.8689 1.71191C43.8494 1.75871 43.8494 1.81486 43.864 1.86634C43.8884 1.90378 43.9468 1.91314 43.9858 1.88974C44.0247 1.86634 44.0442 1.81954 44.0393 1.77275C44.0296 1.72127 43.9712 1.66979 43.9225 1.69319" fill="#100342"/>
<path d="M48.1438 6.28881C48.1097 6.34497 48.1243 6.42921 48.1827 6.46664C48.2412 6.50408 48.3288 6.48536 48.3629 6.42921C48.3824 6.40113 48.3824 6.35901 48.3726 6.32625C48.3532 6.27945 48.2996 6.24669 48.246 6.24669C48.1925 6.24201 48.1389 6.26541 48.1 6.29817C48.1195 6.30285 48.1341 6.31221 48.1535 6.31689" fill="#100342"/>
<path d="M47.8273 13.1636C47.8225 13.2337 47.7884 13.2993 47.7884 13.3695C47.7884 13.4397 47.8371 13.5192 47.9101 13.5192C47.9734 13.5192 48.0172 13.4631 48.0464 13.4116C48.0708 13.3788 48.0903 13.3414 48.1097 13.3086C48.1243 13.2899 48.1341 13.2665 48.1243 13.2431C48.1195 13.2337 48.1097 13.2244 48.1 13.2197C48.0172 13.1682 47.915 13.1448 47.8127 13.1495" fill="#100342"/>
<path d="M47.8273 13.1636C47.8225 13.2337 47.7884 13.2993 47.7884 13.3695C47.7884 13.4397 47.8371 13.5192 47.9101 13.5192C47.9734 13.5192 48.0172 13.4631 48.0464 13.4116C48.0708 13.3788 48.0903 13.3414 48.1097 13.3086C48.1243 13.2899 48.1341 13.2665 48.1243 13.2431C48.1195 13.2337 48.1097 13.2244 48.1 13.2197C48.0172 13.1682 47.915 13.1448 47.8127 13.1495" stroke="#362745" stroke-width="0.5" stroke-miterlimit="10"/>
<path d="M47.3989 12.3539C47.4232 12.4054 47.4622 12.4569 47.5157 12.4709C47.6082 12.499 47.7153 12.3914 47.6764 12.3071C47.6374 12.2229 47.4816 12.2182 47.4427 12.3071" fill="#100641"/>
<path d="M45.4123 13.6081C45.3783 13.6924 45.4513 13.7953 45.5438 13.8094C45.6363 13.8234 45.7288 13.7485 45.7532 13.6596C45.758 13.6456 45.758 13.6268 45.7483 13.6128C45.7386 13.5988 45.7239 13.5941 45.7045 13.5894C45.6266 13.5707 45.5438 13.552 45.4659 13.5286C45.4562 13.552 45.4464 13.58 45.4415 13.6034" fill="#100641"/>
<path d="M41.7753 10.2293C41.7655 10.2715 41.7509 10.3136 41.7607 10.3557C41.7655 10.3978 41.7947 10.4399 41.8386 10.4493C41.8872 10.4633 41.9408 10.4259 41.9603 10.3791C41.9798 10.3323 41.9798 10.2808 41.9749 10.234C41.9165 10.2247 41.858 10.2153 41.8045 10.2059" fill="#100342"/>
<path d="M41.3127 16.5331C41.2932 16.594 41.2786 16.6735 41.3322 16.7156C41.3906 16.7624 41.4734 16.7203 41.5464 16.7344C41.561 16.6782 41.5659 16.6174 41.5513 16.5612C41.5367 16.505 41.4929 16.4489 41.4344 16.4395C41.376 16.4255 41.3079 16.4723 41.3127 16.5331C41.3225 16.5331 41.3419 16.5331 41.3565 16.5331H41.3127Z" fill="#100641"/>
<path d="M42.4229 16.9402C42.4229 17.0151 42.4229 17.0853 42.4277 17.1602C42.4813 17.1695 42.5397 17.1742 42.5981 17.1836C42.6127 17.1836 42.6322 17.1882 42.6468 17.1789C42.6614 17.1695 42.6663 17.1508 42.6712 17.1321C42.6906 17.0525 42.6906 16.9636 42.6322 16.9028C42.5738 16.8466 42.4472 16.8607 42.4375 16.9402" fill="#100641"/>
<path d="M47.4524 17.0713C47.3989 17.1134 47.3697 17.1883 47.3989 17.2491C47.4281 17.31 47.5157 17.3427 47.5742 17.3006C47.5985 17.2491 47.6229 17.193 47.6131 17.1368C47.6034 17.0807 47.5255 17.0386 47.4768 17.076" fill="#100641"/>
<path d="M50.1206 17.0806C50.1109 17.118 50.106 17.1601 50.1206 17.1976C50.1352 17.235 50.1888 17.2584 50.2228 17.235C50.2374 17.2256 50.2423 17.2116 50.2472 17.1976C50.2667 17.1554 50.2764 17.1133 50.2715 17.0712C50.2667 17.0291 50.2326 16.987 50.1888 16.9823C50.1449 16.9776 50.0963 17.0197 50.1109 17.0572" fill="#100641"/>
<path d="M49.8577 11.4507C49.8479 11.4928 49.8333 11.5349 49.8431 11.5771C49.8528 11.6192 49.8869 11.6613 49.9307 11.6566C49.9989 11.6566 50.0281 11.5771 50.0378 11.5115C50.0475 11.4554 50.0476 11.3805 49.994 11.3571C49.9356 11.3337 49.882 11.3945 49.8479 11.4413" fill="#100641"/>
<path d="M50.3495 4.39351C50.3397 4.43563 50.3349 4.48243 50.3543 4.51987C50.3738 4.55731 50.4274 4.58071 50.4663 4.55731C50.4858 4.54795 50.4955 4.52923 50.5053 4.51051C50.5199 4.47307 50.5345 4.43563 50.5247 4.39819C50.515 4.36075 50.4858 4.32331 50.4468 4.31863C50.4079 4.31395 50.3641 4.35139 50.3738 4.38883" fill="#100342"/>
<path d="M50.0817 5.0206C50.0817 5.07208 50.0817 5.11888 50.0865 5.17036C50.1596 5.17972 50.2326 5.12824 50.2423 5.05804C50.2521 4.98784 50.1936 4.91764 50.1206 4.91296C50.1255 4.94572 50.1157 4.97848 50.1011 5.00656" fill="#100342"/>
<path d="M50.7243 5.13759C50.7049 5.18907 50.6903 5.24523 50.7 5.30139C50.7097 5.35755 50.7682 5.40435 50.8217 5.39499C50.8948 5.38095 50.9094 5.28267 50.9045 5.20779C50.8996 5.15631 50.8948 5.09547 50.8509 5.0674C50.8071 5.03932 50.7243 5.07208 50.7438 5.11887" fill="#100342"/>
<path d="M43.1824 10.4633C43.2652 10.1825 43.1094 9.92977 42.8854 9.67706C42.5397 9.28863 42.2233 8.88148 42.1502 8.33861C41.9896 7.11249 42.7004 5.91444 43.8738 5.47921C45.1057 5.02058 46.469 5.43241 47.2042 6.4807C47.5304 6.94401 47.6959 7.45412 47.6959 8.0157C47.6959 8.53049 47.5255 8.97508 47.1506 9.34479C46.9705 9.51794 46.8195 9.71918 46.6296 9.88297C46.43 10.0514 46.357 10.2433 46.3716 10.4867C46.3813 10.6786 46.357 10.8704 46.3618 11.0623C46.3618 11.0763 46.3618 11.0904 46.3618 11.0997C46.3618 11.1185 46.357 11.1325 46.357 11.1465C46.357 11.1559 46.357 11.2448 46.3618 11.2448C46.3278 11.2448 46.2937 11.2448 46.2645 11.2495C46.2255 11.2495 46.1866 11.2542 46.1476 11.2495C46.0746 11.2401 46.0064 11.2401 45.9334 11.2355C45.9188 11.2355 45.9042 11.2355 45.8847 11.2308C45.8555 11.2308 45.8311 11.2261 45.8019 11.2261C45.7922 11.2261 45.7824 11.2214 45.7678 11.2214C45.7532 11.2214 45.7386 11.2214 45.724 11.2214C45.6705 11.2214 45.612 11.2214 45.5536 11.2214C45.5536 11.1933 45.5487 11.1653 45.5487 11.1372C45.5439 11.081 45.5439 11.0249 45.5439 10.9687C45.5439 10.8611 45.539 10.7534 45.539 10.6458C45.539 10.6411 45.539 10.6364 45.5341 10.6318C45.5293 10.6271 45.5244 10.6271 45.5195 10.6271C45.4027 10.6177 45.2858 10.6271 45.169 10.6411C45.169 10.7066 45.169 10.7721 45.1641 10.8423C45.1641 10.8611 45.1641 10.8798 45.1641 10.8985C45.1641 10.9266 45.1641 10.95 45.1592 10.9781C45.1592 10.9874 45.1544 10.9921 45.1544 10.9968C45.1495 11.0061 45.1495 11.0202 45.1495 11.0295C45.1446 11.081 45.1446 11.1372 45.1544 11.1887C45.1203 11.1887 45.0862 11.1887 45.0472 11.1887C45.0034 11.1887 44.9547 11.1887 44.9109 11.1793C44.8573 11.1699 44.7989 11.1746 44.7454 11.1699C44.7259 11.1699 44.7015 11.1699 44.6821 11.1653C44.6285 11.1653 44.575 11.1559 44.5214 11.1559C44.4922 11.1559 44.4678 11.1559 44.4386 11.1559C44.4338 11.1559 44.3607 11.1606 44.3559 11.1653C44.3559 11.1185 44.3607 11.067 44.3607 11.0202C44.3607 10.9968 44.3607 10.9734 44.3656 10.9453C44.3656 10.9219 44.3705 10.8985 44.3705 10.8751C44.3705 10.7815 44.3705 10.6879 44.3656 10.5896C44.239 10.5662 44.1075 10.5569 43.9761 10.5569C43.9712 10.6645 43.9663 10.7721 43.9566 10.8798C43.9517 10.9313 43.9517 10.9874 43.9469 11.0436C43.9469 11.0576 43.9469 11.0717 43.9469 11.0857C43.9469 11.0951 43.9469 11.1044 43.942 11.1091C43.9371 11.1185 43.9128 11.1185 43.903 11.1185C43.8349 11.1231 43.7618 11.1185 43.6937 11.1138C43.6645 11.1138 43.6304 11.1091 43.6012 11.1091C43.5233 11.1044 43.4454 11.1044 43.3675 11.0997C43.3431 11.0997 43.3139 11.0951 43.2896 11.0951C43.275 11.0904 43.2603 11.0857 43.2409 11.0857C43.236 11.0857 43.1581 11.081 43.1581 11.081C43.1581 11.0763 43.1581 11.0717 43.1581 11.067C43.1581 11.0155 43.1581 10.9593 43.1581 10.9032C43.1581 10.8798 43.1532 10.8564 43.163 10.833C43.1678 10.8236 43.163 10.8143 43.163 10.8049C43.163 10.7815 43.163 10.7581 43.163 10.7347C43.163 10.6739 43.1678 10.6177 43.1678 10.5569C43.1776 10.5569 43.1776 10.5382 43.1824 10.4633ZM44.76 9.60218C44.8038 9.60686 44.8476 9.60686 44.8914 9.61154C44.9596 9.61622 45.0326 9.6209 45.1008 9.63026C45.0765 9.56006 45.0521 9.48986 45.0229 9.42435C45.0132 9.39627 44.9985 9.37287 44.9888 9.34947C44.9791 9.32607 44.9645 9.30735 44.9547 9.28395C44.9499 9.27927 44.9499 9.26991 44.9499 9.26523C44.945 9.24183 44.9353 9.22311 44.9304 9.19971C44.906 9.14355 44.8866 9.08271 44.8622 9.02188C44.8525 8.9938 44.8427 8.9704 44.8281 8.94232C44.8281 8.947 44.8184 8.96104 44.8184 8.96104C44.8135 8.9704 44.8038 8.97976 44.7989 8.98912C44.7356 9.07335 44.6772 9.15759 44.6236 9.24651C44.5944 9.28863 44.5701 9.33543 44.5409 9.38223C44.5263 9.40563 44.5165 9.42902 44.5019 9.44774C44.497 9.4571 44.4922 9.46646 44.4873 9.47582C44.4824 9.49454 44.463 9.51326 44.4484 9.53198C44.4289 9.55538 44.4094 9.57878 44.3948 9.60686C44.3948 9.60686 44.4094 9.60686 44.4143 9.60686C44.4191 9.60686 44.4289 9.60686 44.4338 9.60686C44.4484 9.60686 44.463 9.60686 44.4776 9.60686C44.5068 9.60686 44.5311 9.60686 44.5603 9.60218C44.5701 9.60218 44.5847 9.5975 44.5944 9.5975C44.609 9.5975 44.6236 9.5975 44.6382 9.60218C44.6675 9.60218 44.6918 9.60686 44.721 9.60686C44.7356 9.5975 44.7502 9.5975 44.76 9.60218Z" fill="#362745" stroke="#362745" stroke-width="0.5" stroke-miterlimit="10"/>
<path d="M43.0704 10.3322C43.1483 10.0561 42.9974 9.80809 42.7783 9.56006C42.4375 9.17631 42.1259 8.77852 42.0577 8.24969C41.9019 7.04696 42.5981 5.877 43.7472 5.45113C44.9547 5.00186 46.2888 5.40433 47.0142 6.4339C47.3307 6.88785 47.4963 7.38859 47.5011 7.93614C47.5011 8.44157 47.3356 8.87679 46.9656 9.23714C46.7903 9.4103 46.6442 9.60685 46.4543 9.76129C46.2596 9.92509 46.1865 10.1123 46.2011 10.3556C46.2109 10.5428 46.1865 10.73 46.1914 10.9172C46.1914 10.9313 46.1914 10.9406 46.1914 10.9547C46.1914 10.9687 46.1865 10.9874 46.1865 11.0015C46.1865 11.0108 46.1865 11.0951 46.1914 11.0951C46.1573 11.0951 46.1281 11.0951 46.094 11.0951C46.0551 11.0951 46.0161 11.0997 45.9772 11.0951C45.909 11.0857 45.836 11.0857 45.7678 11.081C45.7532 11.081 45.7386 11.081 45.724 11.0763C45.6948 11.0763 45.6704 11.0717 45.6412 11.0717C45.6315 11.0717 45.6217 11.067 45.612 11.067C45.5974 11.067 45.5828 11.067 45.5682 11.067C45.5146 11.067 45.4562 11.067 45.4026 11.067C45.4026 11.0389 45.3978 11.0155 45.3978 10.9874C45.3929 10.9313 45.3929 10.8798 45.3929 10.8236C45.3929 10.716 45.388 10.613 45.388 10.5054C45.388 10.5007 45.388 10.496 45.3832 10.4914C45.3783 10.4867 45.3734 10.4867 45.3686 10.4867C45.2566 10.4773 45.1397 10.4867 45.0277 10.5007C45.0277 10.5662 45.0277 10.6317 45.0229 10.6973C45.0229 10.716 45.0229 10.7347 45.0229 10.7534C45.0229 10.7768 45.0229 10.8049 45.018 10.833C45.018 10.8423 45.0131 10.847 45.0131 10.8517C45.0083 10.8611 45.0083 10.8751 45.0083 10.8845C45.0034 10.9359 45.0034 10.9874 45.0131 11.0389C44.979 11.0389 44.945 11.0389 44.9109 11.0389C44.8671 11.0389 44.8232 11.0389 44.7794 11.0295C44.7259 11.0202 44.6723 11.0249 44.6139 11.0202C44.5944 11.0202 44.5701 11.0202 44.5506 11.0155C44.497 11.0155 44.4483 11.0061 44.3948 11.0061C44.3656 11.0061 44.3412 11.0061 44.312 11.0061C44.3071 11.0061 44.2341 11.0108 44.2341 11.0155C44.2341 10.9687 44.239 10.9219 44.239 10.8704C44.239 10.847 44.239 10.8236 44.2438 10.8002C44.2438 10.7768 44.2487 10.7534 44.2487 10.73C44.2487 10.6364 44.2487 10.5428 44.2438 10.4492C44.1172 10.4305 43.9907 10.4165 43.8641 10.4165C43.8592 10.5241 43.8543 10.6271 43.8495 10.7347C43.8446 10.7862 43.8446 10.8423 43.8397 10.8938C43.8397 10.9079 43.8397 10.9219 43.8397 10.9359C43.8397 10.9453 43.8397 10.9547 43.8348 10.9593C43.83 10.9687 43.8056 10.9687 43.7959 10.9687C43.7277 10.9734 43.6596 10.9687 43.5914 10.964C43.5622 10.964 43.5281 10.9593 43.4989 10.9593C43.421 10.9547 43.3431 10.9547 43.2701 10.95C43.2457 10.95 43.2214 10.9453 43.1922 10.9453C43.1775 10.9453 43.1629 10.9359 43.1435 10.9359C43.1386 10.9359 43.0656 10.9313 43.0656 10.9313C43.0656 10.9266 43.0656 10.9219 43.0656 10.9172C43.0656 10.8657 43.0656 10.8096 43.0656 10.7581C43.0656 10.7347 43.0607 10.7113 43.0704 10.6926C43.0753 10.6832 43.0704 10.6739 43.0704 10.6645C43.0704 10.6411 43.0704 10.6177 43.0704 10.5943C43.0704 10.5381 43.0753 10.4773 43.0753 10.4212C43.0656 10.4212 43.0656 10.4071 43.0704 10.3322ZM44.6187 9.48518C44.6626 9.48986 44.7064 9.48986 44.7453 9.49454C44.8135 9.49922 44.8817 9.5039 44.9498 9.51326C44.9255 9.44774 44.906 9.37754 44.8768 9.30734C44.8671 9.27926 44.8524 9.25586 44.8427 9.23247C44.833 9.20907 44.8184 9.19035 44.8086 9.16695C44.8038 9.16227 44.8038 9.15291 44.8038 9.14823C44.7989 9.12483 44.7892 9.10611 44.7843 9.08271C44.7599 9.02655 44.7405 8.96571 44.7161 8.90955C44.7064 8.88147 44.6966 8.85808 44.682 8.83C44.682 8.83468 44.6723 8.84404 44.6723 8.84872C44.6674 8.85808 44.6577 8.86743 44.6528 8.87679C44.5944 8.96103 44.536 9.04527 44.4824 9.12951C44.4532 9.17163 44.4289 9.21843 44.4045 9.26054C44.3899 9.28394 44.3802 9.30266 44.3656 9.32606C44.3607 9.33542 44.3558 9.34478 44.351 9.35414C44.3461 9.37286 44.3266 9.39158 44.312 9.40562C44.2925 9.42902 44.2779 9.45242 44.2584 9.47582C44.2584 9.47582 44.273 9.47582 44.2779 9.47582C44.2828 9.47582 44.2925 9.47582 44.2974 9.47582C44.312 9.47582 44.3266 9.47582 44.3412 9.47582C44.3704 9.47582 44.3948 9.47582 44.424 9.47114C44.4337 9.47114 44.4483 9.46646 44.4581 9.46646C44.4727 9.46646 44.4873 9.46646 44.5019 9.47114C44.5311 9.47114 44.5554 9.47582 44.5847 9.47582C44.5944 9.48518 44.609 9.48518 44.6187 9.48518Z" fill="#E0E3BD" stroke="#362745" stroke-width="0.5" stroke-miterlimit="10"/>
<path d="M46.503 5.72258C45.612 5.03931 44.6041 4.927 43.5621 5.37626C41.8921 6.09696 41.4442 8.23099 42.4472 9.29332C42.5884 9.44307 42.6955 9.61623 42.8415 9.76599C42.973 9.9017 43.0168 10.0468 43.0071 10.2293C42.9925 10.482 42.9681 10.7394 43.0071 11.0155L43.864 11.053L43.8786 10.468L44.2097 10.4773V10.482C44.2097 10.4867 44.2097 10.4914 44.2097 10.496C44.2097 10.5007 44.2097 10.5101 44.2097 10.5148C44.2097 10.5241 44.2097 10.5335 44.2097 10.5382C44.2097 10.5475 44.2097 10.5569 44.2097 10.5662C44.2097 10.5756 44.2097 10.5896 44.2097 10.599C44.2097 10.613 44.2097 10.6224 44.2097 10.6364C44.2097 10.6505 44.2097 10.6645 44.2097 10.6786C44.2097 10.6926 44.2097 10.7066 44.2097 10.7207C44.2097 10.7347 44.2097 10.7488 44.2097 10.7628C44.2097 10.7768 44.2097 10.7909 44.2097 10.8049C44.2097 10.819 44.2097 10.833 44.2097 10.847C44.2097 10.8611 44.2097 10.8704 44.2097 10.8845C44.2097 10.8938 44.2097 10.9079 44.2097 10.9219C44.2097 10.9313 44.2097 10.9453 44.2097 10.9547C44.2097 10.964 44.2097 10.9734 44.2097 10.9828C44.2097 10.9874 44.2097 10.9968 44.2097 11.0062C44.2097 11.0108 44.2097 11.0155 44.2097 11.0202C44.2097 11.0342 44.2048 11.0483 44.2048 11.067C44.2097 11.067 44.2097 11.067 44.2146 11.067H44.2194H44.2243C44.2292 11.067 44.2389 11.067 44.2438 11.067C44.2584 11.067 44.273 11.067 44.2876 11.067C44.346 11.067 44.3996 11.0717 44.458 11.0717C44.5262 11.0764 44.5992 11.0764 44.6723 11.081C44.7356 11.0857 44.8037 11.0857 44.867 11.0904C44.906 11.0904 44.9449 11.0951 44.9887 11.0951C44.9936 11.0951 44.9985 11.0951 45.0033 11.0951C45.0131 11.0951 45.018 11.0951 45.0277 11.0904C45.0277 11.0764 45.0326 11.0576 45.0326 11.0436V11.0389C45.0326 11.0342 45.0326 11.0249 45.0374 11.0202C45.0374 11.0062 45.0423 10.9921 45.0423 10.9828C45.0423 10.9734 45.0423 10.964 45.0423 10.9547C45.0423 10.9453 45.0423 10.936 45.0423 10.9313C45.0423 10.9219 45.0423 10.9172 45.0423 10.9079C45.0423 10.8985 45.0423 10.8892 45.0423 10.8798C45.0423 10.8704 45.0423 10.8564 45.0423 10.8424C45.0423 10.8283 45.0423 10.8143 45.0423 10.8049C45.0423 10.7909 45.0423 10.7768 45.0423 10.7628C45.0423 10.7488 45.0423 10.7347 45.0423 10.7207C45.0423 10.7066 45.0423 10.6926 45.0423 10.6786C45.0423 10.6645 45.0423 10.6505 45.0423 10.6364C45.0423 10.6271 45.0423 10.613 45.0423 10.599C45.0423 10.5896 45.0423 10.5803 45.0423 10.5709C45.0423 10.5616 45.0423 10.5569 45.0423 10.5475C45.0423 10.5428 45.0423 10.5382 45.0423 10.5335V10.5288L45.3734 10.5382L45.3588 11.1185C45.4123 11.1185 46.2595 11.1559 46.2595 11.1559C46.2595 10.9874 46.2595 10.819 46.2595 10.6458C46.2595 10.5662 46.2595 10.4867 46.2595 10.4071C46.2595 10.3837 46.2595 10.3603 46.2547 10.3416C46.2547 10.2855 46.2547 10.2293 46.2644 10.1778C46.2741 10.1217 46.2936 10.0608 46.3326 10.014C46.3423 10.0047 46.352 9.99062 46.3618 9.98126C46.3764 9.96722 46.3861 9.95786 46.4007 9.94382C46.4251 9.92042 46.4494 9.89234 46.4738 9.86894C46.5224 9.81746 46.5711 9.77067 46.6198 9.71919C46.6685 9.66771 46.7123 9.62091 46.761 9.56943C46.8097 9.51795 46.8535 9.47115 46.8974 9.41968C46.9412 9.3682 46.9899 9.3214 47.0337 9.26992C47.0775 9.21844 47.1213 9.17164 47.1651 9.12016C47.1895 9.09676 47.209 9.06869 47.2333 9.04529C47.3989 8.84873 47.5157 8.62878 47.5547 8.37606C47.7299 7.29501 47.3842 6.39648 46.503 5.72258ZM43.7423 10.3135C43.7326 10.3135 43.7228 10.3135 43.7082 10.3135C43.7033 10.3135 43.6985 10.3135 43.6936 10.3135C43.6936 10.3369 43.6936 10.3603 43.6936 10.3837C43.6936 10.4305 43.6887 10.482 43.6887 10.5288C43.6839 10.6271 43.679 10.73 43.679 10.8283L43.2457 10.8096C43.2457 10.7675 43.2505 10.7254 43.2505 10.6832C43.2554 10.5896 43.2603 10.496 43.2603 10.3978C43.2651 10.2995 43.27 10.1965 43.27 10.0983C43.27 10.0608 43.2749 10.0234 43.2749 9.98594C43.2749 9.96722 43.27 9.9485 43.27 9.93446C43.27 9.91574 43.2651 9.89702 43.2651 9.8783C43.2651 9.86894 43.2603 9.86426 43.2603 9.8549C43.2554 9.85022 43.2554 9.84086 43.2505 9.83618C43.2457 9.82214 43.2408 9.8081 43.2311 9.79407C43.2165 9.76599 43.2018 9.73791 43.1872 9.70983C43.1726 9.68175 43.1532 9.65835 43.1337 9.63027C43.1239 9.61623 43.1093 9.59751 43.0947 9.58347C42.8902 9.3448 42.6955 9.09676 42.5007 8.84873C42.2232 8.4837 42.1745 8.05783 42.2281 7.62728C42.3498 6.65855 42.8756 5.95657 43.8153 5.59622C44.7453 5.24055 45.6266 5.3903 46.3666 6.03145C47.1213 6.68195 47.3989 7.51029 47.1554 8.47902C47.097 8.72705 46.9314 8.90489 46.7659 9.08272C46.5614 9.30268 46.352 9.51795 46.1427 9.73323C46.1329 9.74259 46.1232 9.74727 46.1183 9.75663C46.1183 9.76131 46.1183 9.76131 46.1135 9.76599C46.1086 9.77067 46.1086 9.77535 46.1037 9.78003C46.0988 9.78939 46.0891 9.79874 46.0842 9.8081C46.0794 9.81278 46.0794 9.81746 46.0745 9.82214C46.0696 9.82682 46.0696 9.82682 46.0696 9.8315C46.0599 9.85022 46.0502 9.86894 46.0404 9.88766C46.0209 9.92978 46.0112 9.97658 46.0015 10.0234C45.9966 10.0468 45.9966 10.0702 45.9966 10.0936C45.9966 10.1029 45.9966 10.117 45.9966 10.1263C45.9966 10.131 45.9966 10.1357 45.9966 10.1451C45.9966 10.1544 45.9966 10.1638 45.9966 10.1731C45.9966 10.1872 45.9966 10.2059 45.9966 10.2199C45.9966 10.248 45.9966 10.2714 45.9966 10.2995C45.9966 10.351 45.9966 10.4071 45.9966 10.4586C45.9966 10.5101 45.9966 10.5662 45.9966 10.6177C45.9966 10.6692 45.9966 10.7254 45.9966 10.7768C45.9966 10.8049 45.9966 10.8283 45.9966 10.8564C45.9966 10.8704 45.9966 10.8845 45.9966 10.8985C45.9966 10.9032 45.9966 10.9079 45.9966 10.9126V10.9172C45.9917 10.9219 45.9869 10.9172 45.9869 10.9172C45.982 10.9172 45.9723 10.9172 45.9674 10.9172C45.943 10.9172 45.9138 10.9172 45.8895 10.9126C45.7824 10.9079 45.6753 10.9032 45.5681 10.8985C45.573 10.8096 45.573 10.7207 45.5779 10.6364C45.5779 10.6084 45.5827 10.5756 45.5827 10.5475C45.5827 10.5101 45.5827 10.4773 45.5827 10.4399C45.5827 10.4258 45.5827 10.4165 45.5827 10.4024L45.5194 10.3931C45.4951 10.3884 45.4708 10.3837 45.4464 10.3837C45.3929 10.379 45.3442 10.3744 45.2906 10.3697C45.2371 10.365 45.1835 10.365 45.1299 10.365C45.0764 10.365 45.0228 10.365 44.9693 10.365C44.9254 10.365 44.8768 10.365 44.8329 10.365L44.8135 10.9032L44.3801 10.8845L44.3996 10.3557C44.3753 10.351 44.346 10.3463 44.3217 10.3416C44.2681 10.3323 44.2194 10.3276 44.1659 10.3229C44.1123 10.3182 44.0588 10.3182 44.0052 10.3135C43.9517 10.3135 43.8981 10.3135 43.8445 10.3089C43.8202 10.3089 43.791 10.3089 43.7666 10.3089" fill="#362745"/>
<path d="M44.8232 8.75044C44.8183 8.74576 44.8183 8.7364 44.8135 8.73172C44.8037 8.71768 44.7989 8.69896 44.7891 8.68492C44.7843 8.67556 44.7794 8.6662 44.7745 8.65684C44.7697 8.64748 44.7648 8.6428 44.7599 8.63344C44.7404 8.60536 44.7258 8.5726 44.7064 8.54452C44.6966 8.53048 44.6918 8.51644 44.682 8.49772C44.682 8.49304 44.6771 8.48836 44.6771 8.48836C44.6771 8.48368 44.6723 8.479 44.6723 8.479C44.6674 8.479 44.6674 8.479 44.6674 8.48368C44.6674 8.48836 44.6625 8.48836 44.6625 8.49304C44.6625 8.49772 44.6577 8.5024 44.6577 8.50708C44.6528 8.51644 44.6479 8.5258 44.6431 8.53048C44.6236 8.55856 44.6041 8.59132 44.5895 8.6194C44.57 8.64748 44.5506 8.68024 44.5359 8.70832C44.5116 8.74576 44.4921 8.7832 44.4678 8.82531C44.458 8.83935 44.4532 8.85339 44.4434 8.86275C44.4337 8.87679 44.424 8.89083 44.4191 8.90487C44.4094 8.91891 44.3996 8.93295 44.3899 8.95167C44.3801 8.96571 44.3704 8.98443 44.3607 8.99847C44.3509 9.01719 44.3412 9.03123 44.3315 9.04995C44.3217 9.06867 44.312 9.08271 44.3022 9.10143C44.2925 9.12015 44.2828 9.13887 44.273 9.15291C44.2633 9.17163 44.2535 9.19035 44.2438 9.20439C44.2341 9.2231 44.2243 9.23714 44.2146 9.25586C44.2049 9.27458 44.1951 9.28862 44.1854 9.30734C44.1756 9.32606 44.1659 9.3401 44.1562 9.35882C44.1464 9.37286 44.1367 9.39158 44.127 9.40562C44.1172 9.41966 44.1075 9.4337 44.1026 9.44774C44.0929 9.46178 44.088 9.47582 44.0783 9.48986C44.0734 9.5039 44.0637 9.51326 44.0588 9.5273C44.0539 9.53666 44.0442 9.54602 44.0393 9.56006C44.0344 9.56942 44.0296 9.57878 44.0247 9.58814C44.0198 9.59282 44.015 9.60218 44.015 9.60686C44.0101 9.61153 44.0101 9.61621 44.0052 9.62089L44.0004 9.62557H44.0052C44.0344 9.62557 44.0588 9.62557 44.088 9.63025C44.0929 9.63025 44.0977 9.63025 44.1075 9.63025C44.1124 9.63025 44.1221 9.63025 44.127 9.63025C44.1318 9.63025 44.1318 9.63025 44.1367 9.63025C44.1416 9.63025 44.1464 9.63025 44.1513 9.63025C44.1562 9.63025 44.161 9.63025 44.1708 9.63025C44.1756 9.63025 44.1854 9.63025 44.1903 9.63025C44.2 9.63025 44.2097 9.63025 44.2146 9.63025C44.2243 9.63025 44.2341 9.63025 44.2438 9.63025C44.2535 9.63025 44.2633 9.63025 44.273 9.63025C44.2828 9.63025 44.2974 9.63025 44.3071 9.63025C44.3168 9.63025 44.3315 9.63025 44.3412 9.63025C44.3558 9.63025 44.3655 9.63025 44.3801 9.63025C44.3947 9.63025 44.4045 9.63025 44.4191 9.63025C44.4337 9.63025 44.4483 9.63025 44.458 9.63025C44.4727 9.63025 44.4873 9.63025 44.5019 9.63025C44.5165 9.63025 44.5311 9.63025 44.5457 9.63025C44.5603 9.63025 44.5749 9.63025 44.5895 9.63025C44.6041 9.63025 44.6187 9.63025 44.6333 9.63025C44.6479 9.63025 44.6625 9.63025 44.6771 9.63025C44.6918 9.63025 44.7064 9.63025 44.721 9.63025C44.7356 9.63025 44.7502 9.63025 44.7648 9.63025C44.7794 9.63025 44.794 9.63025 44.8086 9.63025C44.8232 9.63025 44.8378 9.63025 44.8476 9.63025C44.8622 9.63025 44.8719 9.63025 44.8865 9.63025C44.9011 9.63025 44.9109 9.63025 44.9255 9.63025C44.9352 9.63025 44.9498 9.63025 44.9595 9.63025C44.9693 9.63025 44.9839 9.63025 44.9936 9.63025C45.0034 9.63025 45.0131 9.63025 45.0228 9.63025C45.0326 9.63025 45.0423 9.63025 45.0521 9.63025C45.0618 9.63025 45.0667 9.63025 45.0764 9.63025L45.2517 9.63493C45.2565 9.63493 45.2565 9.63493 45.2565 9.63493C45.2468 9.60685 45.2322 9.58346 45.2225 9.55538C45.1932 9.48986 44.8281 8.7598 44.8232 8.75044C44.8232 8.75512 44.8232 8.75512 44.8232 8.75044ZM44.3217 9.4571C44.4386 9.26522 44.5457 9.09207 44.6674 8.89083C44.7502 9.10611 44.8183 9.27458 44.9011 9.4805C44.7015 9.47114 44.5359 9.46178 44.3217 9.4571Z" fill="#362745"/>
<path d="M41.561 5.84888C41.561 5.87228 41.5659 5.891 41.5659 5.90972L41.561 5.84888ZM41.561 5.84888C41.561 5.87228 41.5659 5.891 41.5659 5.90972L41.561 5.84888Z" fill="#E0E3BD"/>
<path d="M41.561 5.84888C41.561 5.87228 41.5659 5.891 41.5659 5.90972M41.561 5.84888C41.561 5.87228 41.5659 5.891 41.5659 5.90972L41.561 5.84888Z" stroke="#362745" stroke-width="2" stroke-miterlimit="10"/>
<path d="M51.8685 14.7875C51.6202 14.5956 51.4352 14.3476 51.2015 14.1323C51.2161 13.8936 51.2453 13.6783 51.2453 13.4631C51.2404 12.8734 51.2794 12.2837 51.2307 11.6941C51.2015 11.3337 51.3037 10.9874 51.406 10.6411C51.6056 9.98123 51.4936 9.30265 51.3914 8.65215C51.3184 8.18884 51.3086 7.73957 51.3427 7.28094C51.3768 6.87847 51.3816 6.476 51.4157 6.07353C51.4596 5.50259 51.5131 4.94101 51.3622 4.36538C51.2307 3.87867 51.2015 3.36857 50.997 2.90058C50.8363 2.53555 50.8363 2.53555 50.3397 1.90377C49.8966 1.4545 49.8285 1.44982 49.4487 1.22987C49.1566 1.06139 48.8693 0.902274 48.5139 0.869515C48.061 0.827396 47.6423 0.635521 47.1944 0.565323C46.4154 0.443646 45.6461 0.509165 44.8768 0.621481C43.8446 0.775917 42.827 0.967792 42.0333 1.72593C41.6584 2.08628 41.2738 2.42791 41.1131 2.92866C41.0693 3.06906 40.9719 3.19073 40.8989 3.31709C40.5629 3.86463 40.6408 4.11267 40.5921 4.82401C40.6213 4.87549 40.524 5.18436 40.4899 5.2686C40.4461 5.74594 40.4412 5.44175 40.4461 5.64767C40.4607 6.27009 40.4655 6.89251 40.4704 7.51026C40.4753 8.07184 40.4996 8.63343 40.3925 9.18565C40.2757 9.77064 40.2854 10.3603 40.2805 10.95C40.2805 11.081 40.2854 11.2167 40.2513 11.3431C40.1491 11.783 40.1734 12.2229 40.1978 12.6628C40.2318 13.2618 40.2026 13.8562 40.2757 14.4692C39.9154 14.7407 39.5599 15.0121 39.1996 15.2742C39.073 15.3631 39 15.4614 39 15.6205C39.0097 16.2803 39.0097 16.9402 39.0146 17.6001C39.0146 17.7779 39.1022 17.8762 39.2921 17.8902C40.1734 17.9417 41.0498 17.9932 41.9262 18.0493C43.0655 18.1195 44.2 18.185 45.3393 18.2552C46.6296 18.3348 47.9199 18.419 49.2101 18.4986C49.3854 18.508 49.5461 18.4705 49.697 18.3816C50.3738 17.9885 51.0554 17.5954 51.7371 17.2116C51.9026 17.118 51.9659 16.9964 51.9659 16.8138C51.9708 16.2382 51.9854 15.6626 52 15.0917C52 14.9747 51.9757 14.867 51.8685 14.7875ZM40.6652 11.8298C40.7236 11.4367 40.7772 11.0482 40.7674 10.6505C40.7528 10.1357 40.8161 9.63024 40.894 9.12481C41.0011 8.42283 40.9622 7.71617 40.9476 7.00951C40.9427 6.75212 40.9378 6.49472 40.9427 6.24201C40.9427 6.17649 40.9476 6.11097 40.9524 6.04546C40.9573 6.00802 40.9622 5.97058 40.9622 5.92846C40.9622 5.90974 40.9768 5.8957 40.9914 5.88166C41.0109 5.85826 41.0352 5.83486 41.0547 5.81146C41.0596 5.80678 41.0644 5.8021 41.0742 5.79742C41.079 5.79742 41.0888 5.79742 41.0936 5.8021C41.1813 5.83954 41.3322 5.97526 41.3371 5.98462C41.3371 5.9893 41.5124 6.11565 41.5124 6.12033C41.5172 6.12501 41.4052 6.35901 41.4052 6.36837C41.6146 6.36837 41.561 6.30285 41.7315 6.00802C41.7412 5.9893 41.561 5.8723 41.561 5.8489C41.5318 5.82082 41.5221 5.78338 41.5075 5.75062C41.4929 5.7085 41.4685 5.67107 41.4442 5.63831C41.4296 5.61959 41.415 5.60555 41.4004 5.58683C41.3858 5.57279 41.3712 5.55875 41.3566 5.54471C41.3468 5.53535 41.3419 5.52599 41.3419 5.51195C41.3371 5.49323 41.3273 5.47919 41.3225 5.46047C41.303 5.41835 41.2835 5.37155 41.2689 5.32475C41.2348 5.23584 41.2056 5.14224 41.1764 5.04864C41.1472 4.95504 41.118 4.86145 41.0839 4.76785C41.0644 4.71637 41.0449 4.66957 41.0255 4.61809C41.0596 4.17819 41.1472 3.757 41.4491 3.40133C41.5172 3.31709 41.561 3.20945 41.5951 3.11117C41.7315 2.68063 42.0333 2.37175 42.379 2.09564C42.5933 1.92249 42.788 1.71657 43.0363 1.59958C43.0412 1.5949 43.0607 1.60893 43.0655 1.60893C43.0753 1.61361 43.085 1.61829 43.0948 1.62297C43.1142 1.63701 43.1288 1.65105 43.1386 1.66977C43.1581 1.69317 43.1629 1.72593 43.1775 1.74933C43.1873 1.77273 43.197 1.80081 43.2067 1.82421C43.2262 1.87569 43.2457 1.92249 43.2603 1.97397C43.2652 1.98332 43.2652 1.988 43.27 1.99268C43.27 1.99736 43.2749 2.00204 43.2749 2.00204C43.2749 2.00204 43.2846 2.00672 43.2895 2.00672C43.309 2.0114 43.3285 2.02076 43.3479 2.02544C43.3528 2.02544 43.3285 2.1518 43.3285 2.16116V2.18456C43.3285 2.20328 43.3236 2.22668 43.3236 2.2454C43.3187 2.28752 43.3187 2.32964 43.3139 2.37175C43.3139 2.38579 43.309 2.40451 43.3139 2.41855C43.3187 2.43259 43.3236 2.44195 43.3285 2.45599C43.3674 2.53087 43.3869 2.81166 43.3869 2.81166C43.3869 2.81166 43.4502 2.65255 43.4453 2.64319C43.4404 2.62915 43.4404 2.61979 43.4356 2.60575C43.4307 2.58235 43.4258 2.55427 43.421 2.53087C43.4161 2.49811 43.4112 2.46535 43.4064 2.42791C43.4064 2.41387 43.4015 2.40451 43.4015 2.39047C43.4015 2.38111 43.3966 2.37643 43.4015 2.36707C43.4064 2.35303 43.4112 2.339 43.421 2.32964C43.4258 2.3156 43.4356 2.30156 43.4404 2.28752C43.4404 2.28752 43.4697 2.2922 43.4745 2.29688C43.4843 2.30156 43.494 2.30624 43.5037 2.30624C43.533 2.31092 43.5573 2.32028 43.5816 2.33432C43.5914 2.339 43.6011 2.34368 43.6109 2.35303C43.6157 2.36239 43.6206 2.37175 43.6255 2.38111C43.6498 2.44195 43.6742 2.50747 43.7034 2.56831C43.7082 2.57767 43.7131 2.59171 43.7228 2.60107C43.7326 2.61043 43.7423 2.61511 43.7521 2.61979C43.8154 2.65723 43.8835 2.69467 43.9468 2.7321C43.9176 2.68531 43.8738 2.64787 43.8348 2.60107C43.7764 2.53087 43.7375 2.44663 43.7228 2.35771C43.718 2.339 43.718 2.32028 43.718 2.30156C43.6693 2.2688 43.6206 2.24072 43.5719 2.20796C43.5524 2.19392 43.5281 2.18456 43.5135 2.17052C43.5086 2.16584 43.5037 2.15648 43.5037 2.14712C43.4989 2.13308 43.494 2.12372 43.4891 2.10968C43.4697 2.0582 43.4551 2.00672 43.4356 1.95993C43.4307 1.94589 43.4258 1.92717 43.4112 1.92249C43.4064 1.91781 43.3966 1.91781 43.3869 1.91313C43.3723 1.90377 43.3674 1.88505 43.3625 1.87101C43.3577 1.85229 43.3528 1.82889 43.3479 1.81017C43.3431 1.79613 43.3382 1.77741 43.3382 1.75869V1.73997C43.3333 1.70721 43.3236 1.67445 43.3236 1.64169C43.3187 1.55746 43.3382 1.47322 43.3869 1.39834C44.8719 1.18775 46.3715 1.01459 47.6764 2.11436V2.76954C47.6764 2.78826 47.6764 2.81166 47.6667 2.83038C47.6618 2.83506 47.6618 2.83974 47.6569 2.8491C47.6521 2.86314 47.6472 2.87718 47.6375 2.88654C47.6228 2.90994 47.6082 2.93334 47.5888 2.96142C47.5693 2.9895 47.5498 3.01758 47.5401 3.05034C47.5449 3.04566 47.5498 3.04566 47.5547 3.04098L47.5693 3.02694C47.579 3.01758 47.5936 3.00822 47.6034 3.00354C47.6277 2.9895 47.6472 2.97078 47.6667 2.95206C47.6764 2.9427 47.6813 2.93334 47.691 2.9193C47.7007 2.90526 47.7105 2.88186 47.7202 2.86782C47.7348 2.85378 47.7446 2.83038 47.7494 2.80698C47.7543 2.79762 47.7592 2.79294 47.7592 2.78358C47.764 2.77422 47.764 2.76486 47.7689 2.75082C47.7738 2.72742 47.7787 2.70871 47.7835 2.68531C47.803 2.59171 47.8079 2.49811 47.8225 2.40451C47.8273 2.36707 47.8371 2.33432 47.8468 2.29688C48.2509 2.60107 48.6697 2.86782 48.7281 3.40133C48.7768 3.85059 48.8596 4.2905 48.991 4.72573C49.03 4.85209 49.064 4.98312 49.064 5.11416C49.064 5.9893 49.1079 6.85975 48.9618 7.73021C48.8839 8.19352 48.8888 8.67554 48.8839 9.14821C48.8839 9.65364 48.8547 10.1591 48.806 10.6598C48.7573 11.1512 48.7573 11.6379 48.8839 12.1153C48.9521 12.368 48.9082 12.6207 48.879 12.8781C48.8206 13.3788 48.7963 13.8842 48.7622 14.3897C48.7524 14.5113 48.7573 14.6377 48.7037 14.7687C46.0551 14.6283 43.4112 14.4879 40.7528 14.3429C40.7528 14.3429 40.7431 14.2633 40.7431 14.2586C40.7382 14.2259 40.7333 14.1931 40.7285 14.1604C40.7187 14.0948 40.7139 14.034 40.709 13.9685C40.7041 13.903 40.709 13.8421 40.7139 13.7813V13.7579C40.7139 13.7345 40.7187 13.7064 40.7236 13.6877C40.7285 13.6643 40.7333 13.6362 40.7382 13.6128C40.7528 13.5567 40.7674 13.5005 40.7918 13.4443C40.7966 13.435 40.7966 13.4303 40.8015 13.4209C40.8064 13.4163 40.8161 13.4116 40.8258 13.4069C40.9524 13.3601 41.0742 13.3133 41.2007 13.2665C41.2154 13.2618 41.2202 13.2431 41.23 13.2291C41.2397 13.215 41.2494 13.201 41.264 13.1869C41.2738 13.1776 41.2884 13.1682 41.2981 13.1589C41.3176 13.1401 41.3273 13.1167 41.3371 13.0933C41.3566 13.0559 41.376 13.0138 41.3906 12.9763C41.4004 12.9576 41.4101 12.9389 41.415 12.9249C41.415 12.9202 41.415 12.9155 41.4199 12.9108C41.4345 12.8874 41.4685 12.8687 41.488 12.8547C41.5318 12.8219 41.5708 12.7845 41.6 12.7424C41.561 12.7611 41.5318 12.7845 41.4929 12.8079C41.4783 12.8172 41.4588 12.8266 41.4393 12.8313C41.4345 12.8313 41.4296 12.8313 41.4199 12.836C41.415 12.836 41.415 12.8406 41.415 12.8406C41.4052 12.85 41.3955 12.864 41.3858 12.8781C41.3663 12.9061 41.3468 12.9342 41.3273 12.9623C41.303 12.9951 41.2787 13.0278 41.2543 13.0653C41.23 13.1027 41.2154 13.1401 41.1764 13.1589C41.1667 13.1635 41.1521 13.1682 41.1375 13.1729C41.0157 13.2103 40.8891 13.2525 40.7674 13.2899C40.7431 13.2993 40.7187 13.3039 40.6944 13.3227V13.2759C40.6993 13.2525 40.6944 13.2291 40.6993 13.2103V13.1167C40.6993 13.0512 40.6944 12.9904 40.6944 12.9249C40.6895 12.7985 40.6798 12.6722 40.6749 12.5505C40.636 12.3165 40.6311 12.0731 40.6652 11.8298ZM40.5581 14.867C40.6262 14.8155 40.7139 14.8296 40.7918 14.8343C42.3547 14.9185 43.9176 14.9981 45.4805 15.0823C46.503 15.1385 47.5255 15.1946 48.5528 15.2461C48.6015 15.2508 48.6502 15.2601 48.7037 15.2648C48.8011 15.452 48.879 15.6439 48.9375 15.8779C45.9528 15.6907 42.9925 15.5082 39.9787 15.321C40.1831 15.1244 40.3779 15.0027 40.5581 14.867ZM49.0933 17.9979C48.8742 18.0306 48.6599 18.0025 48.4603 17.9791C48.4506 17.9791 48.4408 17.9698 48.436 17.9651C48.4262 17.9604 48.4213 17.9557 48.4116 17.9464C48.397 17.937 48.3824 17.923 48.3678 17.9089C48.3386 17.8809 48.3191 17.8434 48.2899 17.8153C48.2801 17.806 48.2655 17.7966 48.2607 17.7873C48.2509 17.7685 48.2461 17.7498 48.2412 17.7311C48.2412 17.7264 48.2412 17.7217 48.2363 17.7124C48.2315 17.7077 48.2266 17.703 48.2266 17.6937C48.2022 17.6656 48.1828 17.6375 48.1682 17.6047C48.1633 17.5954 48.1633 17.5813 48.1633 17.572C48.1682 17.5439 48.1536 17.5158 48.1438 17.4924C48.139 17.469 48.1341 17.4503 48.1292 17.4269C48.1292 17.4222 48.1243 17.4129 48.1195 17.4082C48.1097 17.3941 48.0951 17.3848 48.0805 17.3754C48.0464 17.338 48.0124 17.3052 47.9783 17.2725C47.9637 17.2584 47.9491 17.2491 47.9345 17.2397C47.9442 17.2444 47.9491 17.2584 47.9588 17.2678C47.9637 17.2772 47.9734 17.2865 47.9831 17.2959C47.9978 17.3146 48.0124 17.3333 48.0221 17.3614C48.0221 17.3707 48.0318 17.3848 48.0367 17.3941C48.0513 17.4222 48.061 17.4456 48.0659 17.4737C48.0757 17.5111 48.0805 17.5486 48.0805 17.586C48.0854 17.6188 48.0854 17.6562 48.0903 17.689C48.0903 17.689 48.1146 17.6983 48.1195 17.6983C48.1243 17.703 48.1243 17.7124 48.1243 17.7217C48.1341 17.7451 48.1487 17.7685 48.1633 17.7919C48.1682 17.8013 48.173 17.8107 48.1779 17.82V17.8996C48.1779 17.9089 48.1779 17.923 48.173 17.9323C48.1633 17.9464 48.1438 17.9557 48.1487 17.9745C48.1292 17.9745 48.1 17.9791 48.0805 17.9745C48.0757 17.9745 48.0708 17.9745 48.0659 17.9698C48.0318 17.9651 48.0026 17.9651 47.9685 17.9651C47.9052 17.9604 47.8419 17.9557 47.7787 17.9557C47.2285 17.923 46.6783 17.8855 46.1281 17.8528C45.5779 17.82 45.0277 17.7826 44.4775 17.7498C43.9273 17.7171 43.3772 17.6796 42.827 17.6469C42.2768 17.6141 41.7266 17.5767 41.1764 17.5439C40.8989 17.5252 40.6262 17.5111 40.3487 17.4924C40.2124 17.4831 40.0712 17.4737 39.9348 17.469C39.8667 17.4643 39.7985 17.4597 39.7303 17.455C39.7157 17.455 39.5307 17.4456 39.5307 17.4409V16.9917L39.5356 16.987C39.5404 16.9823 39.5404 16.9823 39.5453 16.9776C39.5502 16.9683 39.5551 16.9636 39.5599 16.9542C39.5745 16.9355 39.5843 16.9215 39.5989 16.9028C39.6135 16.884 39.633 16.8653 39.6476 16.8466C39.6524 16.8372 39.6573 16.8326 39.6622 16.8232C39.6719 16.8138 39.6865 16.8045 39.6963 16.7998C39.7109 16.7904 39.7255 16.7858 39.7401 16.7764C39.7693 16.7624 39.7985 16.7483 39.8326 16.739C39.8569 16.7296 39.8813 16.7249 39.9056 16.7296C39.9251 16.7343 39.9446 16.7436 39.9592 16.7577C40.0127 16.7951 40.0712 16.8326 40.1345 16.8466C40.1491 16.8513 40.1539 16.8372 40.1637 16.8326C40.188 16.8092 40.2172 16.7904 40.2416 16.7764C40.2464 16.7717 40.2562 16.767 40.261 16.767C40.2757 16.7577 40.2903 16.753 40.3049 16.7436C40.3633 16.7202 40.4266 16.7156 40.4899 16.7109C40.4461 16.6968 40.3974 16.6875 40.3438 16.6828C40.3146 16.6828 40.2854 16.6828 40.261 16.6968C40.2562 16.7015 40.2513 16.7062 40.2513 16.7062C40.2464 16.7109 40.2367 16.7156 40.2318 16.7202L40.188 16.7483C40.1831 16.7483 40.1831 16.753 40.1783 16.753C40.1685 16.7577 40.1588 16.7624 40.1539 16.7717C40.1491 16.7764 40.1345 16.7858 40.1247 16.7858C40.1199 16.7858 40.1101 16.7811 40.1004 16.7764C40.0955 16.7717 40.0858 16.7717 40.0809 16.767C40.0663 16.7577 40.0517 16.7483 40.0419 16.7436C40.003 16.7156 39.964 16.6781 39.9251 16.6454C39.9202 16.6407 39.9154 16.6407 39.9105 16.636H39.891C39.8764 16.6407 39.8618 16.6407 39.8472 16.6454C39.8375 16.6454 39.8326 16.65 39.8228 16.65H39.8082C39.7936 16.65 39.779 16.6547 39.7644 16.6547C39.7449 16.6594 39.7206 16.6641 39.7011 16.6688C39.6378 16.6828 39.5794 16.6968 39.5161 16.7156V15.7749C42.7101 15.9715 45.8944 16.1727 49.0933 16.3693V17.9979ZM48.1828 1.96929L48.0416 1.77741H47.9783C47.9685 1.77741 47.9637 1.76805 47.9539 1.76805L47.8079 1.65573C47.7105 1.58086 47.6082 1.51066 47.506 1.44514C47.3015 1.30942 47.0873 1.18307 46.8584 1.08011C46.7562 1.07075 46.6734 1.02395 46.5566 0.953753C46.6831 0.972472 46.7708 0.986512 46.8584 1.00055C47.1603 0.995871 47.4427 1.08947 47.73 1.17371C47.9539 1.23922 48.1779 1.30942 48.4116 1.32814C48.767 1.35154 49.0446 1.53406 49.3221 1.71657C49.5412 1.86165 49.6142 2.10032 49.6824 2.32496C49.7311 2.49811 49.5607 2.57299 49.4536 2.67127V2.68999C49.4536 2.69935 49.4584 2.70871 49.4584 2.71807C49.4633 2.73678 49.473 2.75082 49.4779 2.76954C49.4974 2.80698 49.5169 2.83974 49.5315 2.87718C49.5412 2.8959 49.5461 2.91462 49.5509 2.93334C49.5558 2.95206 49.5607 2.97546 49.5558 2.99418C49.5558 3.00354 49.5412 3.0129 49.5363 3.01758C49.5071 3.05502 49.473 3.09245 49.4438 3.12521L49.6483 3.0597C49.6629 3.04566 49.6727 3.03162 49.6873 3.02226C49.7019 3.0129 49.7165 2.99886 49.7311 2.9895C49.7165 2.98014 49.7165 2.97546 49.7165 2.96142C49.7116 2.9427 49.7067 2.9193 49.7019 2.90058C49.697 2.88186 49.6921 2.86314 49.6873 2.84442C49.6873 2.83506 49.6824 2.8257 49.6824 2.81634C49.6824 2.81166 49.6727 2.79294 49.6775 2.78826C49.7311 2.68531 49.8479 2.66659 49.9064 2.60107C50.2667 2.62447 50.4663 2.80698 50.5685 3.12053C50.7 3.51832 50.7341 3.93951 50.8558 4.3373C51.0652 5.04864 50.9337 5.75062 50.8801 6.45728C50.8509 6.86443 50.8948 7.28094 50.812 7.68341C50.7779 7.83785 50.739 7.98292 50.6124 8.07184C50.5685 8.245 50.6075 8.40411 50.5978 8.56323C50.5783 8.61003 50.5345 8.64747 50.4955 8.68022C50.4614 8.71298 50.4225 8.74106 50.3835 8.76914C50.3835 8.76914 50.3835 8.76914 50.3787 8.77382C50.3446 8.79722 50.3056 8.82062 50.2764 8.8487C50.2618 8.86274 50.2472 8.87678 50.2326 8.89082C50.218 8.90486 50.1985 8.91422 50.179 8.92826C50.1449 8.94698 50.1109 8.97038 50.0768 8.99378C50.067 9.00314 50.0524 9.00782 50.0476 9.02186L50.0281 9.04058C50.0232 9.04525 50.0135 9.05461 50.0086 9.05929C50.0037 9.06397 49.9989 9.06865 49.9989 9.07333C49.9989 9.07801 50.0037 9.07801 50.0037 9.08269C50.0281 9.11077 50.0378 9.15289 50.0573 9.18565C50.0622 9.19501 50.0719 9.20437 50.0768 9.21841C50.0816 9.22309 50.0816 9.22777 50.0816 9.23713C50.0914 9.25585 50.0963 9.27457 50.0963 9.29329V9.32137C50.0914 9.34009 50.1011 9.35881 50.0865 9.37285C50.067 9.39157 50.0427 9.41028 50.0232 9.429C50.0135 9.43836 50.0037 9.44772 49.994 9.4524C49.9745 9.47112 49.9502 9.48516 49.9307 9.50388C49.9258 9.50856 49.921 9.50856 49.921 9.51324C49.9161 9.51792 49.9161 9.52728 49.921 9.53664C49.9356 9.6396 49.9502 9.74724 49.9648 9.85019C49.9648 9.86423 49.9697 9.88295 49.9697 9.90167C49.9648 9.91571 49.9648 9.92975 49.9648 9.94847C49.9648 9.99059 49.9697 10.0327 49.9745 10.0701L50.067 9.63492C50.1352 9.51324 50.3056 9.48984 50.3494 9.36817C50.3494 9.26053 50.2472 9.23245 50.2131 9.13885C50.3933 9.0125 50.5783 8.88146 50.7828 8.73638C50.7876 8.64279 50.7974 8.53047 50.8022 8.41347C50.8704 8.42751 50.8801 8.47899 50.885 8.52111C50.9191 9.15289 51.0798 9.78467 50.9386 10.4211C50.8899 10.6505 50.8071 10.8704 50.7779 11.0997C50.7 11.7455 50.8022 12.3867 50.7876 13.0278C50.7779 13.3507 50.8217 13.6783 50.7097 14.0153C50.2228 14.2586 49.7311 14.4786 49.2004 14.7219C49.2247 14.4365 49.2345 14.1838 49.2637 13.931C49.3075 13.5239 49.288 13.1074 49.3805 12.7049C49.4195 12.5318 49.4049 12.3446 49.361 12.1714C49.2101 11.6098 49.215 11.0482 49.288 10.482C49.3659 9.86423 49.3464 9.24181 49.3562 8.61939C49.3659 7.99696 49.4633 7.3839 49.4974 6.76148C49.5315 6.11097 49.5899 5.45579 49.473 4.81465C49.3805 4.30454 49.2296 3.8038 49.1663 3.28433C49.1176 2.90058 48.918 2.58235 48.6064 2.33432C48.4895 2.24072 48.3824 2.14244 48.2655 2.04416C48.2363 2.02076 48.212 1.99736 48.1828 1.96929C48.1779 1.96461 48.173 1.96461 48.173 1.95993C48.1633 1.95057 48.1633 1.94121 48.1584 1.92717L48.1828 1.96929ZM50.7438 14.7594C50.7438 14.7594 50.7487 14.7641 50.7536 14.7641C50.7584 14.7641 50.7584 14.7641 50.7633 14.7687C50.773 14.7687 50.7779 14.7734 50.7828 14.7781C50.7925 14.7875 50.7974 14.7968 50.8022 14.8062C50.8022 14.8202 50.8071 14.8343 50.8071 14.853C50.8071 14.8857 50.812 14.9232 50.8071 14.9559C50.8071 14.9747 50.8071 14.9887 50.8022 15.0074V15.0261C50.8022 15.0355 50.812 15.0355 50.8217 15.0402C50.8363 15.0449 50.8461 15.0589 50.8509 15.0683C50.8558 15.0776 50.8607 15.087 50.8558 15.0963C50.8558 15.1057 50.8509 15.1151 50.8461 15.1197C50.8363 15.1384 50.8217 15.1478 50.8022 15.1572C50.7584 15.1759 50.7146 15.1993 50.6757 15.2227C50.2861 15.4192 49.8966 15.6205 49.4876 15.8264C49.3805 15.6345 49.3075 15.4426 49.2345 15.2227C49.7749 14.9793 50.3105 14.736 50.8509 14.4879C51.0311 14.5956 51.1431 14.7594 51.2745 14.8998C51.2015 14.9793 51.109 15.0027 51.0165 15.0449C51.0067 15.0402 50.997 15.0355 50.9873 15.0308C50.9775 15.0261 50.9629 15.0168 50.9532 15.0121C50.9434 15.0074 50.9337 14.9981 50.9191 14.9981C50.9045 14.9934 50.885 14.984 50.8753 14.9747C50.8704 14.97 50.8704 14.9653 50.8704 14.9559C50.8655 14.9372 50.8607 14.9232 50.8607 14.9045C50.8558 14.8811 50.8509 14.8623 50.8412 14.8389C50.8363 14.8202 50.8266 14.7968 50.8217 14.7781L50.7438 14.7594ZM51.0749 16.0276V15.9574C51.0749 15.9434 51.0749 15.9247 51.0846 15.9106C51.0895 15.9013 51.0895 15.8966 51.0944 15.8919C51.0944 15.8872 51.0993 15.8872 51.0993 15.8826C51.1139 15.8592 51.1285 15.8358 51.1479 15.8124C51.2307 15.7188 51.2794 15.6111 51.2697 15.4801C51.3232 15.4426 51.3768 15.4005 51.4693 15.4052C51.5034 15.8638 51.479 16.3412 51.4644 16.8279C50.8509 17.1789 50.2375 17.5299 49.5996 17.8902V16.3037C50.0963 16.051 50.588 15.803 51.0846 15.555C51.0993 15.5737 51.109 15.5971 51.1139 15.6205C51.1187 15.6345 51.1139 15.6532 51.1139 15.6673C51.1139 15.6766 51.109 15.6813 51.1041 15.6907C51.1041 15.6954 51.0993 15.7 51.0944 15.7094C51.0895 15.7141 51.0798 15.7234 51.0749 15.7281C51.0652 15.7328 51.0603 15.7422 51.0506 15.7515C51.0408 15.7609 51.0311 15.7749 51.0262 15.7843C51.0213 15.789 51.0165 15.7936 51.0165 15.803C51.0116 15.8077 51.0067 15.817 51.0067 15.8264C50.9921 15.8498 50.9775 15.8779 50.9581 15.9013C50.9483 15.9106 50.9386 15.9247 50.9386 15.9387C50.9386 15.9434 50.9386 15.9481 50.9434 15.9527V16.1353C50.9434 16.168 50.9483 16.1961 50.9483 16.2289C50.9483 16.2523 50.9434 16.285 50.9288 16.3037L50.9142 16.3178C50.9142 16.3178 50.9094 16.3225 50.9094 16.3271C50.9094 16.3318 50.9045 16.3318 50.8996 16.3365C50.8655 16.3739 50.8217 16.402 50.7779 16.4301C50.8071 16.4254 50.8363 16.4207 50.8607 16.4067C50.8801 16.3973 50.8996 16.3833 50.924 16.3739C50.9288 16.3739 50.9337 16.3646 50.9434 16.3646C50.9434 16.3646 50.9434 16.3646 50.9483 16.3646C50.9581 16.3505 50.9629 16.3365 50.9727 16.3178C50.9775 16.3131 50.9775 16.3037 50.9824 16.2944C50.9873 16.285 50.9873 16.2803 50.9921 16.271C50.9921 16.2663 50.997 16.2616 50.997 16.2569C51.0019 16.2382 51.0067 16.2195 51.0165 16.2008C51.0213 16.1914 51.0213 16.1821 51.0262 16.1727C51.0262 16.168 51.0311 16.1633 51.0311 16.154C51.0311 16.1446 51.0311 16.1353 51.036 16.1306C51.036 16.1212 51.0408 16.1119 51.0506 16.1072C51.0554 16.1072 51.0554 16.1072 51.0603 16.1072L51.0749 16.0276Z" fill="#E0E3BD"/>
<path d="M48.1828 1.96929L48.0416 1.77741H47.9783C47.9685 1.77741 47.9637 1.76805 47.9539 1.76805L47.8079 1.65573C47.7105 1.58086 47.6082 1.51066 47.506 1.44514C47.3015 1.30942 47.0873 1.18307 46.8584 1.08011C46.7562 1.07075 46.6734 1.02395 46.5566 0.953753C46.6831 0.972472 46.7708 0.986512 46.8584 1.00055C47.1603 0.995871 47.4427 1.08947 47.73 1.17371C47.9539 1.23922 48.1779 1.30942 48.4116 1.32814C48.767 1.35154 49.0446 1.53406 49.3221 1.71657C49.5412 1.86165 49.6142 2.10032 49.6824 2.32496C49.7311 2.49811 49.5607 2.57299 49.4536 2.67127V2.68999C49.4536 2.69935 49.4584 2.70871 49.4584 2.71807C49.4633 2.73678 49.473 2.75082 49.4779 2.76954C49.4974 2.80698 49.5169 2.83974 49.5315 2.87718C49.5412 2.8959 49.5461 2.91462 49.5509 2.93334C49.5558 2.95206 49.5607 2.97546 49.5558 2.99418C49.5558 3.00354 49.5412 3.0129 49.5363 3.01758C49.5071 3.05502 49.473 3.09245 49.4438 3.12521L49.6483 3.0597C49.6629 3.04566 49.6727 3.03162 49.6873 3.02226C49.7019 3.0129 49.7165 2.99886 49.7311 2.9895C49.7165 2.98014 49.7165 2.97546 49.7165 2.96142C49.7116 2.9427 49.7067 2.9193 49.7019 2.90058C49.697 2.88186 49.6921 2.86314 49.6873 2.84442C49.6873 2.83506 49.6824 2.8257 49.6824 2.81634C49.6824 2.81166 49.6727 2.79294 49.6775 2.78826C49.7311 2.68531 49.8479 2.66659 49.9064 2.60107C50.2667 2.62447 50.4663 2.80698 50.5685 3.12053C50.7 3.51832 50.7341 3.93951 50.8558 4.3373C51.0652 5.04864 50.9337 5.75062 50.8801 6.45728C50.8509 6.86443 50.8948 7.28094 50.812 7.68341C50.7779 7.83785 50.739 7.98292 50.6124 8.07184C50.5685 8.245 50.6075 8.40411 50.5978 8.56323C50.5783 8.61003 50.5345 8.64747 50.4955 8.68022C50.4614 8.71298 50.4225 8.74106 50.3835 8.76914C50.3835 8.76914 50.3835 8.76914 50.3787 8.77382C50.3446 8.79722 50.3056 8.82062 50.2764 8.8487C50.2618 8.86274 50.2472 8.87678 50.2326 8.89082C50.218 8.90486 50.1985 8.91422 50.179 8.92826C50.1449 8.94698 50.1109 8.97038 50.0768 8.99378C50.067 9.00314 50.0524 9.00782 50.0476 9.02186L50.0281 9.04058C50.0232 9.04525 50.0135 9.05461 50.0086 9.05929C50.0037 9.06397 49.9989 9.06865 49.9989 9.07333C49.9989 9.07801 50.0037 9.07801 50.0037 9.08269C50.0281 9.11077 50.0378 9.15289 50.0573 9.18565C50.0622 9.19501 50.0719 9.20437 50.0768 9.21841C50.0816 9.22309 50.0816 9.22777 50.0816 9.23713C50.0914 9.25585 50.0963 9.27457 50.0963 9.29329V9.32137C50.0914 9.34009 50.1011 9.35881 50.0865 9.37285C50.067 9.39157 50.0427 9.41029 50.0232 9.429C50.0135 9.43836 50.0037 9.44772 49.994 9.4524C49.9745 9.47112 49.9502 9.48516 49.9307 9.50388C49.9258 9.50856 49.921 9.50856 49.921 9.51324C49.9161 9.51792 49.9161 9.52728 49.921 9.53664C49.9356 9.6396 49.9502 9.74724 49.9648 9.85019C49.9648 9.86423 49.9697 9.88295 49.9697 9.90167C49.9648 9.91571 49.9648 9.92975 49.9648 9.94847C49.9648 9.99059 49.9697 10.0327 49.9745 10.0701L50.067 9.63492C50.1352 9.51324 50.3056 9.48984 50.3494 9.36817C50.3494 9.26053 50.2472 9.23245 50.2131 9.13885C50.3933 9.0125 50.5783 8.88146 50.7828 8.73638C50.7876 8.64279 50.7974 8.53047 50.8022 8.41347C50.8704 8.42751 50.8802 8.47899 50.885 8.52111C50.9191 9.15289 51.0798 9.78467 50.9386 10.4211C50.8899 10.6505 50.8071 10.8704 50.7779 11.0997C50.7 11.7455 50.8022 12.3867 50.7876 13.0278C50.7779 13.3507 50.8217 13.6783 50.7097 14.0153C50.2228 14.2586 49.7311 14.4786 49.2004 14.7219C49.2247 14.4365 49.2345 14.1838 49.2637 13.931C49.3075 13.5239 49.288 13.1074 49.3805 12.7049C49.4195 12.5318 49.4049 12.3446 49.361 12.1714C49.2101 11.6098 49.215 11.0482 49.288 10.482C49.3659 9.86423 49.3464 9.24181 49.3562 8.61939C49.3659 7.99696 49.4633 7.3839 49.4974 6.76148C49.5315 6.11097 49.5899 5.45579 49.473 4.81465C49.3805 4.30454 49.2296 3.8038 49.1663 3.28433C49.1176 2.90058 48.918 2.58235 48.6064 2.33432C48.4895 2.24072 48.3824 2.14244 48.2655 2.04416C48.2363 2.02076 48.212 1.99736 48.1828 1.96929ZM48.1828 1.96929C48.1779 1.96461 48.173 1.96461 48.173 1.95993C48.1633 1.95057 48.1633 1.94121 48.1584 1.92717L48.1828 1.96929ZM50.8217 14.7781C50.8266 14.7968 50.8363 14.8202 50.8412 14.8389C50.8509 14.8623 50.8558 14.8811 50.8607 14.9045C50.8607 14.9232 50.8655 14.9372 50.8704 14.9559C50.8704 14.9653 50.8704 14.97 50.8753 14.9747C50.885 14.984 50.9045 14.9934 50.9191 14.9981C50.9337 14.9981 50.9434 15.0074 50.9532 15.0121C50.9629 15.0168 50.9775 15.0261 50.9873 15.0308C50.997 15.0355 51.0067 15.0402 51.0165 15.0449C51.109 15.0027 51.2015 14.9793 51.2745 14.8998C51.1431 14.7594 51.0311 14.5956 50.8509 14.4879C50.3105 14.736 49.7749 14.9793 49.2345 15.2227C49.3075 15.4426 49.3805 15.6345 49.4876 15.8264C49.8966 15.6205 50.2861 15.4192 50.6757 15.2227C50.7146 15.1993 50.7584 15.1759 50.8022 15.1572C50.8217 15.1478 50.8363 15.1384 50.8461 15.1197C50.8509 15.1151 50.8558 15.1057 50.8558 15.0963C50.8607 15.087 50.8558 15.0776 50.8509 15.0683C50.8461 15.0589 50.8363 15.0449 50.8217 15.0402C50.812 15.0355 50.8022 15.0355 50.8022 15.0261V15.0074C50.8071 14.9887 50.8071 14.9747 50.8071 14.9559C50.812 14.9232 50.8071 14.8857 50.8071 14.853C50.8071 14.8343 50.8022 14.8202 50.8022 14.8062C50.7974 14.7968 50.7925 14.7875 50.7828 14.7781C50.7779 14.7734 50.773 14.7687 50.7633 14.7687C50.7584 14.7641 50.7584 14.7641 50.7536 14.7641C50.7487 14.7641 50.7438 14.7594 50.7438 14.7594L50.8217 14.7781ZM50.8217 14.7781L50.7195 14.7407M51.8685 14.7875C51.6202 14.5956 51.4352 14.3476 51.2015 14.1323C51.2161 13.8936 51.2453 13.6783 51.2453 13.4631C51.2404 12.8734 51.2794 12.2837 51.2307 11.6941C51.2015 11.3337 51.3037 10.9874 51.406 10.6411C51.6056 9.98123 51.4936 9.30265 51.3914 8.65215C51.3184 8.18884 51.3086 7.73957 51.3427 7.28094C51.3768 6.87847 51.3816 6.476 51.4157 6.07353C51.4596 5.50259 51.5131 4.94101 51.3622 4.36538C51.2307 3.87867 51.2015 3.36857 50.997 2.90058C50.8363 2.53555 50.8363 2.53555 50.3397 1.90377C49.8966 1.4545 49.8285 1.44982 49.4487 1.22987C49.1566 1.06139 48.8693 0.902274 48.5139 0.869515C48.061 0.827396 47.6423 0.635521 47.1944 0.565323C46.4154 0.443646 45.6461 0.509165 44.8768 0.621481C43.8446 0.775917 42.827 0.967792 42.0333 1.72593C41.6584 2.08628 41.2738 2.42791 41.1131 2.92866C41.0693 3.06906 40.9719 3.19073 40.8989 3.31709C40.5629 3.86463 40.6408 4.11267 40.5921 4.82401C40.6213 4.87549 40.524 5.18436 40.4899 5.2686C40.4461 5.74594 40.4412 5.44175 40.4461 5.64767C40.4607 6.27009 40.4655 6.89251 40.4704 7.51026C40.4753 8.07184 40.4996 8.63343 40.3925 9.18565C40.2757 9.77064 40.2854 10.3603 40.2805 10.95C40.2805 11.081 40.2854 11.2167 40.2513 11.3431C40.1491 11.783 40.1734 12.2229 40.1978 12.6628C40.2318 13.2618 40.2026 13.8562 40.2757 14.4692C39.9154 14.7407 39.5599 15.0121 39.1996 15.2742C39.073 15.3631 39 15.4614 39 15.6205C39.0097 16.2803 39.0097 16.9402 39.0146 17.6001C39.0146 17.7779 39.1022 17.8762 39.2921 17.8902C40.1734 17.9417 41.0498 17.9932 41.9262 18.0493C43.0655 18.1195 44.2 18.185 45.3393 18.2552C46.6296 18.3348 47.9198 18.419 49.2101 18.4986C49.3854 18.508 49.5461 18.4705 49.697 18.3816C50.3738 17.9885 51.0554 17.5954 51.7371 17.2116C51.9026 17.118 51.9659 16.9964 51.9659 16.8138C51.9708 16.2382 51.9854 15.6626 52 15.0917C52 14.9747 51.9757 14.867 51.8685 14.7875ZM40.6652 11.8298C40.7236 11.4367 40.7772 11.0482 40.7674 10.6505C40.7528 10.1357 40.8161 9.63024 40.894 9.12481C41.0011 8.42283 40.9622 7.71617 40.9476 7.00951C40.9427 6.75212 40.9378 6.49472 40.9427 6.24201C40.9427 6.17649 40.9476 6.11097 40.9524 6.04546C40.9573 6.00802 40.9622 5.97058 40.9622 5.92846C40.9622 5.90974 40.9768 5.8957 40.9914 5.88166C41.0109 5.85826 41.0352 5.83486 41.0547 5.81146C41.0596 5.80678 41.0644 5.8021 41.0742 5.79742C41.079 5.79742 41.0888 5.79742 41.0936 5.8021C41.1813 5.83954 41.3322 5.97526 41.3371 5.98462C41.3371 5.9893 41.5124 6.11565 41.5124 6.12033C41.5172 6.12501 41.4052 6.35901 41.4052 6.36837C41.6146 6.36837 41.561 6.30285 41.7315 6.00802C41.7412 5.9893 41.561 5.8723 41.561 5.8489C41.5318 5.82082 41.5221 5.78338 41.5075 5.75062C41.4929 5.7085 41.4685 5.67107 41.4442 5.63831C41.4296 5.61959 41.415 5.60555 41.4004 5.58683C41.3858 5.57279 41.3712 5.55875 41.3566 5.54471C41.3468 5.53535 41.3419 5.52599 41.3419 5.51195C41.3371 5.49323 41.3273 5.47919 41.3225 5.46047C41.303 5.41835 41.2835 5.37155 41.2689 5.32475C41.2348 5.23584 41.2056 5.14224 41.1764 5.04864C41.1472 4.95504 41.118 4.86145 41.0839 4.76785C41.0644 4.71637 41.0449 4.66957 41.0255 4.61809C41.0596 4.17819 41.1472 3.757 41.4491 3.40133C41.5172 3.31709 41.561 3.20945 41.5951 3.11117C41.7315 2.68063 42.0333 2.37175 42.379 2.09564C42.5933 1.92249 42.788 1.71657 43.0363 1.59958C43.0412 1.5949 43.0607 1.60893 43.0655 1.60893C43.0753 1.61361 43.085 1.61829 43.0948 1.62297C43.1142 1.63701 43.1288 1.65105 43.1386 1.66977C43.1581 1.69317 43.1629 1.72593 43.1775 1.74933C43.1873 1.77273 43.197 1.80081 43.2067 1.82421C43.2262 1.87569 43.2457 1.92249 43.2603 1.97397C43.2652 1.98332 43.2652 1.988 43.27 1.99268C43.27 1.99736 43.2749 2.00204 43.2749 2.00204C43.2749 2.00204 43.2846 2.00672 43.2895 2.00672C43.309 2.0114 43.3285 2.02076 43.3479 2.02544C43.3528 2.02544 43.3285 2.1518 43.3285 2.16116V2.18456C43.3285 2.20328 43.3236 2.22668 43.3236 2.2454C43.3187 2.28752 43.3187 2.32964 43.3139 2.37175C43.3139 2.38579 43.309 2.40451 43.3139 2.41855C43.3187 2.43259 43.3236 2.44195 43.3285 2.45599C43.3674 2.53087 43.3869 2.81166 43.3869 2.81166C43.3869 2.81166 43.4502 2.65255 43.4453 2.64319C43.4404 2.62915 43.4404 2.61979 43.4356 2.60575C43.4307 2.58235 43.4258 2.55427 43.421 2.53087C43.4161 2.49811 43.4112 2.46535 43.4064 2.42791C43.4064 2.41387 43.4015 2.40451 43.4015 2.39047C43.4015 2.38111 43.3966 2.37643 43.4015 2.36707C43.4064 2.35303 43.4112 2.339 43.421 2.32964C43.4258 2.3156 43.4356 2.30156 43.4404 2.28752C43.4404 2.28752 43.4697 2.2922 43.4745 2.29688C43.4843 2.30156 43.494 2.30624 43.5037 2.30624C43.533 2.31092 43.5573 2.32028 43.5816 2.33432C43.5914 2.339 43.6011 2.34367 43.6109 2.35303C43.6157 2.36239 43.6206 2.37175 43.6255 2.38111C43.6498 2.44195 43.6742 2.50747 43.7034 2.56831C43.7082 2.57767 43.7131 2.59171 43.7228 2.60107C43.7326 2.61043 43.7423 2.61511 43.7521 2.61979C43.8154 2.65723 43.8835 2.69467 43.9468 2.7321C43.9176 2.68531 43.8738 2.64787 43.8348 2.60107C43.7764 2.53087 43.7375 2.44663 43.7228 2.35771C43.718 2.339 43.718 2.32028 43.718 2.30156C43.6693 2.2688 43.6206 2.24072 43.5719 2.20796C43.5524 2.19392 43.5281 2.18456 43.5135 2.17052C43.5086 2.16584 43.5037 2.15648 43.5037 2.14712C43.4989 2.13308 43.494 2.12372 43.4891 2.10968C43.4697 2.0582 43.4551 2.00672 43.4356 1.95993C43.4307 1.94589 43.4258 1.92717 43.4112 1.92249C43.4064 1.91781 43.3966 1.91781 43.3869 1.91313C43.3723 1.90377 43.3674 1.88505 43.3625 1.87101C43.3577 1.85229 43.3528 1.82889 43.3479 1.81017C43.3431 1.79613 43.3382 1.77741 43.3382 1.75869V1.73997C43.3333 1.70721 43.3236 1.67445 43.3236 1.64169C43.3187 1.55746 43.3382 1.47322 43.3869 1.39834C44.8719 1.18775 46.3715 1.01459 47.6764 2.11436V2.76954C47.6764 2.78826 47.6764 2.81166 47.6667 2.83038C47.6618 2.83506 47.6618 2.83974 47.6569 2.8491C47.6521 2.86314 47.6472 2.87718 47.6375 2.88654C47.6228 2.90994 47.6082 2.93334 47.5888 2.96142C47.5693 2.9895 47.5498 3.01758 47.5401 3.05034C47.5449 3.04566 47.5498 3.04566 47.5547 3.04098L47.5693 3.02694C47.579 3.01758 47.5936 3.00822 47.6034 3.00354C47.6277 2.9895 47.6472 2.97078 47.6667 2.95206C47.6764 2.9427 47.6813 2.93334 47.691 2.9193C47.7007 2.90526 47.7105 2.88186 47.7202 2.86782C47.7348 2.85378 47.7446 2.83038 47.7494 2.80698C47.7543 2.79762 47.7592 2.79294 47.7592 2.78358C47.764 2.77422 47.764 2.76486 47.7689 2.75082C47.7738 2.72742 47.7787 2.70871 47.7835 2.68531C47.803 2.59171 47.8079 2.49811 47.8225 2.40451C47.8273 2.36707 47.8371 2.33432 47.8468 2.29688C48.2509 2.60107 48.6697 2.86782 48.7281 3.40133C48.7768 3.85059 48.8596 4.2905 48.991 4.72573C49.03 4.85209 49.064 4.98312 49.064 5.11416C49.064 5.9893 49.1079 6.85975 48.9618 7.73021C48.8839 8.19352 48.8888 8.67554 48.8839 9.14821C48.8839 9.65364 48.8547 10.1591 48.806 10.6598C48.7573 11.1512 48.7573 11.6379 48.8839 12.1153C48.9521 12.368 48.9082 12.6207 48.879 12.8781C48.8206 13.3788 48.7963 13.8842 48.7622 14.3897C48.7524 14.5113 48.7573 14.6377 48.7037 14.7687C46.0551 14.6283 43.4112 14.4879 40.7528 14.3429C40.7528 14.3429 40.7431 14.2633 40.7431 14.2586C40.7382 14.2259 40.7333 14.1931 40.7285 14.1604C40.7187 14.0948 40.7139 14.034 40.709 13.9685C40.7041 13.903 40.709 13.8421 40.7139 13.7813V13.7579C40.7139 13.7345 40.7187 13.7064 40.7236 13.6877C40.7285 13.6643 40.7333 13.6362 40.7382 13.6128C40.7528 13.5567 40.7674 13.5005 40.7918 13.4443C40.7966 13.435 40.7966 13.4303 40.8015 13.4209C40.8064 13.4163 40.8161 13.4116 40.8258 13.4069C40.9524 13.3601 41.0742 13.3133 41.2007 13.2665C41.2154 13.2618 41.2202 13.2431 41.23 13.2291C41.2397 13.215 41.2494 13.201 41.264 13.1869C41.2738 13.1776 41.2884 13.1682 41.2981 13.1589C41.3176 13.1401 41.3273 13.1167 41.3371 13.0933C41.3566 13.0559 41.376 13.0138 41.3906 12.9763C41.4004 12.9576 41.4101 12.9389 41.415 12.9249C41.415 12.9202 41.415 12.9155 41.4199 12.9108C41.4345 12.8874 41.4685 12.8687 41.488 12.8547C41.5318 12.8219 41.5708 12.7845 41.6 12.7424C41.561 12.7611 41.5318 12.7845 41.4929 12.8079C41.4783 12.8172 41.4588 12.8266 41.4393 12.8313C41.4345 12.8313 41.4296 12.8313 41.4199 12.836C41.415 12.836 41.415 12.8406 41.415 12.8406C41.4052 12.85 41.3955 12.864 41.3858 12.8781C41.3663 12.9062 41.3468 12.9342 41.3273 12.9623C41.303 12.9951 41.2787 13.0278 41.2543 13.0653C41.23 13.1027 41.2154 13.1401 41.1764 13.1589C41.1667 13.1635 41.1521 13.1682 41.1375 13.1729C41.0157 13.2103 40.8891 13.2525 40.7674 13.2899C40.7431 13.2993 40.7187 13.3039 40.6944 13.3227V13.2759C40.6993 13.2525 40.6944 13.2291 40.6993 13.2103V13.1167C40.6993 13.0512 40.6944 12.9904 40.6944 12.9249C40.6895 12.7985 40.6798 12.6722 40.6749 12.5505C40.636 12.3165 40.6311 12.0731 40.6652 11.8298ZM40.5581 14.867C40.6262 14.8155 40.7139 14.8296 40.7918 14.8343C42.3547 14.9185 43.9176 14.9981 45.4805 15.0823C46.503 15.1385 47.5255 15.1946 48.5528 15.2461C48.6015 15.2508 48.6502 15.2601 48.7037 15.2648C48.8011 15.452 48.879 15.6439 48.9375 15.8779C45.9528 15.6907 42.9925 15.5082 39.9787 15.321C40.1831 15.1244 40.3779 15.0027 40.5581 14.867ZM49.0933 17.9979C48.8742 18.0306 48.6599 18.0025 48.4603 17.9791C48.4506 17.9791 48.4408 17.9698 48.436 17.9651C48.4262 17.9604 48.4213 17.9557 48.4116 17.9464C48.397 17.937 48.3824 17.923 48.3678 17.9089C48.3386 17.8809 48.3191 17.8434 48.2899 17.8153C48.2801 17.806 48.2655 17.7966 48.2607 17.7873C48.2509 17.7685 48.2461 17.7498 48.2412 17.7311C48.2412 17.7264 48.2412 17.7217 48.2363 17.7124C48.2315 17.7077 48.2266 17.703 48.2266 17.6937C48.2022 17.6656 48.1828 17.6375 48.1682 17.6047C48.1633 17.5954 48.1633 17.5813 48.1633 17.572C48.1682 17.5439 48.1536 17.5158 48.1438 17.4924C48.139 17.469 48.1341 17.4503 48.1292 17.4269C48.1292 17.4222 48.1243 17.4129 48.1195 17.4082C48.1097 17.3941 48.0951 17.3848 48.0805 17.3754C48.0464 17.338 48.0124 17.3052 47.9783 17.2725C47.9637 17.2584 47.9491 17.2491 47.9345 17.2397C47.9442 17.2444 47.9491 17.2584 47.9588 17.2678C47.9637 17.2772 47.9734 17.2865 47.9831 17.2959C47.9978 17.3146 48.0124 17.3333 48.0221 17.3614C48.0221 17.3707 48.0318 17.3848 48.0367 17.3941C48.0513 17.4222 48.061 17.4456 48.0659 17.4737C48.0757 17.5111 48.0805 17.5486 48.0805 17.586C48.0854 17.6188 48.0854 17.6562 48.0903 17.689C48.0903 17.689 48.1146 17.6983 48.1195 17.6983C48.1243 17.703 48.1243 17.7124 48.1243 17.7217C48.1341 17.7451 48.1487 17.7685 48.1633 17.7919C48.1682 17.8013 48.173 17.8107 48.1779 17.82V17.8996C48.1779 17.9089 48.1779 17.923 48.173 17.9323C48.1633 17.9464 48.1438 17.9557 48.1487 17.9745C48.1292 17.9745 48.1 17.9791 48.0805 17.9745C48.0757 17.9745 48.0708 17.9745 48.0659 17.9698C48.0318 17.9651 48.0026 17.9651 47.9685 17.9651C47.9052 17.9604 47.8419 17.9557 47.7787 17.9557C47.2285 17.923 46.6783 17.8855 46.1281 17.8528C45.5779 17.82 45.0277 17.7826 44.4775 17.7498C43.9273 17.7171 43.3772 17.6796 42.827 17.6469C42.2768 17.6141 41.7266 17.5767 41.1764 17.5439C40.8989 17.5252 40.6262 17.5111 40.3487 17.4924C40.2124 17.4831 40.0712 17.4737 39.9348 17.469C39.8667 17.4643 39.7985 17.4597 39.7303 17.455C39.7157 17.455 39.5307 17.4456 39.5307 17.4409V16.9917L39.5356 16.987C39.5404 16.9823 39.5404 16.9823 39.5453 16.9776C39.5502 16.9683 39.5551 16.9636 39.5599 16.9542C39.5745 16.9355 39.5843 16.9215 39.5989 16.9028C39.6135 16.884 39.633 16.8653 39.6476 16.8466C39.6524 16.8372 39.6573 16.8326 39.6622 16.8232C39.6719 16.8138 39.6865 16.8045 39.6963 16.7998C39.7109 16.7904 39.7255 16.7858 39.7401 16.7764C39.7693 16.7624 39.7985 16.7483 39.8326 16.739C39.8569 16.7296 39.8813 16.7249 39.9056 16.7296C39.9251 16.7343 39.9446 16.7436 39.9592 16.7577C40.0127 16.7951 40.0712 16.8326 40.1345 16.8466C40.1491 16.8513 40.1539 16.8372 40.1637 16.8326C40.188 16.8092 40.2172 16.7904 40.2416 16.7764C40.2464 16.7717 40.2562 16.767 40.261 16.767C40.2757 16.7577 40.2903 16.753 40.3049 16.7436C40.3633 16.7202 40.4266 16.7156 40.4899 16.7109C40.4461 16.6968 40.3974 16.6875 40.3438 16.6828C40.3146 16.6828 40.2854 16.6828 40.261 16.6968C40.2562 16.7015 40.2513 16.7062 40.2513 16.7062C40.2464 16.7109 40.2367 16.7156 40.2318 16.7202L40.188 16.7483C40.1831 16.7483 40.1831 16.753 40.1783 16.753C40.1685 16.7577 40.1588 16.7624 40.1539 16.7717C40.1491 16.7764 40.1345 16.7858 40.1247 16.7858C40.1199 16.7858 40.1101 16.7811 40.1004 16.7764C40.0955 16.7717 40.0858 16.7717 40.0809 16.767C40.0663 16.7577 40.0517 16.7483 40.0419 16.7436C40.003 16.7156 39.964 16.6781 39.9251 16.6454C39.9202 16.6407 39.9154 16.6407 39.9105 16.636H39.891C39.8764 16.6407 39.8618 16.6407 39.8472 16.6454C39.8375 16.6454 39.8326 16.65 39.8228 16.65H39.8082C39.7936 16.65 39.779 16.6547 39.7644 16.6547C39.7449 16.6594 39.7206 16.6641 39.7011 16.6688C39.6378 16.6828 39.5794 16.6968 39.5161 16.7156V15.7749C42.7101 15.9715 45.8944 16.1727 49.0933 16.3693V17.9979ZM51.0749 16.0276V15.9574C51.0749 15.9434 51.0749 15.9247 51.0846 15.9106C51.0895 15.9013 51.0895 15.8966 51.0944 15.8919C51.0944 15.8872 51.0993 15.8872 51.0993 15.8826C51.1139 15.8592 51.1285 15.8358 51.1479 15.8124C51.2307 15.7188 51.2794 15.6111 51.2697 15.4801C51.3232 15.4426 51.3768 15.4005 51.4693 15.4052C51.5034 15.8638 51.479 16.3412 51.4644 16.8279C50.8509 17.1789 50.2375 17.5299 49.5996 17.8902V16.3037C50.0963 16.051 50.588 15.803 51.0846 15.555C51.0993 15.5737 51.109 15.5971 51.1139 15.6205C51.1187 15.6345 51.1139 15.6532 51.1139 15.6673C51.1139 15.6766 51.109 15.6813 51.1041 15.6907C51.1041 15.6954 51.0993 15.7 51.0944 15.7094C51.0895 15.7141 51.0798 15.7234 51.0749 15.7281C51.0652 15.7328 51.0603 15.7422 51.0506 15.7515C51.0408 15.7609 51.0311 15.7749 51.0262 15.7843C51.0213 15.789 51.0165 15.7936 51.0165 15.803C51.0116 15.8077 51.0067 15.817 51.0067 15.8264C50.9921 15.8498 50.9775 15.8779 50.9581 15.9013C50.9483 15.9106 50.9386 15.9247 50.9386 15.9387C50.9386 15.9434 50.9386 15.9481 50.9434 15.9527V16.1353C50.9434 16.168 50.9483 16.1961 50.9483 16.2289C50.9483 16.2523 50.9434 16.285 50.9288 16.3037L50.9142 16.3178C50.9142 16.3178 50.9094 16.3225 50.9094 16.3271C50.9094 16.3318 50.9045 16.3318 50.8996 16.3365C50.8655 16.3739 50.8217 16.402 50.7779 16.4301C50.8071 16.4254 50.8363 16.4207 50.8607 16.4067C50.8802 16.3973 50.8996 16.3833 50.924 16.3739C50.9288 16.3739 50.9337 16.3646 50.9434 16.3646C50.9434 16.3646 50.9434 16.3646 50.9483 16.3646C50.9581 16.3505 50.9629 16.3365 50.9727 16.3178C50.9775 16.3131 50.9775 16.3037 50.9824 16.2944C50.9873 16.285 50.9873 16.2803 50.9921 16.271C50.9921 16.2663 50.997 16.2616 50.997 16.2569C51.0019 16.2382 51.0067 16.2195 51.0165 16.2008C51.0213 16.1914 51.0213 16.1821 51.0262 16.1727C51.0262 16.168 51.0311 16.1633 51.0311 16.154C51.0311 16.1446 51.0311 16.1353 51.036 16.1306C51.036 16.1212 51.0408 16.1119 51.0506 16.1072C51.0554 16.1072 51.0554 16.1072 51.0603 16.1072L51.0749 16.0276Z" stroke="#362745" stroke-width="0.5" stroke-miterlimit="10"/>
<path d="M45.5146 7.85183C45.3978 8.02031 45.388 8.24962 45.4708 8.43682C45.4951 8.49298 45.5292 8.54446 45.5828 8.57722C45.6899 8.63805 45.8262 8.5819 45.9382 8.52574C46.0843 8.45086 46.2352 8.36194 46.2937 8.21219C46.3375 8.10455 46.318 7.97819 46.2644 7.87523C46.2352 7.80972 46.1914 7.75356 46.1427 7.70208C46.1086 7.66932 46.0794 7.6272 46.0259 7.62252C45.9041 7.6038 45.7727 7.64124 45.6704 7.70208C45.6071 7.7442 45.5536 7.79568 45.5146 7.85183Z" fill="#6B00FA" stroke="#362745" stroke-width="0.5" stroke-miterlimit="10"/>
<path d="M43.2993 7.88458C43.2603 7.9501 43.2311 8.02029 43.2262 8.09517C43.2165 8.22153 43.2798 8.33852 43.3382 8.45084C43.3479 8.47424 43.3625 8.49764 43.382 8.51168C43.4015 8.52572 43.4258 8.5304 43.4502 8.53508C43.6936 8.56784 43.9468 8.47424 44.1026 8.29173C44.1318 8.25429 44.1562 8.21685 44.1708 8.17473C44.1903 8.10921 44.1903 8.04369 44.1854 7.97817C44.1805 7.88458 44.1708 7.77694 44.0978 7.71142C44.0637 7.67866 44.0199 7.65526 43.976 7.63654C43.9225 7.60846 43.8592 7.57571 43.8007 7.55699C43.7569 7.54763 43.7034 7.56167 43.6644 7.5757C43.5622 7.60846 43.4745 7.67398 43.4015 7.74886C43.382 7.77226 43.3625 7.79098 43.3431 7.81438C43.3333 7.82842 43.3236 7.83778 43.3187 7.85182C43.3139 7.8565 43.309 7.87522 43.2993 7.88458Z" fill="#6B00FA" stroke="#362745" stroke-width="0.5" stroke-miterlimit="10"/>
<path d="M43.6109 8.66616C43.2408 8.66616 42.939 8.37601 42.939 8.02033C42.939 7.66466 43.2408 7.37451 43.6109 7.37451C43.9809 7.37451 44.2828 7.66466 44.2828 8.02033C44.2828 8.37601 43.9809 8.66616 43.6109 8.66616ZM43.6109 7.56171C43.348 7.56171 43.1337 7.76762 43.1337 8.02033C43.1337 8.27305 43.348 8.47896 43.6109 8.47896C43.8738 8.47896 44.088 8.27305 44.088 8.02033C44.088 7.76762 43.8738 7.56171 43.6109 7.56171Z" fill="#362745"/>
<path d="M45.7727 8.71291C45.4026 8.71291 45.1008 8.42276 45.1008 8.06709C45.1008 7.71142 45.4026 7.42126 45.7727 7.42126C46.1427 7.42126 46.4446 7.71142 46.4446 8.06709C46.4446 8.42276 46.1427 8.71291 45.7727 8.71291ZM45.7727 7.60846C45.5098 7.60846 45.2955 7.81437 45.2955 8.06709C45.2955 8.3198 45.5098 8.52572 45.7727 8.52572C46.0356 8.52572 46.2498 8.3198 46.2498 8.06709C46.2498 7.81437 46.0356 7.60846 45.7727 7.60846Z" fill="#362745"/>
<path d="M43.2993 8.43683C43.2311 8.33855 43.0655 8.22623 43.0655 8.11392C43.0655 7.78165 43.231 7.51489 43.5767 7.51489C43.5816 7.51489 43.8348 7.51489 43.8397 7.51489C43.8787 7.55233 43.9176 7.58509 43.9468 7.62253C43.903 7.61317 43.864 7.60849 43.8202 7.60849C43.533 7.60849 43.2944 7.83312 43.2944 8.11392C43.2944 8.24963 43.3479 8.37131 43.4405 8.46491L43.2993 8.43683Z" fill="#362745"/>
<path d="M45.6169 8.52106C45.5682 8.51638 45.3052 8.41831 45.2566 8.40895C45.1884 8.31067 45.2565 7.94564 45.2565 7.82397C45.2565 7.50574 45.6558 7.53849 45.982 7.51978L46.0794 7.65996C46.0502 7.65528 46.0161 7.6506 45.9821 7.6506C45.6948 7.6506 45.4562 7.87524 45.4562 8.15603C45.4611 8.3011 45.5195 8.42746 45.6169 8.52106Z" fill="#362745"/>
</svg>
