<svg width="30" height="30" viewBox="0 0 30 30" fill="none" xmlns="http://www.w3.org/2000/svg">
<rect width="30" height="30" rx="7" fill="#8E8D93"/>
<path d="M15.3117 25C15.4915 25 15.7512 24.9301 16.011 24.8002C21.7353 21.8531 23.6334 20.3047 23.6334 16.7183V9.2957C23.6334 8.11688 23.1738 7.68731 22.1848 7.27772C21.0859 6.81818 17.4296 5.52947 16.3606 5.16983C16.031 5.06993 15.6613 5 15.3117 5C14.972 5 14.6024 5.06993 14.2727 5.16983C13.1938 5.50949 9.53746 6.82817 8.44855 7.27772C7.45954 7.67732 7 8.11688 7 9.2957V16.7183C7 20.3047 8.97802 21.7133 14.6224 24.8002C14.8821 24.9401 15.1419 25 15.3117 25ZM11.5954 18.4665V14.4306C11.5954 13.7213 11.8851 13.3516 12.4645 13.2917V12.1329C12.4645 10.2248 13.6234 8.93606 15.3117 8.93606C17.01 8.93606 18.1688 10.2248 18.1688 12.1329V13.2917C18.7483 13.3516 19.038 13.7213 19.038 14.4306V18.4665C19.038 19.2657 18.6783 19.6254 17.9491 19.6254H12.6843C11.955 19.6254 11.5954 19.2657 11.5954 18.4665ZM13.7033 13.2717H16.9301V12.023C16.9301 10.8841 16.2807 10.1349 15.3117 10.1349C14.3427 10.1349 13.7033 10.8941 13.7033 12.023V13.2717Z" fill="white"/>
</svg>
