<svg width="30" height="30" viewBox="0 0 30 30" fill="none" xmlns="http://www.w3.org/2000/svg">
<rect width="30" height="30" rx="7" fill="#8E8D93"/>
<path d="M7 16.7207C7 20.2999 8.96657 21.706 14.6106 24.7935C14.8663 24.9312 15.1318 25 15.2989 25C15.4759 25 15.7414 24.9312 15.9971 24.7935C21.6411 21.7158 23.6077 20.2999 23.6077 16.7207V9.27729C23.6077 8.11701 23.1554 7.70403 22.1819 7.29105C21.0905 6.82891 17.4031 5.53097 16.3215 5.17699C16.0069 5.06883 15.6332 5 15.2989 5C14.9744 5 14.6008 5.0885 14.2763 5.17699C13.2045 5.47198 9.51721 6.83874 8.42576 7.29105C7.45231 7.6942 7 8.11701 7 9.27729V16.7207ZM8.83874 16.3471V14.7542H15.2989V6.84857C15.4464 6.84857 15.5939 6.87807 15.8102 6.95674C17.1377 7.47788 19.94 8.47099 21.4149 9.00197C21.6903 9.1003 21.7591 9.24779 21.7591 9.59194V14.7542H15.2989V22.9351C15.1613 22.9351 15.0236 22.8859 14.7384 22.7089C10.235 19.9754 8.83874 19.2281 8.83874 16.3471Z" fill="white"/>
</svg>
