<svg width="65" height="44" viewBox="0 0 65 44" fill="none" xmlns="http://www.w3.org/2000/svg">
<path d="M20.43 13.8913C20.43 14.341 20.9575 14.681 21.6827 14.681H31.2432L26.2157 23.6635C25.5399 24.8589 27.4025 25.4951 28.5893 24.5299L43.9849 11.8513C44.2816 11.5991 44.43 11.3688 44.43 11.1165C44.43 10.6559 43.9025 10.3268 43.1772 10.3268H33.6168L38.6443 1.33338C39.3201 0.137904 37.4575 -0.498219 36.2707 0.4779L20.8915 13.1565C20.5948 13.3978 20.43 13.6281 20.43 13.8913Z" fill="#A2A2A2"/>
<path d="M3.74599 40.259C4.25733 40.259 4.69933 40.116 5.07199 39.83C5.45333 39.5353 5.74799 39.1237 5.95599 38.595C6.16399 38.0577 6.26799 37.425 6.26799 36.697C6.26799 35.6397 6.03833 34.8033 5.57899 34.188C5.11966 33.5727 4.50866 33.265 3.74599 33.265C2.98333 33.265 2.37233 33.5727 1.91299 34.188C1.45366 34.8033 1.22399 35.6397 1.22399 36.697C1.22399 37.425 1.32799 38.0577 1.53599 38.595C1.74399 39.1237 2.03866 39.5353 2.41999 39.83C2.80133 40.116 3.24333 40.259 3.74599 40.259ZM6.35899 43.145C5.57033 43.145 4.91166 42.95 4.38299 42.56C3.85433 42.1787 3.46433 41.6977 3.21299 41.117C2.59766 41.0303 2.05599 40.7963 1.58799 40.415C1.11999 40.0337 0.755993 39.5267 0.495993 38.894C0.235993 38.2613 0.105993 37.529 0.105993 36.697C0.105993 35.787 0.257659 35.007 0.560993 34.357C0.872993 33.6983 1.30199 33.1957 1.84799 32.849C2.40266 32.4937 3.03533 32.316 3.74599 32.316C4.46533 32.316 5.09799 32.4937 5.64399 32.849C6.18999 33.1957 6.61899 33.6983 6.93099 34.357C7.24299 35.007 7.39899 35.787 7.39899 36.697C7.39899 37.5117 7.27333 38.231 7.02199 38.855C6.77066 39.479 6.41966 39.986 5.96899 40.376C5.51833 40.7573 4.98966 41 4.38299 41.104C4.58233 41.4767 4.86399 41.7583 5.22799 41.949C5.60066 42.1397 6.01666 42.235 6.47599 42.235C6.66666 42.235 6.83566 42.222 6.98299 42.196C7.13033 42.1787 7.26033 42.1527 7.37299 42.118L7.58099 42.95C7.45099 43.002 7.27766 43.0453 7.06099 43.08C6.84433 43.1233 6.61033 43.145 6.35899 43.145ZM10.7148 41.156C10.0475 41.156 9.5578 40.948 9.24581 40.532C8.93381 40.1073 8.7778 39.492 8.7778 38.686V34.682H9.85681V38.543C9.85681 39.1323 9.94781 39.5613 10.1298 39.83C10.3205 40.0987 10.6238 40.233 11.0398 40.233C11.3691 40.233 11.6595 40.1507 11.9108 39.986C12.1708 39.8127 12.4481 39.5397 12.7428 39.167V34.682H13.8088V41H12.9248L12.8338 40.012H12.7948C12.5001 40.3587 12.1881 40.636 11.8588 40.844C11.5295 41.052 11.1481 41.156 10.7148 41.156ZM15.6801 41V34.682H16.7461V41H15.6801ZM16.2261 33.382C16.0181 33.382 15.8448 33.3213 15.7061 33.2C15.5761 33.07 15.5111 32.8967 15.5111 32.68C15.5111 32.472 15.5761 32.303 15.7061 32.173C15.8448 32.043 16.0181 31.978 16.2261 31.978C16.4341 31.978 16.6031 32.043 16.7331 32.173C16.8718 32.303 16.9411 32.472 16.9411 32.68C16.9411 32.8967 16.8718 33.07 16.7331 33.2C16.6031 33.3213 16.4341 33.382 16.2261 33.382ZM21.1153 41.156C20.5606 41.156 20.058 41.026 19.6073 40.766C19.1566 40.506 18.8013 40.129 18.5413 39.635C18.2813 39.141 18.1513 38.5473 18.1513 37.854C18.1513 37.1433 18.29 36.541 18.5673 36.047C18.8533 35.553 19.226 35.176 19.6853 34.916C20.1533 34.656 20.656 34.526 21.1933 34.526C21.6093 34.526 21.9646 34.5997 22.2593 34.747C22.5626 34.8943 22.8226 35.0677 23.0393 35.267L22.4933 35.969C22.3113 35.8043 22.1163 35.67 21.9083 35.566C21.709 35.462 21.4836 35.41 21.2323 35.41C20.851 35.41 20.5086 35.514 20.2053 35.722C19.9106 35.9213 19.6766 36.2073 19.5033 36.58C19.3386 36.944 19.2563 37.3687 19.2563 37.854C19.2563 38.5733 19.434 39.1583 19.7893 39.609C20.1533 40.051 20.6256 40.272 21.2063 40.272C21.501 40.272 21.774 40.2113 22.0253 40.09C22.2766 39.96 22.4976 39.8083 22.6883 39.635L23.1563 40.35C22.8703 40.6013 22.554 40.8007 22.2073 40.948C21.8606 41.0867 21.4966 41.156 21.1153 41.156ZM24.288 41V31.744H25.341V38.01H25.38L28.071 34.682H29.254L27.135 37.217L29.54 41H28.37L26.524 37.958L25.341 39.336V41H24.288ZM34.3801 36.229L33.9771 37.529H36.5381L36.1351 36.229C35.9791 35.7523 35.8318 35.28 35.6931 34.812C35.5544 34.3353 35.4158 33.85 35.2771 33.356H35.2251C35.0951 33.85 34.9608 34.3353 34.8221 34.812C34.6834 35.28 34.5361 35.7523 34.3801 36.229ZM31.7801 41L34.6661 32.472H35.8881L38.7741 41H37.6171L36.8111 38.4H33.7041L32.8851 41H31.7801ZM42.1144 41.156C41.5597 41.156 41.057 41.026 40.6064 40.766C40.1557 40.506 39.8004 40.129 39.5404 39.635C39.2804 39.141 39.1504 38.5473 39.1504 37.854C39.1504 37.1433 39.289 36.541 39.5664 36.047C39.8524 35.553 40.225 35.176 40.6844 34.916C41.1524 34.656 41.655 34.526 42.1924 34.526C42.6084 34.526 42.9637 34.5997 43.2584 34.747C43.5617 34.8943 43.8217 35.0677 44.0384 35.267L43.4924 35.969C43.3104 35.8043 43.1154 35.67 42.9074 35.566C42.708 35.462 42.4827 35.41 42.2314 35.41C41.85 35.41 41.5077 35.514 41.2044 35.722C40.9097 35.9213 40.6757 36.2073 40.5024 36.58C40.3377 36.944 40.2554 37.3687 40.2554 37.854C40.2554 38.5733 40.433 39.1583 40.7884 39.609C41.1524 40.051 41.6247 40.272 42.2054 40.272C42.5 40.272 42.773 40.2113 43.0244 40.09C43.2757 39.96 43.4967 39.8083 43.6874 39.635L44.1554 40.35C43.8694 40.6013 43.553 40.8007 43.2064 40.948C42.8597 41.0867 42.4957 41.156 42.1144 41.156ZM47.1491 41.156C46.4731 41.156 46.0008 40.961 45.7321 40.571C45.4721 40.181 45.3421 39.674 45.3421 39.05V35.553H44.4061V34.747L45.3941 34.682L45.5241 32.914H46.4211V34.682H48.1241V35.553H46.4211V39.063C46.4211 39.453 46.4905 39.7563 46.6291 39.973C46.7765 40.181 47.0321 40.285 47.3961 40.285C47.5088 40.285 47.6301 40.2677 47.7601 40.233C47.8901 40.1897 48.0071 40.1507 48.1111 40.116L48.3191 40.922C48.1458 40.9827 47.9551 41.0347 47.7471 41.078C47.5478 41.13 47.3485 41.156 47.1491 41.156ZM49.2927 41V34.682H50.3587V41H49.2927ZM49.8387 33.382C49.6307 33.382 49.4574 33.3213 49.3187 33.2C49.1887 33.07 49.1237 32.8967 49.1237 32.68C49.1237 32.472 49.1887 32.303 49.3187 32.173C49.4574 32.043 49.6307 31.978 49.8387 31.978C50.0467 31.978 50.2157 32.043 50.3457 32.173C50.4844 32.303 50.5537 32.472 50.5537 32.68C50.5537 32.8967 50.4844 33.07 50.3457 33.2C50.2157 33.3213 50.0467 33.382 49.8387 33.382ZM54.6889 41.156C54.1776 41.156 53.6966 41.026 53.2459 40.766C52.8039 40.506 52.4443 40.129 52.1669 39.635C51.8983 39.141 51.7639 38.5473 51.7639 37.854C51.7639 37.1433 51.8983 36.541 52.1669 36.047C52.4443 35.553 52.8039 35.176 53.2459 34.916C53.6966 34.656 54.1776 34.526 54.6889 34.526C55.2089 34.526 55.6899 34.656 56.1319 34.916C56.5739 35.176 56.9293 35.553 57.1979 36.047C57.4753 36.541 57.6139 37.1433 57.6139 37.854C57.6139 38.5473 57.4753 39.141 57.1979 39.635C56.9293 40.129 56.5739 40.506 56.1319 40.766C55.6899 41.026 55.2089 41.156 54.6889 41.156ZM54.6889 40.272C55.2349 40.272 55.6726 40.051 56.0019 39.609C56.3399 39.1583 56.5089 38.5733 56.5089 37.854C56.5089 37.126 56.3399 36.5367 56.0019 36.086C55.6726 35.6353 55.2349 35.41 54.6889 35.41C54.1516 35.41 53.7139 35.6353 53.3759 36.086C53.0379 36.5367 52.8689 37.126 52.8689 37.854C52.8689 38.5733 53.0379 39.1583 53.3759 39.609C53.7139 40.051 54.1516 40.272 54.6889 40.272ZM59.0178 41V34.682H59.9018L59.9928 35.592H60.0318C60.3352 35.2887 60.6558 35.0373 60.9938 34.838C61.3318 34.63 61.7175 34.526 62.1508 34.526C62.8182 34.526 63.3035 34.7383 63.6068 35.163C63.9188 35.579 64.0748 36.19 64.0748 36.996V41H63.0088V37.139C63.0088 36.5497 62.9135 36.1207 62.7228 35.852C62.5322 35.5833 62.2288 35.449 61.8128 35.449C61.4922 35.449 61.2018 35.5313 60.9418 35.696C60.6905 35.8607 60.4045 36.1033 60.0838 36.424V41H59.0178Z" fill="#717171"/>
</svg>
