<svg width="121" height="118" viewBox="0 0 121 118" fill="none" xmlns="http://www.w3.org/2000/svg">
<path d="M37.3723 88.2336L26.9769 117.061H8.82739L49.9139 7.10016H60.4745H71.035L112.116 117.061H93.4717L60.3042 22.4257L42.3198 73.7416L37.3723 88.2336Z" fill="#E3E3E3"/>
<path d="M14.3576 102.564H0V117.061H14.3576V102.564Z" fill="#E3E3E3"/>
<path d="M71.9321 11.5697C71.9321 17.9614 49.0156 17.9614 49.0156 11.5697C49.0156 8.50119 50.2228 5.5584 52.3717 3.38867C54.5205 1.21894 57.4349 0 60.4739 0C63.5128 0 66.4272 1.21894 68.576 3.38867C70.7249 5.5584 71.9321 8.50119 71.9321 11.5697" fill="#E3E3E3"/>
<path d="M121 102.564H106.642V117.061H121V102.564Z" fill="#E3E3E3"/>
</svg>
