<svg width="30" height="30" viewBox="0 0 30 30" fill="none" xmlns="http://www.w3.org/2000/svg">
<rect width="30" height="30" rx="7" fill="#60BBA7"/>
<path d="M15 25L14.8999 24.8499C14.2053 23.808 13.858 23.287 13.3991 22.9098C12.9929 22.5759 12.5248 22.3254 12.0216 22.1726C11.4533 22 10.8271 22 9.57482 22H8.2C7.07989 22 6.51984 22 6.09202 21.782C5.71569 21.5903 5.40973 21.2843 5.21799 20.908C5 20.4802 5 19.9201 5 18.8V10.2C5 9.07989 5 8.51984 5.21799 8.09202C5.40973 7.71569 5.71569 7.40973 6.09202 7.21799C6.51984 7 7.07989 7 8.2 7H8.6C10.8402 7 11.9603 7 12.816 7.43597C13.5686 7.81947 14.1805 8.43139 14.564 9.18404C15 10.0397 15 11.1598 15 13.4M15 25V13.4M15 25L15.1001 24.8499C15.7947 23.808 16.142 23.287 16.6009 22.9098C17.0071 22.5759 17.4752 22.3254 17.9784 22.1726C18.5467 22 19.1729 22 20.4252 22H21.8C22.9201 22 23.4802 22 23.908 21.782C24.2843 21.5903 24.5903 21.2843 24.782 20.908C25 20.4802 25 19.9201 25 18.8V10.2C25 9.07989 25 8.51984 24.782 8.09202C24.5903 7.71569 24.2843 7.40973 23.908 7.21799C23.4802 7 22.9201 7 21.8 7H21.4C19.1598 7 18.0397 7 17.184 7.43597C16.4314 7.81947 15.8195 8.43139 15.436 9.18404C15 10.0397 15 11.1598 15 13.4" stroke="white" stroke-width="2" stroke-linecap="round" stroke-linejoin="round"/>
</svg>
