<svg width="31" height="30" viewBox="0 0 31 30" fill="none" xmlns="http://www.w3.org/2000/svg">
<circle cx="15.1499" cy="15" r="15" fill="#8247E5"/>
<path d="M19.8625 11.9458C19.5247 11.7592 19.0902 11.7592 18.7041 11.9458L16.001 13.4846L14.1667 14.4638L11.5118 16.0026C11.174 16.1891 10.7395 16.1891 10.3534 16.0026L8.27776 14.7902C7.93987 14.6037 7.69852 14.2306 7.69852 13.811V11.4795C7.69852 11.1064 7.8916 10.7334 8.27776 10.5002L10.3534 9.33449C10.6913 9.14797 11.1257 9.14797 11.5118 9.33449L13.5875 10.5469C13.9253 10.7334 14.1667 11.1064 14.1667 11.5261V13.0649L16.001 12.039V10.4536C16.001 10.0806 15.8079 9.70753 15.4217 9.47438L11.5601 7.28277C11.2222 7.09625 10.7878 7.09625 10.4016 7.28277L6.4435 9.52101C6.05734 9.70753 5.86426 10.0806 5.86426 10.4536V14.8368C5.86426 15.2099 6.05734 15.5829 6.4435 15.8161L10.3534 18.0077C10.6913 18.1942 11.1257 18.1942 11.5118 18.0077L14.1667 16.5155L16.001 15.4896L18.6558 13.9975C18.9937 13.811 19.4281 13.811 19.8143 13.9975L21.8899 15.1632C22.2278 15.3498 22.4691 15.7228 22.4691 16.1425V18.474C22.4691 18.847 22.276 19.22 21.8899 19.4532L19.8625 20.6189C19.5247 20.8055 19.0902 20.8055 18.7041 20.6189L16.6285 19.4532C16.2906 19.2667 16.0492 18.8936 16.0492 18.474V16.9818L14.215 18.0077V19.5464C14.215 19.9195 14.408 20.2925 14.7942 20.5257L18.7041 22.7173C19.042 22.9038 19.4764 22.9038 19.8625 22.7173L23.7724 20.5257C24.1103 20.3392 24.3517 19.9661 24.3517 19.5464V15.1166C24.3517 14.7436 24.1586 14.3705 23.7724 14.1374L19.8625 11.9458Z" fill="white"/>
</svg>
