<svg width="30" height="29" viewBox="0 0 30 29" fill="none" xmlns="http://www.w3.org/2000/svg">
<rect width="30" height="30" rx="7" fill="#5865F2"/>
<path d="M21.9308 8.2811C20.6561 7.68813 19.2892 7.25126 17.8599 7.00105C17.8339 6.99622 17.8079 7.00829 17.7945 7.03243C17.6187 7.34941 17.4239 7.76295 17.2876 8.08799C15.7503 7.85468 14.221 7.85468 12.7153 8.08799C12.5789 7.75573 12.3771 7.34941 12.2005 7.03243C12.1871 7.00909 12.1611 6.99703 12.135 7.00105C10.7066 7.25046 9.33963 7.68733 8.06411 8.2811C8.05307 8.28592 8.04361 8.29398 8.03732 8.30443C5.44449 12.2315 4.73421 16.062 5.08265 19.845C5.08423 19.8635 5.09447 19.8812 5.10867 19.8924C6.81934 21.166 8.47642 21.9392 10.1027 22.4517C10.1288 22.4598 10.1563 22.4501 10.1729 22.4284C10.5576 21.8958 10.9005 21.3342 11.1946 20.7437C11.2119 20.7091 11.1954 20.668 11.1599 20.6544C10.6159 20.4452 10.098 20.1901 9.59977 19.9005C9.56037 19.8772 9.55721 19.82 9.59346 19.7927C9.69831 19.713 9.80318 19.6301 9.9033 19.5465C9.92141 19.5312 9.94665 19.528 9.96794 19.5376C13.2411 21.0526 16.7846 21.0526 20.0191 19.5376C20.0404 19.5272 20.0657 19.5304 20.0846 19.5457C20.1847 19.6293 20.2895 19.713 20.3952 19.7927C20.4314 19.82 20.4291 19.8772 20.3897 19.9005C19.8914 20.1958 19.3735 20.4452 18.8288 20.6536C18.7933 20.6672 18.7775 20.7091 18.7949 20.7437C19.0952 21.3334 19.4381 21.895 19.8157 22.4276C19.8315 22.4501 19.8599 22.4598 19.8859 22.4517C21.5201 21.9392 23.1772 21.166 24.8879 19.8924C24.9028 19.8812 24.9123 19.8643 24.9139 19.8458C25.3309 15.4722 24.2154 11.6731 21.9568 8.30523C21.9513 8.29398 21.9419 8.28592 21.9308 8.2811ZM11.6834 17.5415C10.6979 17.5415 9.88594 16.6243 9.88594 15.498C9.88594 14.3716 10.6822 13.4544 11.6834 13.4544C12.6924 13.4544 13.4965 14.3796 13.4807 15.498C13.4807 16.6243 12.6845 17.5415 11.6834 17.5415ZM18.329 17.5415C17.3435 17.5415 16.5316 16.6243 16.5316 15.498C16.5316 14.3716 17.3278 13.4544 18.329 13.4544C19.338 13.4544 20.1421 14.3796 20.1264 15.498C20.1264 16.6243 19.338 17.5415 18.329 17.5415Z" fill="white"/>
</svg>
