<svg width="31" height="30" viewBox="0 0 31 30" fill="none" xmlns="http://www.w3.org/2000/svg">
<g clip-path="url(#clip0_11_8566)">
<path d="M15.3164 30C23.6007 30 30.3164 23.2843 30.3164 15C30.3164 6.71573 23.6007 0 15.3164 0C7.03214 0 0.316406 6.71573 0.316406 15C0.316406 23.2843 7.03214 30 15.3164 30Z" fill="url(#paint0_radial_11_8566)"/>
<g filter="url(#filter0_d_11_8566)">
<path d="M14.3407 7.8447C14.1843 8.0019 14.0695 8.19306 14.0034 8.40096L9.76562 19.6887H8.0564V21.42H11.2935L12.5409 17.9773L13.1345 16.2466L15.2925 10.1182L19.2724 21.42H22.5757V19.6887H20.8599L16.6225 8.4006C16.5564 8.19288 16.4415 8.00178 16.2852 7.8447C16.0273 7.58556 15.6776 7.44 15.313 7.44C14.9483 7.44 14.5986 7.58556 14.3407 7.8447Z" fill="white"/>
</g>
</g>
<defs>
<filter id="filter0_d_11_8566" x="4.0564" y="7.44" width="22.5193" height="21.98" filterUnits="userSpaceOnUse" color-interpolation-filters="sRGB">
<feFlood flood-opacity="0" result="BackgroundImageFix"/>
<feColorMatrix in="SourceAlpha" type="matrix" values="0 0 0 0 0 0 0 0 0 0 0 0 0 0 0 0 0 0 127 0" result="hardAlpha"/>
<feOffset dy="4"/>
<feGaussianBlur stdDeviation="2"/>
<feComposite in2="hardAlpha" operator="out"/>
<feColorMatrix type="matrix" values="0 0 0 0 0 0 0 0 0 0 0 0 0 0 0 0 0 0 0.25 0"/>
<feBlend mode="normal" in2="BackgroundImageFix" result="effect1_dropShadow_11_8566"/>
<feBlend mode="normal" in="SourceGraphic" in2="effect1_dropShadow_11_8566" result="shape"/>
</filter>
<radialGradient id="paint0_radial_11_8566" cx="0" cy="0" r="1" gradientUnits="userSpaceOnUse" gradientTransform="translate(0.316406) rotate(45) scale(42.4264 28.5265)">
<stop stop-color="#79A5C6"/>
<stop offset="0.616783" stop-color="#2A4874"/>
</radialGradient>
<clipPath id="clip0_11_8566">
<rect width="30" height="30" fill="white" transform="translate(0.316406)"/>
</clipPath>
</defs>
</svg>
