<svg width="25" height="25" viewBox="0 0 25 25" fill="none" xmlns="http://www.w3.org/2000/svg">
<path d="M25 18.5923V1.92563C25 0.780212 24.2369 0 23.0591 0H6.40345C5.29197 0 4.51228 0.830013 4.51228 1.80943C4.51228 2.77224 5.35833 3.56906 6.35368 3.56906H12.2595L19.4094 3.33665L16.3902 5.9927L0.580624 21.8293C0.199071 22.2112 0 22.676 0 23.1408C0 24.1036 0.87923 25 1.87459 25C2.33908 25 2.78699 24.8174 3.16855 24.4356L18.9947 8.59894L21.6821 5.57769L21.4001 12.4502V18.6421C21.4001 19.6381 22.1964 20.5013 23.1918 20.5013C24.1705 20.5013 25 19.6713 25 18.5923Z" fill="#A2A2A2"/>
</svg>
