<svg width="25" height="25" viewBox="0 0 25 25" fill="none" xmlns="http://www.w3.org/2000/svg">
<path d="M0 6.4077L0.0165782 23.0744C0.0165782 24.2198 0.762599 25 1.93966 25H18.6008C19.7115 25 20.4741 24.17 20.4741 23.1906C20.4741 22.2278 19.6452 21.4309 18.6505 21.4309H12.7487L5.60345 21.6633L8.62069 19.0073L24.4032 3.17065C24.7845 2.78884 25 2.32404 25 1.85923C25 0.896414 24.1048 0 23.1267 0C22.6625 0 22.1983 0.182603 21.817 0.564409L6.00133 16.4011L3.33223 19.4223L3.59748 12.5664V6.3579C3.59748 5.36189 2.80172 4.51527 1.82361 4.51527C0.845491 4.51527 0 5.32869 0 6.4077Z" fill="#A2A2A2"/>
</svg>
