<svg width="30" height="30" viewBox="0 0 30 30" fill="none" xmlns="http://www.w3.org/2000/svg">
<rect width="30" height="30" rx="7" fill="#60BBA7"/>
<path d="M14.9952 24.9903C20.4761 24.9903 25 20.4664 25 14.9952C25 9.52392 20.4664 5 14.9855 5C9.51426 5 5 9.52392 5 14.9952C5 20.4664 9.52392 24.9903 14.9952 24.9903ZM12.4432 13.0232C12.3949 12.6559 12.2305 12.3272 11.9792 12.0759C12.8009 10.0072 14.0962 8.14161 15.7782 6.60464C15.8845 6.61431 16.0005 6.63364 16.1165 6.64331C14.9275 8.7216 14.2122 11.0319 14.0285 13.4292C13.4872 13.3325 12.9555 13.1972 12.4432 13.0232ZM8.03528 10.2876C9.35959 8.35428 11.4572 6.98163 13.8642 6.64331C12.5205 8.11261 11.4572 9.79459 10.7419 11.6216C10.4616 11.6409 10.2102 11.7279 9.99758 11.8632C9.29193 11.4186 8.63461 10.8869 8.03528 10.2876ZM18.0884 10.3456C18.0788 9.33059 18.2044 8.31561 18.4848 7.33929C20.2731 8.17061 21.7424 9.61092 22.593 11.3896C21.6554 12.1049 20.6114 12.6462 19.5094 13.0232C19.2194 12.6752 18.7941 12.4529 18.3204 12.4432C18.1754 11.7569 18.0981 11.0609 18.0884 10.3456ZM16.7641 10.3456C16.7738 11.2446 16.8801 12.1339 17.0831 12.9845C16.9381 13.1489 16.8221 13.3519 16.7641 13.5645C16.5128 13.5839 16.2711 13.5935 16.0198 13.5935C15.7975 13.5935 15.5655 13.5935 15.3432 13.5742C15.4978 11.5152 16.0681 9.52392 17.0251 7.73562C16.8415 8.57661 16.7545 9.45626 16.7641 10.3456ZM6.57564 14.9952C6.57564 13.7482 6.8463 12.5689 7.34896 11.4959C7.93862 12.0565 8.58627 12.5592 9.2726 12.9845C9.26293 13.0619 9.25326 13.1295 9.25326 13.2069C9.25326 13.7289 9.50459 14.2025 9.90092 14.4925C9.71725 15.4302 9.62059 16.3968 9.61092 17.3635C8.53794 16.8415 7.52296 16.1745 6.58531 15.3818C6.57564 15.2562 6.57564 15.1208 6.57564 14.9952ZM23.4244 14.9952C23.4244 15.7588 23.318 16.5031 23.1247 17.2088C22.5834 17.4988 22.0324 17.7501 21.4717 17.9628C20.6017 17.1605 19.8864 16.2325 19.3354 15.2078C19.5868 14.9758 19.7704 14.6665 19.8381 14.3088C20.9981 13.9319 22.0904 13.3905 23.0957 12.6849C23.3084 13.4195 23.4244 14.1928 23.4244 14.9952ZM10.9352 17.9435C10.9062 16.8705 10.9932 15.8072 11.1866 14.7728C11.5152 14.7052 11.8149 14.5312 12.0372 14.2895C12.6655 14.4925 13.3132 14.6568 13.9802 14.7632C13.9899 15.9522 14.1252 17.1218 14.3765 18.2624C14.2122 18.3978 14.0768 18.5621 13.9802 18.7458C12.9459 18.5911 11.9212 18.3204 10.9352 17.9435ZM16.0198 14.9178C16.3291 14.9178 16.6385 14.9082 16.9478 14.8792C17.1895 15.2562 17.5858 15.5172 18.0401 15.5945C18.5718 16.6288 19.2484 17.5761 20.0604 18.4171C19.0164 18.6974 17.9435 18.8618 16.8705 18.9101C16.6675 18.3978 16.2131 18.0208 15.6718 17.9338C15.4495 16.9478 15.3238 15.9328 15.3142 14.8985C15.5462 14.9178 15.7878 14.9178 16.0198 14.9178ZM6.9043 17.3055C7.76462 17.9145 8.69261 18.4268 9.63992 18.8521C9.69792 19.8574 9.85259 20.8531 10.1136 21.8294C8.58627 20.7371 7.43596 19.1421 6.9043 17.3055ZM14.9952 23.4244C13.8739 23.4244 12.8009 23.1924 11.8149 22.7864C11.3992 21.6941 11.1286 20.5534 11.0126 19.3838C11.9502 19.7028 12.9169 19.9348 13.8835 20.0701C14.1058 20.6597 14.6568 21.0754 15.3142 21.1044C15.6332 21.8584 16.0198 22.593 16.4645 23.289C15.9908 23.376 15.4978 23.4244 14.9952 23.4244ZM16.5515 20.6114C16.6578 20.5051 16.7448 20.3697 16.8125 20.2344C18.3011 20.1764 19.7704 19.9251 21.2011 19.4611C21.4041 19.6254 21.6071 19.7704 21.8101 19.9154C20.8144 21.2881 19.4224 22.3514 17.8081 22.9314C17.3151 22.1967 16.8995 21.4234 16.5515 20.6114Z" fill="white"/>
</svg>
