<svg width="25" height="26" viewBox="0 0 25 26" fill="none" xmlns="http://www.w3.org/2000/svg">
<path d="M12.5059 11.1492C11.7739 11.1492 11.1859 11.7617 11.1859 12.5242C11.1859 13.2867 11.7739 13.8992 12.5059 13.8992C13.2379 13.8992 13.8259 13.2867 13.8259 12.5242C13.8259 11.7617 13.2379 11.1492 12.5059 11.1492ZM12.5059 0.0241699C5.88189 0.0241699 0.50589 5.62417 0.50589 12.5242C0.50589 19.4242 5.88189 25.0242 12.5059 25.0242C19.1299 25.0242 24.5059 19.4242 24.5059 12.5242C24.5059 5.62417 19.1299 0.0241699 12.5059 0.0241699ZM15.1339 15.2617L5.30589 20.0242L9.87789 9.78667L19.7059 5.02417L15.1339 15.2617Z" fill="#A2A2A2"/>
</svg>
