<svg width="40" height="40" viewBox="0 0 40 40" fill="none" xmlns="http://www.w3.org/2000/svg">
<g clip-path="url(#clip0_866_36102)">
<path d="M20 40C31.0457 40 40 31.0457 40 20C40 8.95431 31.0457 0 20 0C8.95431 0 0 8.95431 0 20C0 31.0457 8.95431 40 20 40Z" fill="url(#paint0_radial_866_36102)"/>
<g filter="url(#filter0_d_866_36102)">
<path d="M18.6991 10.4596C18.4906 10.6692 18.3374 10.9241 18.2493 11.2013L12.599 26.2516H10.32V28.56H14.6361L16.2993 23.9697L17.0908 21.6621L19.9682 13.4909L25.2747 28.56H29.6791V26.2516H27.3913L21.7414 11.2008C21.6533 10.9238 21.5002 10.669 21.2917 10.4596C20.9479 10.1141 20.4816 9.92 19.9954 9.92C19.5092 9.92 19.043 10.1141 18.6991 10.4596Z" fill="white"/>
</g>
</g>
<defs>
<filter id="filter0_d_866_36102" x="6.32001" y="9.92" width="27.3591" height="26.64" filterUnits="userSpaceOnUse" color-interpolation-filters="sRGB">
<feFlood flood-opacity="0" result="BackgroundImageFix"/>
<feColorMatrix in="SourceAlpha" type="matrix" values="0 0 0 0 0 0 0 0 0 0 0 0 0 0 0 0 0 0 127 0" result="hardAlpha"/>
<feOffset dy="4"/>
<feGaussianBlur stdDeviation="2"/>
<feComposite in2="hardAlpha" operator="out"/>
<feColorMatrix type="matrix" values="0 0 0 0 0 0 0 0 0 0 0 0 0 0 0 0 0 0 0.25 0"/>
<feBlend mode="normal" in2="BackgroundImageFix" result="effect1_dropShadow_866_36102"/>
<feBlend mode="normal" in="SourceGraphic" in2="effect1_dropShadow_866_36102" result="shape"/>
</filter>
<radialGradient id="paint0_radial_866_36102" cx="0" cy="0" r="1" gradientUnits="userSpaceOnUse" gradientTransform="rotate(45) scale(56.5686 38.0354)">
<stop stop-color="#08CBD0"/>
<stop offset="0.8125" stop-color="#2A4974"/>
</radialGradient>
<clipPath id="clip0_866_36102">
<rect width="40" height="40" fill="white"/>
</clipPath>
</defs>
</svg>
