<svg width="30" height="30" viewBox="0 0 30 30" fill="none" xmlns="http://www.w3.org/2000/svg">
<rect width="30" height="30" rx="7" fill="#27A6E6"/>
<path fill-rule="evenodd" clip-rule="evenodd" d="M6.3749 14.1352C11.7436 11.7962 15.3236 10.2541 17.1148 9.5091C22.2292 7.38186 23.2919 7.01233 23.9846 7.00013C24.1369 6.99745 24.4776 7.0352 24.6982 7.21424C24.8845 7.36542 24.9358 7.56964 24.9603 7.71298C24.9848 7.85631 25.0154 8.18283 24.9911 8.43796C24.714 11.35 23.5147 18.4167 22.9046 21.6783C22.6465 23.0583 22.1382 23.5211 21.6461 23.5663C20.5766 23.6648 19.7645 22.8596 18.7287 22.1806C17.1078 21.1181 16.1921 20.4567 14.6188 19.4199C12.8005 18.2217 13.9792 17.5631 15.0154 16.4869C15.2866 16.2052 19.9987 11.9192 20.0899 11.5304C20.1013 11.4818 20.1119 11.3005 20.0042 11.2048C19.8965 11.1091 19.7376 11.1418 19.6229 11.1678C19.4604 11.2047 16.871 12.9162 11.8549 16.3022C11.1199 16.8069 10.4542 17.0528 9.8577 17.0399C9.20015 17.0257 7.93528 16.6682 6.99498 16.3625C5.84166 15.9876 4.92503 15.7894 5.00485 15.1527C5.04642 14.8211 5.5031 14.4819 6.3749 14.1352Z" fill="white"/>
</svg>
