<svg width="30" height="30" viewBox="0 0 30 30" fill="none" xmlns="http://www.w3.org/2000/svg">
<rect width="30" height="30" rx="7" fill="#F0B90B"/>
<path d="M13 20.6586V23C13 24.1046 13.8954 25 15 25C16.1046 25 17 24.1046 17 23V20.6586M15 5V6M6 15H5M8.5 8.5L7.8999 7.8999M21.5 8.5L22.1002 7.8999M25 15H24M21 15C21 18.3137 18.3137 21 15 21C11.6863 21 9 18.3137 9 15C9 11.6863 11.6863 9 15 9C18.3137 9 21 11.6863 21 15Z" stroke="white" stroke-width="2" stroke-linecap="round" stroke-linejoin="round"/>
</svg>
