<svg width="36" height="26" viewBox="0 0 36 26" fill="none" xmlns="http://www.w3.org/2000/svg">
<g clip-path="url(#clip0_825_32023)">
<path d="M29.22 24.5556C31.0682 24.5556 31.9923 24.5556 32.6982 24.1958C33.3191 23.8791 33.824 23.3742 34.1403 22.7529C34.5 22.0466 34.5 21.1221 34.5 19.2731V6.72699C34.5 4.87793 34.5 3.9534 34.1403 3.24715C33.824 2.62593 33.3191 2.12085 32.6982 1.80431C31.9923 1.44446 31.0682 1.44446 29.22 1.44446H6.78C4.93184 1.44446 4.00775 1.44446 3.30183 1.80431C2.68089 2.12085 2.17607 2.62593 1.85968 3.24715C1.5 3.9534 1.5 4.87793 1.5 6.72699V19.2731C1.5 21.1221 1.5 22.0466 1.85968 22.7529C2.17607 23.3742 2.68089 23.8791 3.30183 24.1958C4.00775 24.5556 4.93182 24.5556 6.78 24.5556H29.22Z" fill="url(#paint0_radial_825_32023)"/>
<path d="M34.5 9.69843H1.5M16.35 16.3016H8.1M1.5 6.72699V19.2731C1.5 21.1221 1.5 22.0466 1.85968 22.7529C2.17607 23.3742 2.68089 23.8791 3.30183 24.1958C4.00775 24.5556 4.93182 24.5556 6.78 24.5556H29.22C31.0682 24.5556 31.9923 24.5556 32.6982 24.1958C33.3191 23.8791 33.824 23.3742 34.1403 22.7529C34.5 22.0466 34.5 21.1221 34.5 19.2731V6.72699C34.5 4.87793 34.5 3.9534 34.1403 3.24715C33.824 2.62593 33.3191 2.12085 32.6982 1.80431C31.9923 1.44446 31.0682 1.44446 29.22 1.44446H6.78C4.93184 1.44446 4.00775 1.44446 3.30183 1.80431C2.68089 2.12085 2.17607 2.62593 1.85968 3.24715C1.5 3.9534 1.5 4.87793 1.5 6.72699Z" stroke="url(#paint1_radial_825_32023)" stroke-width="1.5" stroke-linecap="round" stroke-linejoin="round"/>
</g>
<defs>
<radialGradient id="paint0_radial_825_32023" cx="0" cy="0" r="1" gradientUnits="userSpaceOnUse" gradientTransform="translate(1.5 1.44446) rotate(35.005) scale(40.2879 25.4567)">
<stop stop-color="#79A5C6"/>
<stop offset="1" stop-color="#2A4874"/>
</radialGradient>
<radialGradient id="paint1_radial_825_32023" cx="0" cy="0" r="1" gradientUnits="userSpaceOnUse" gradientTransform="translate(1.5 1.44446) rotate(35.005) scale(40.288 25.4567)">
<stop offset="0.244792" stop-color="#D5B78B"/>
<stop offset="1" stop-color="#875C3B"/>
</radialGradient>
<clipPath id="clip0_825_32023">
<rect width="36" height="26" fill="white"/>
</clipPath>
</defs>
</svg>
