<svg width="34" height="25" viewBox="0 0 34 25" fill="none" xmlns="http://www.w3.org/2000/svg">
<path d="M4.71344 25H29.2866C32.3905 25 34 23.3824 34 20.3062V4.69382C34 1.60312 32.3905 0 29.2866 0H4.71344C1.60947 0 0 1.60312 0 4.69382V20.3062C0 23.3969 1.60947 25 4.71344 25ZM2.81657 4.93934C2.81657 3.53842 3.54945 2.83073 4.88588 2.83073H29.1141C30.4362 2.83073 31.1834 3.53842 31.1834 4.93934V5.99365H2.81657V4.93934ZM4.88588 22.1693C3.54945 22.1693 2.81657 21.4616 2.81657 20.0607V9.35875H31.1834V20.0607C31.1834 21.4616 30.4362 22.1693 29.1141 22.1693H4.88588ZM6.84024 19.5407H10.3609C11.1944 19.5407 11.7692 18.9775 11.7692 18.1542V15.4824C11.7692 14.6736 11.1944 14.0959 10.3609 14.0959H6.84024C5.99239 14.0959 5.41758 14.6736 5.41758 15.4824V18.1542C5.41758 18.9775 5.99239 19.5407 6.84024 19.5407Z" fill="#A2A2A2"/>
</svg>
