<svg width="30" height="30" viewBox="0 0 30 30" fill="none" xmlns="http://www.w3.org/2000/svg">
<rect width="30" height="30" rx="7" fill="#087FED"/>
<path d="M22.1579 20.3333V21.2222C22.1579 22.2 21.4 23 20.4737 23H8.68421C7.74947 23 7 22.2 7 21.2222V8.77778C7 7.8 7.74947 7 8.68421 7H20.4737C21.4 7 22.1579 7.8 22.1579 8.77778V9.66667H14.5789C13.6442 9.66667 12.8947 10.4667 12.8947 11.4444V18.5556C12.8947 19.5333 13.6442 20.3333 14.5789 20.3333H22.1579ZM14.5789 18.5556H23V11.4444H14.5789V18.5556ZM17.9474 16.3333C17.2484 16.3333 16.6842 15.7378 16.6842 15C16.6842 14.2622 17.2484 13.6667 17.9474 13.6667C18.6463 13.6667 19.2105 14.2622 19.2105 15C19.2105 15.7378 18.6463 16.3333 17.9474 16.3333Z" fill="white"/>
</svg>
