<svg width="40" height="41" viewBox="0 0 40 41" fill="none" xmlns="http://www.w3.org/2000/svg">
<g clip-path="url(#clip0_903_36197)">
<path d="M20 40.5C31.0457 40.5 40 31.5457 40 20.5C40 9.45431 31.0457 0.5 20 0.5C8.95431 0.5 0 9.45431 0 20.5C0 31.5457 8.95431 40.5 20 40.5Z" fill="url(#paint0_radial_903_36197)"/>
<g filter="url(#filter0_d_903_36197)">
<path d="M18.6991 10.9596C18.4906 11.1692 18.3374 11.4241 18.2493 11.7013L12.599 26.7516H10.32V29.06H14.6361L16.2993 24.4697L17.0908 22.1621L19.9682 13.9909L25.2747 29.06H29.6791V26.7516H27.3913L21.7414 11.7008C21.6533 11.4239 21.5002 11.1691 21.2917 10.9596C20.9479 10.6141 20.4816 10.42 19.9954 10.42C19.5092 10.42 19.043 10.6141 18.6991 10.9596Z" fill="#FCFCFC"/>
</g>
</g>
<defs>
<filter id="filter0_d_903_36197" x="6.32001" y="10.42" width="27.3591" height="26.64" filterUnits="userSpaceOnUse" color-interpolation-filters="sRGB">
<feFlood flood-opacity="0" result="BackgroundImageFix"/>
<feColorMatrix in="SourceAlpha" type="matrix" values="0 0 0 0 0 0 0 0 0 0 0 0 0 0 0 0 0 0 127 0" result="hardAlpha"/>
<feOffset dy="4"/>
<feGaussianBlur stdDeviation="2"/>
<feComposite in2="hardAlpha" operator="out"/>
<feColorMatrix type="matrix" values="0 0 0 0 0 0 0 0 0 0 0 0 0 0 0 0 0 0 0.25 0"/>
<feBlend mode="normal" in2="BackgroundImageFix" result="effect1_dropShadow_903_36197"/>
<feBlend mode="normal" in="SourceGraphic" in2="effect1_dropShadow_903_36197" result="shape"/>
</filter>
<radialGradient id="paint0_radial_903_36197" cx="0" cy="0" r="1" gradientUnits="userSpaceOnUse" gradientTransform="translate(0 0.5) rotate(45) scale(56.5686 38.0354)">
<stop offset="0.244792" stop-color="#D5B78B"/>
<stop offset="1" stop-color="#875C3B"/>
</radialGradient>
<clipPath id="clip0_903_36197">
<rect width="40" height="40" fill="white" transform="translate(0 0.5)"/>
</clipPath>
</defs>
</svg>
