<svg width="600" height="600" viewBox="0 0 600 600" fill="none" xmlns="http://www.w3.org/2000/svg">
<circle cx="300" cy="300" r="300" fill="white"/>
<path d="M599.953 294.371C598.789 240.383 583.158 187.703 554.7 141.86C526.242 96.0172 486.006 58.7001 438.213 33.8243C390.42 8.94846 336.832 -2.56904 283.071 0.480082C229.311 3.5292 177.36 21.0326 132.668 51.1538C87.9766 81.275 52.1923 122.904 29.0697 171.672C5.94697 220.441 -3.66168 274.552 1.25173 328.328C6.16514 382.103 25.4195 433.562 56.9947 477.304C88.57 521.046 131.302 555.46 180.708 576.934C195.301 554.937 206.47 530.841 213.832 505.473C219.847 490.125 226.379 475.031 233.15 460.427C249.484 465.334 266.841 465.701 283.367 461.489C299.893 457.276 314.968 448.643 326.984 436.51L327.991 435.5C313.233 429.996 297.327 428.329 281.754 430.652C266.181 432.975 251.448 439.214 238.927 448.787C247.208 431.42 256.244 414.572 265.519 398.214C281.553 403.903 298.83 405.105 315.494 401.691C332.158 398.278 347.581 390.379 360.108 378.841L361.115 377.831C346.859 371.783 331.329 369.376 315.917 370.825C300.505 372.274 285.693 377.535 272.806 386.136C282.081 370.789 291.621 355.694 301.664 341.596C318.258 345.966 335.728 345.698 352.18 340.819C368.633 335.939 383.439 326.636 394.994 313.917L395.749 312.908C382.046 308.426 367.485 307.23 353.236 309.415C338.988 311.601 325.449 317.107 313.708 325.491C314.463 324.481 315.47 323.232 316.212 322.222C322.227 314.422 328.507 306.622 334.761 299.075C353.857 292.808 370.886 281.437 384.016 266.185C397.147 250.933 405.88 232.379 409.277 212.519L409.529 211.004H409.277C389.393 216.19 371.356 226.858 357.209 241.8C343.062 256.741 333.372 275.358 329.236 295.541C323.221 302.835 317.192 310.157 311.429 317.678C316.295 304.921 318.279 291.241 317.239 277.622C316.199 264.004 312.16 250.786 305.413 238.922L304.658 239.931C294.422 253.953 288.254 270.541 286.837 287.86C285.42 305.179 288.809 322.554 296.629 338.061C287.089 351.654 277.814 365.487 269.03 380.077C271.859 365.41 271.124 350.276 266.888 335.955C262.651 321.633 255.037 308.546 244.69 297.799L244.187 299.062C237.786 315.055 235.899 332.506 238.732 349.503C241.564 366.5 249.007 382.387 260.245 395.424C251.461 410.771 243.18 426.624 235.151 442.981C237.59 427.704 236.358 412.064 231.558 397.361C226.758 382.658 218.528 369.316 207.552 358.444L207.048 359.707C201.324 376.471 200.261 394.482 203.975 411.806C207.689 429.13 216.039 445.112 228.128 458.036C222.828 469.357 217.847 480.625 213.077 492.504C211.765 491.296 210.23 490.357 208.559 489.74C199.998 487.246 191.812 483.608 184.219 478.924C177.942 475.188 171.278 472.15 164.345 469.862C137.249 461.052 141.264 447.977 127.246 421.548C122.684 416.106 117.837 410.912 112.724 405.988C107.981 402.902 104.097 398.659 101.435 393.657C98.3444 387.41 96.3881 380.66 95.6585 373.725C95.5755 369.889 94.2963 366.175 92.0007 363.106C89.7051 360.036 86.5083 357.765 82.8595 356.611C42.9648 342.778 60.7856 290.943 62.2828 284.14C61.6696 275.342 59.7215 266.69 56.5059 258.481C56.1699 257.413 55.9174 256.32 55.7507 255.212C54.6862 249.842 54.8802 244.296 56.3172 239.013C57.7543 233.731 60.3952 228.855 64.0317 224.77C68.8015 219.987 85.3636 212.187 88.8747 207.656C92.3859 203.125 94.8901 198.088 98.4145 193.823C109.562 182.672 122.44 173.41 136.547 166.397C148.087 160.112 150.101 144.008 154.606 138.972C162.132 130.414 173.672 130.414 182.205 122.867C186.472 119.093 192.805 117.073 196.78 113.061C216.82 94.6547 242.076 82.961 269.043 79.6021C287.743 78.0731 306.566 79.7766 324.692 84.6382C327.315 85.0801 329.912 85.6701 332.469 86.4054C373.861 87.9202 423.547 96.4642 441.606 114.084C450.547 122.699 457.189 133.426 460.924 145.283C463.858 154.465 467.903 163.252 472.968 171.447L484.005 189.558C491.037 200.979 493.29 214.722 490.272 227.8C488.239 234.159 488.064 240.97 489.769 247.426C495.59 256.239 502.41 264.345 510.094 271.583C513.146 274.612 516.508 277.311 520.124 279.635C528.617 284.717 536.826 290.262 544.715 296.245C544.974 298.67 544.574 301.12 543.557 303.335C542.539 305.551 540.944 307.449 538.938 308.828C531.916 315.113 518.361 324.933 518.361 324.933C518.851 327.713 519.693 330.419 520.866 332.985C522.866 336.506 527.384 342.047 525.887 346.818C524.39 351.588 514.598 355.627 517.354 360.903C520.11 366.444 527.133 367.945 525.132 372.981C523.131 377.765 513.34 386.269 514.347 389.843C515.354 393.418 523.383 427.049 504.807 432.869C481.818 437.428 458.487 440.037 435.061 440.669C431.282 440.887 427.62 442.064 424.417 444.088C421.215 446.112 418.577 448.917 416.75 452.242C413.194 458.892 410.898 466.146 409.979 473.635C403.202 500.418 394.223 526.591 383.136 551.887C383.136 551.887 382.38 553.401 381.373 555.66C378.94 560.633 377.41 566.001 376.855 571.513C378.434 575.562 380.824 579.243 383.878 582.329C385.486 584.175 387.593 585.515 389.945 586.184C392.297 586.854 394.791 586.826 397.127 586.102C457.258 565.087 509.239 525.57 545.659 473.185C582.08 420.8 601.08 358.222 599.953 294.371Z" fill="#00DACC"/>
</svg>
