<svg width="200" height="200" viewBox="0 0 200 200" fill="none" xmlns="http://www.w3.org/2000/svg">
<circle cx="100" cy="100" r="100" fill="white"/>
<path d="M199.984 98.1237C199.596 80.1276 194.386 62.5678 184.9 47.2868C175.414 32.0057 162.002 19.5667 146.071 11.2748C130.14 2.98282 112.277 -0.856347 94.3572 0.160027C76.437 1.1764 59.1199 7.01086 44.2227 17.0513C29.3255 27.0917 17.3974 40.9679 9.68989 57.2241C1.98232 73.4803 -1.22056 91.5173 0.417243 109.443C2.05505 127.368 8.47316 144.521 18.9982 159.101C29.5233 173.682 43.7674 185.153 60.236 192.311C65.1002 184.979 68.8233 176.947 71.2773 168.491C73.2824 163.375 75.4598 158.344 77.7166 153.476C83.1614 155.111 88.9469 155.234 94.4556 153.83C99.9642 152.425 104.989 149.548 108.995 145.503L109.33 145.167C104.411 143.332 99.1091 142.776 93.918 143.551C88.727 144.325 83.8159 146.405 79.6423 149.596C82.4026 143.807 85.4147 138.191 88.5062 132.738C93.8511 134.634 99.6099 135.035 105.165 133.897C110.719 132.759 115.86 130.126 120.036 126.28L120.372 125.944C115.62 123.928 110.443 123.125 105.306 123.608C100.168 124.091 95.2309 125.845 90.9354 128.712C94.0269 123.596 97.2069 118.565 100.555 113.865C106.086 115.322 111.909 115.233 117.393 113.606C122.878 111.98 127.813 108.879 131.665 104.639L131.916 104.303C127.349 102.809 122.495 102.41 117.745 103.138C112.996 103.867 108.483 105.702 104.569 108.497C104.821 108.16 105.157 107.744 105.404 107.407C107.409 104.807 109.503 102.207 111.587 99.6917C117.952 97.6027 123.629 93.8122 128.005 88.7283C132.382 83.6443 135.293 77.4596 136.426 70.8397L136.51 70.3347H136.426C129.798 72.0634 123.785 75.6195 119.07 80.5999C114.354 85.5804 111.124 91.7861 109.745 98.5135C107.74 100.945 105.731 103.386 103.81 105.893C105.432 101.64 106.093 97.0803 105.746 92.5408C105.4 88.0013 104.053 83.5954 101.804 79.6405L101.553 79.9771C98.1407 84.6509 96.0847 90.1803 95.6123 95.9534C95.1399 101.726 96.2696 107.518 98.8763 112.687C95.6964 117.218 92.6048 121.829 89.6766 126.692C90.6197 121.803 90.3748 116.759 88.9626 111.985C87.5504 107.211 85.0124 102.849 81.5634 99.2665L81.3956 99.6873C79.2622 105.018 78.6331 110.835 79.5773 116.501C80.5214 122.167 83.0025 127.462 86.7485 131.808C83.8203 136.924 81.06 142.208 78.3835 147.66C79.1966 142.568 78.7861 137.355 77.186 132.454C75.5859 127.553 72.8425 123.105 69.1839 119.481L69.0161 119.902C67.1079 125.49 66.7538 131.494 67.9918 137.269C69.2298 143.043 72.0131 148.371 76.0428 152.679C74.2762 156.452 72.6155 160.208 71.0256 164.168C70.5882 163.765 70.0766 163.452 69.5196 163.247C66.6661 162.415 63.9372 161.203 61.4063 159.641C59.314 158.396 57.0926 157.383 54.7815 156.621C45.7497 153.684 47.0879 149.326 42.4152 140.516C40.8947 138.702 39.2789 136.971 37.5747 135.329C35.9936 134.301 34.6989 132.886 33.8118 131.219C32.7815 129.137 32.1294 126.887 31.8862 124.575C31.8585 123.296 31.4321 122.058 30.6669 121.035C29.9017 120.012 28.8361 119.255 27.6198 118.87C14.3216 114.259 20.2619 96.981 20.7609 94.7132C20.5565 91.7806 19.9072 88.8965 18.8353 86.1604C18.7233 85.8043 18.6391 85.44 18.5836 85.0708C18.2287 83.2805 18.2934 81.4321 18.7724 79.6712C19.2514 77.9102 20.1317 76.285 21.3439 74.9234C22.9338 73.3289 28.4545 70.7289 29.6249 69.2185C30.7953 67.7082 31.63 66.0295 32.8048 64.6077C36.5205 60.8906 40.8133 57.8032 45.5156 55.4658C49.3624 53.3708 50.0338 48.0025 51.5354 46.3239C54.044 43.4714 57.8908 43.4714 60.7351 40.9556C62.1572 39.6977 64.2683 39.0245 65.5932 37.6869C72.2733 31.5516 80.692 27.6537 89.681 26.534C95.9144 26.0244 102.189 26.5922 108.231 28.2127C109.105 28.36 109.971 28.5567 110.823 28.8018C124.62 29.3067 141.182 32.1547 147.202 38.0279C150.182 40.8997 152.396 44.4755 153.641 48.4277C154.619 51.4883 155.968 54.4172 157.656 57.1489L161.335 63.1859C163.679 66.993 164.43 71.5741 163.424 75.9332C162.746 78.0531 162.688 80.3233 163.256 82.4753C165.197 85.4129 167.47 88.1151 170.031 90.5276C171.049 91.5374 172.169 92.437 173.375 93.2117C176.206 94.9056 178.942 96.7539 181.572 98.7482C181.658 99.5566 181.525 100.373 181.186 101.112C180.846 101.85 180.315 102.483 179.646 102.943C177.305 105.038 172.787 108.311 172.787 108.311C172.95 109.238 173.231 110.14 173.622 110.995C174.289 112.169 175.795 114.016 175.296 115.606C174.797 117.196 171.533 118.542 172.451 120.301C173.37 122.148 175.711 122.648 175.044 124.327C174.377 125.922 171.113 128.756 171.449 129.948C171.785 131.139 174.461 142.35 168.269 144.29C160.606 145.809 152.829 146.679 145.02 146.89C143.761 146.962 142.54 147.355 141.472 148.029C140.405 148.704 139.526 149.639 138.917 150.747C137.731 152.964 136.966 155.382 136.66 157.878C134.401 166.806 131.408 175.53 127.712 183.962C127.712 183.962 127.46 184.467 127.125 185.22C126.313 186.878 125.803 188.667 125.618 190.504C126.145 191.854 126.941 193.081 127.959 194.11C128.495 194.725 129.198 195.172 129.982 195.395C130.766 195.618 131.597 195.609 132.376 195.367C152.419 188.362 169.746 175.19 181.886 157.728C194.027 140.267 200.36 119.407 199.984 98.1237Z" fill="#00DACC"/>
</svg>
