<svg width="400" height="400" viewBox="0 0 400 400" fill="none" xmlns="http://www.w3.org/2000/svg">
<circle cx="200" cy="200" r="200" fill="white"/>
<path d="M399.968 196.247C399.193 160.255 388.772 125.136 369.8 94.5735C350.828 64.0115 324.004 39.1334 292.142 22.5495C260.28 5.96564 224.555 -1.71269 188.714 0.320055C152.874 2.3528 118.24 14.0217 88.4454 34.1025C58.6511 54.1834 34.7949 81.9358 19.3798 114.448C3.96465 146.961 -2.44112 183.035 0.834486 218.885C4.11009 254.736 16.9463 289.041 37.9965 318.203C59.0467 347.364 87.5348 370.306 120.472 384.623C130.2 369.958 137.647 353.894 142.555 336.982C146.565 326.75 150.92 316.687 155.433 306.952C166.323 310.223 177.894 310.468 188.911 307.659C199.928 304.851 209.979 299.095 217.989 291.006L218.661 290.333C208.822 286.664 198.218 285.552 187.836 287.101C177.454 288.65 167.632 292.81 159.285 299.192C164.805 287.614 170.829 276.381 177.012 265.476C187.702 269.268 199.22 270.07 210.329 267.794C221.439 265.519 231.721 260.253 240.072 252.561L240.743 251.887C231.239 247.855 220.886 246.25 210.611 247.217C200.337 248.183 190.462 251.69 181.871 257.424C188.054 247.192 194.414 237.129 201.109 227.73C212.172 230.644 223.819 230.465 234.787 227.212C245.755 223.96 255.626 217.757 263.329 209.278L263.833 208.605C254.697 205.617 244.99 204.82 235.491 206.277C225.992 207.734 216.966 211.404 209.138 216.994C209.642 216.321 210.313 215.488 210.808 214.815C214.818 209.615 219.005 204.415 223.174 199.383C235.905 195.205 247.257 187.624 256.011 177.457C264.764 167.289 270.587 154.919 272.851 141.679L273.019 140.669H272.851C259.596 144.127 247.571 151.239 238.14 161.2C228.708 171.161 222.248 183.572 219.491 197.027C215.481 201.89 211.462 206.771 207.619 211.785C210.863 203.281 212.186 194.161 211.493 185.082C210.799 176.003 208.107 167.191 203.609 159.281L203.105 159.954C196.281 169.302 192.169 180.361 191.225 191.907C190.28 203.453 192.539 215.036 197.753 225.374C191.393 234.436 185.21 243.658 179.353 253.385C181.239 243.607 180.75 233.517 177.925 223.97C175.101 214.422 170.025 205.697 163.127 198.533L162.791 199.375C158.524 210.036 157.266 221.67 159.155 233.002C161.043 244.333 166.005 254.925 173.497 263.616C167.641 273.848 162.12 284.416 156.767 295.32C158.393 285.136 157.572 274.71 154.372 264.907C151.172 255.105 145.685 246.211 138.368 238.963L138.032 239.804C134.216 250.981 133.508 262.988 135.984 274.538C138.46 286.087 144.026 296.742 152.086 305.357C148.552 312.905 145.231 320.416 142.051 328.336C141.176 327.531 140.153 326.905 139.039 326.493C133.332 324.831 127.874 322.405 122.813 319.283C118.628 316.792 114.185 314.767 109.563 313.241C91.4994 307.368 94.1759 298.651 84.8305 281.032C81.7894 277.404 78.5578 273.941 75.1494 270.659C71.9873 268.601 69.3978 265.773 67.6236 262.438C65.5629 258.273 64.2587 253.774 63.7724 249.15C63.717 246.593 62.8642 244.117 61.3338 242.071C59.8034 240.024 57.6722 238.51 55.2396 237.74C28.6432 228.519 40.5237 193.962 41.5219 189.426C41.1131 183.561 39.8143 177.793 37.6706 172.321C37.4466 171.609 37.2782 170.88 37.1671 170.142C36.4575 166.561 36.5868 162.864 37.5448 159.342C38.5029 155.82 40.2634 152.57 42.6878 149.847C45.8677 146.658 56.9091 141.458 59.2498 138.437C61.5906 135.416 63.26 132.059 65.6096 129.215C73.041 121.781 81.6266 115.606 91.0312 110.932C98.7249 106.742 100.068 96.0051 103.071 92.6477C108.088 86.9429 115.782 86.9429 121.47 81.9113C124.314 79.3955 128.537 78.049 131.186 75.3737C144.547 63.1031 161.384 55.3073 179.362 53.0681C191.829 52.0487 204.378 53.1844 216.461 56.4255C218.21 56.7201 219.941 57.1134 221.646 57.6036C249.241 58.6135 282.365 64.3095 294.404 76.0558C300.365 81.7994 304.793 88.9509 307.283 96.8555C309.239 102.977 311.935 108.834 315.312 114.298L322.67 126.372C327.358 133.986 328.86 143.148 326.848 151.866C325.492 156.106 325.376 160.647 326.512 164.951C330.393 170.826 334.94 176.23 340.062 181.055C342.097 183.075 344.339 184.874 346.749 186.423C352.411 189.811 357.884 193.508 363.143 197.496C363.316 199.113 363.049 200.747 362.371 202.224C361.693 203.7 360.629 204.966 359.292 205.885C354.61 210.076 345.574 216.622 345.574 216.622C345.901 218.475 346.462 220.279 347.244 221.99C348.577 224.338 351.59 228.032 350.591 231.212C349.593 234.392 343.066 237.085 344.903 240.602C346.74 244.296 351.422 245.297 350.088 248.654C348.754 251.843 342.226 257.513 342.898 259.896C343.569 262.278 348.922 284.699 336.538 288.579C321.212 291.619 305.658 293.358 290.041 293.779C287.521 293.925 285.08 294.709 282.945 296.058C280.81 297.408 279.051 299.278 277.833 301.495C275.463 305.928 273.932 310.764 273.32 315.757C268.801 333.612 262.815 351.061 255.424 367.924C255.424 367.924 254.92 368.934 254.249 370.44C252.627 373.756 251.607 377.334 251.237 381.008C252.289 383.708 253.883 386.162 255.918 388.219C256.99 389.45 258.396 390.343 259.963 390.79C261.531 391.236 263.194 391.217 264.751 390.735C304.839 376.724 339.493 350.38 363.773 315.457C388.053 280.534 400.72 238.815 399.968 196.247Z" fill="#00DACC"/>
</svg>
