<svg width="30" height="30" viewBox="0 0 30 30" fill="none" xmlns="http://www.w3.org/2000/svg">
<rect width="30" height="30" rx="7" fill="#FF0420"/>
<path d="M25 11.1156V15.1156M13.25 8.61563H9.8C8.11984 8.61563 7.27976 8.61563 6.63803 8.94261C6.07354 9.23024 5.6146 9.68918 5.32698 10.2537C5 10.8954 5 11.7355 5 13.4156L5 14.6156C5 15.5475 5 16.0135 5.15224 16.381C5.35523 16.8711 5.74458 17.2604 6.23463 17.4634C6.60218 17.6156 7.06812 17.6156 8 17.6156V21.8656C8 22.0978 8 22.2139 8.00963 22.3117C8.10316 23.2612 8.85441 24.0125 9.80397 24.106C9.90175 24.1156 10.0178 24.1156 10.25 24.1156C10.4822 24.1156 10.5983 24.1156 10.696 24.106C11.6456 24.0125 12.3968 23.2612 12.4904 22.3117C12.5 22.2139 12.5 22.0978 12.5 21.8656V17.6156H13.25C15.0164 17.6156 17.1772 18.5625 18.8443 19.4713C19.8168 20.0014 20.3031 20.2665 20.6216 20.2275C20.9169 20.1913 21.1402 20.0587 21.3133 19.8167C21.5 19.5558 21.5 19.0336 21.5 17.9893V8.24192C21.5 7.19763 21.5 6.67548 21.3133 6.41452C21.1402 6.17254 20.9169 6.03993 20.6216 6.00376C20.3031 5.96476 19.8168 6.22983 18.8443 6.75999C17.1772 7.66875 15.0164 8.61563 13.25 8.61563Z" stroke="white" stroke-width="2" stroke-linecap="round" stroke-linejoin="round"/>
</svg>
