<svg width="38" height="38" viewBox="0 0 38 38" fill="none" xmlns="http://www.w3.org/2000/svg">
<g clip-path="url(#clip0_825_32026)">
<path d="M8.26092 8.63639L11.5653 5.18184M11.5653 5.18184L8.26092 1.72729M11.5653 5.18184H8.26092C4.61103 5.18184 1.65222 8.27514 1.65222 12.0909M28.087 29.3637L24.7827 32.8182M24.7827 32.8182L28.087 36.2727M24.7827 32.8182H28.087C31.7368 32.8182 34.6957 29.7248 34.6957 25.9091M20.5154 21.4479C21.8078 22.0932 23.2549 22.4546 24.7827 22.4546C30.2575 22.4546 34.6957 17.8146 34.6957 12.0909C34.6957 6.36725 30.2575 1.72729 24.7827 1.72729C19.3078 1.72729 14.8696 6.36725 14.8696 12.0909C14.8696 13.6882 15.2152 15.201 15.8325 16.5522M21.4783 25.9091C21.4783 31.6328 17.0401 36.2727 11.5653 36.2727C6.09044 36.2727 1.65222 31.6328 1.65222 25.9091C1.65222 20.1854 6.09044 15.5455 11.5653 15.5455C17.0401 15.5455 21.4783 20.1854 21.4783 25.9091Z" stroke="url(#paint0_radial_825_32026)" stroke-linecap="round" stroke-linejoin="round"/>
<mask id="mask0_825_32026" style="mask-type:luminance" maskUnits="userSpaceOnUse" x="0" y="13" width="24" height="25">
<path d="M24 13.8182H0V37.8182H24V13.8182Z" fill="white"/>
</mask>
<g mask="url(#mask0_825_32026)">
<path d="M12 37.8182C18.6274 37.8182 24 32.4456 24 25.8182C24 19.1907 18.6274 13.8182 12 13.8182C5.37259 13.8182 0 19.1907 0 25.8182C0 32.4456 5.37259 37.8182 12 37.8182Z" fill="url(#paint1_radial_825_32026)"/>
<g filter="url(#filter0_d_825_32026)">
<path d="M11.2196 20.0938C11.0945 20.2196 11.0026 20.3725 10.9497 20.5388L7.55952 29.569H6.19214V30.9541H8.78179L9.77971 28.2L10.2546 26.8153L11.981 21.9127L15.165 30.9541H17.8077V29.569H16.4349L13.045 20.5387C12.9921 20.3724 12.9002 20.2195 12.7751 20.0938C12.5689 19.8865 12.2891 19.7701 11.9974 19.7701C11.7057 19.7701 11.4259 19.8865 11.2196 20.0938Z" fill="#FCFCFC"/>
</g>
</g>
<g filter="url(#filter1_d_825_32026)">
<path d="M25.2174 24C31.8448 24 37.2174 18.6274 37.2174 12C37.2174 5.37259 31.8448 0 25.2174 0C18.59 0 13.2174 5.37259 13.2174 12C13.2174 18.6274 18.59 24 25.2174 24Z" fill="url(#paint2_radial_825_32026)"/>
<g filter="url(#filter2_d_825_32026)">
<path d="M24.437 6.27573C24.3119 6.40149 24.22 6.55442 24.167 6.72074L20.7769 15.7509H19.4095V17.136H21.9991L22.997 14.3818L23.4719 12.9972L25.1983 8.0945L28.3823 17.136H31.025V15.7509H29.6522L26.2624 6.72045C26.2094 6.55428 26.1175 6.4014 25.9924 6.27573C25.7862 6.06842 25.5064 5.95197 25.2148 5.95197C24.923 5.95197 24.6433 6.06842 24.437 6.27573Z" fill="white"/>
</g>
</g>
</g>
<defs>
<filter id="filter0_d_825_32026" x="2.19214" y="19.7701" width="19.6156" height="19.184" filterUnits="userSpaceOnUse" color-interpolation-filters="sRGB">
<feFlood flood-opacity="0" result="BackgroundImageFix"/>
<feColorMatrix in="SourceAlpha" type="matrix" values="0 0 0 0 0 0 0 0 0 0 0 0 0 0 0 0 0 0 127 0" result="hardAlpha"/>
<feOffset dy="4"/>
<feGaussianBlur stdDeviation="2"/>
<feComposite in2="hardAlpha" operator="out"/>
<feColorMatrix type="matrix" values="0 0 0 0 0 0 0 0 0 0 0 0 0 0 0 0 0 0 0.25 0"/>
<feBlend mode="normal" in2="BackgroundImageFix" result="effect1_dropShadow_825_32026"/>
<feBlend mode="normal" in="SourceGraphic" in2="effect1_dropShadow_825_32026" result="shape"/>
</filter>
<filter id="filter1_d_825_32026" x="11.2174" y="0" width="26" height="26" filterUnits="userSpaceOnUse" color-interpolation-filters="sRGB">
<feFlood flood-opacity="0" result="BackgroundImageFix"/>
<feColorMatrix in="SourceAlpha" type="matrix" values="0 0 0 0 0 0 0 0 0 0 0 0 0 0 0 0 0 0 127 0" result="hardAlpha"/>
<feOffset dx="-1" dy="1"/>
<feGaussianBlur stdDeviation="0.5"/>
<feComposite in2="hardAlpha" operator="out"/>
<feColorMatrix type="matrix" values="0 0 0 0 0 0 0 0 0 0 0 0 0 0 0 0 0 0 0.25 0"/>
<feBlend mode="normal" in2="BackgroundImageFix" result="effect1_dropShadow_825_32026"/>
<feBlend mode="normal" in="SourceGraphic" in2="effect1_dropShadow_825_32026" result="shape"/>
</filter>
<filter id="filter2_d_825_32026" x="15.4095" y="5.95197" width="19.6155" height="19.184" filterUnits="userSpaceOnUse" color-interpolation-filters="sRGB">
<feFlood flood-opacity="0" result="BackgroundImageFix"/>
<feColorMatrix in="SourceAlpha" type="matrix" values="0 0 0 0 0 0 0 0 0 0 0 0 0 0 0 0 0 0 127 0" result="hardAlpha"/>
<feOffset dy="4"/>
<feGaussianBlur stdDeviation="2"/>
<feComposite in2="hardAlpha" operator="out"/>
<feColorMatrix type="matrix" values="0 0 0 0 0 0 0 0 0 0 0 0 0 0 0 0 0 0 0.25 0"/>
<feBlend mode="normal" in2="BackgroundImageFix" result="effect1_dropShadow_825_32026"/>
<feBlend mode="normal" in="SourceGraphic" in2="effect1_dropShadow_825_32026" result="shape"/>
</filter>
<radialGradient id="paint0_radial_825_32026" cx="0" cy="0" r="1" gradientUnits="userSpaceOnUse" gradientTransform="translate(1.65222 1.72729) rotate(46.273) scale(47.8044 32.1108)">
<stop offset="0.244792" stop-color="#D5B78B"/>
<stop offset="1" stop-color="#875C3B"/>
</radialGradient>
<radialGradient id="paint1_radial_825_32026" cx="0" cy="0" r="1" gradientUnits="userSpaceOnUse" gradientTransform="translate(0 13.8182) rotate(45) scale(33.9411 22.8213)">
<stop offset="0.244792" stop-color="#D5B78B"/>
<stop offset="1" stop-color="#875C3B"/>
</radialGradient>
<radialGradient id="paint2_radial_825_32026" cx="0" cy="0" r="1" gradientUnits="userSpaceOnUse" gradientTransform="translate(13.2174) rotate(45) scale(33.9411 22.8213)">
<stop stop-color="#79A5C6"/>
<stop offset="0.616783" stop-color="#2A4874"/>
</radialGradient>
<clipPath id="clip0_825_32026">
<rect width="38" height="38" fill="white"/>
</clipPath>
</defs>
</svg>
